<?xml version="1.0"?>
<svg width="541" height="458" xmlns="http://www.w3.org/2000/svg" xmlns:svg="http://www.w3.org/2000/svg" data-name="Layer 1">
 <defs>
  <style>.cls-1 {
        fill: #0a97d9;
      }

      .cls-2 {
        fill: #fff;
      }</style>
 </defs>
 <title>Artboard 1</title>
 <g class="layer">
  <title>Layer 1</title>
  <g id="svg_17">
   <path class="cls-2" d="m540.3,332.65c-12.58,-17 -93.88,-120.62 -207.86,-120.62c-99,0 -204.85,89.76 -204.85,89.76s-39.77,-81.4 -121.13,-89.22c-0.47,0 -1,-0.11 -1.52,-0.11l-0.51,0c-1.7,0.1 -3.29,1.75 -3.1,3.22a9,9 0 0 0 1.27,3c10.49,17.35 37.25,66.9 37.25,116.35c0,49.64 -26.92,99.3 -37.31,116.63l-0.71,1.1a3.3,3.3 0 0 0 -0.5,1.72a3.23,3.23 0 0 0 3,3.2l0.88,-0.07a3.14,3.14 0 0 0 0.85,-0.08c81.61,-7.6 121.53,-89.25 121.53,-89.25s105.88,89.77 204.85,89.77c114,0 195.27,-103.64 207.86,-120.61c0.34,-0.46 0.62,-0.86 0.87,-1.16a3.36,3.36 0 0 0 0.27,-1.25a3.18,3.18 0 0 0 -0.27,-1.24c-0.25,-0.35 -0.53,-0.75 -0.87,-1.17m-144.48,15.53a33.26,33.26 0 1 1 33.3,-33.27a33.28,33.28 0 0 1 -33.3,33.27" id="svg_18"/>
   <path class="cls-2" d="m3.9,17.2a3.46,3.46 0 0 0 -0.63,-0.14a3.29,3.29 0 0 0 -3.27,3.31l0,22.66a3.23,3.23 0 0 0 0.95,2.35c55,47.8 107.11,3 119.17,-8.83a3.3,3.3 0 0 1 0.86,-0.92a3.36,3.36 0 0 1 1.81,-0.59a3.17,3.17 0 0 1 2.21,0.88a0.52,0.52 0 0 0 0.16,0.14c62.15,59.3 127.31,11.27 140.87,0l1.33,-1.22a2.9,2.9 0 0 1 1.24,-0.25a3,3 0 0 1 1.29,0.25l1.35,1.22c13.55,11.27 78.71,59.3 140.85,0a0.94,0.94 0 0 0 0.12,-0.14a3.2,3.2 0 0 1 2.21,-0.88a3.28,3.28 0 0 1 1.81,0.59a3.62,3.62 0 0 1 0.91,0.92c12.05,11.84 64.09,56.63 119.15,8.83a3.31,3.31 0 0 0 0.95,-2.35l0,-22.66a3.25,3.25 0 0 0 -3.23,-3.31a3.47,3.47 0 0 0 -0.7,0.14c-0.51,0.29 -1,0.57 -1.65,0.86c-16.92,8.47 -69.4,28.63 -117,-16.44c-0.45,-0.41 -0.92,-0.83 -1.39,-1.32a3.42,3.42 0 0 0 -1.39,-0.3a5.91,5.91 0 0 0 -1,0.15a3.74,3.74 0 0 0 -1.66,1.29c-14.2,10.82 -79.36,54.94 -137.39,0.81l-0.85,-0.83a3.64,3.64 0 0 0 -2.36,-1a3.47,3.47 0 0 0 -2.27,1l-0.9,0.83c-58,54.13 -123.24,10 -137.42,-0.81a3.54,3.54 0 0 0 -1.61,-1.29a6.85,6.85 0 0 0 -1,-0.15a3.72,3.72 0 0 0 -1.37,0.3a13.27,13.27 0 0 1 -1.39,1.32c-47.63,45.07 -100.1,24.91 -117,16.44c-0.59,-0.29 -1.16,-0.57 -1.67,-0.86" id="svg_19"/>
   <path class="cls-2" d="m120.12,119.11a3.55,3.55 0 0 1 0.87,-0.9a3.36,3.36 0 0 1 1.8,-0.62a3.19,3.19 0 0 1 2.22,0.91a0.5,0.5 0 0 0 0.15,0.14c62.13,59.23 127.31,11.22 140.87,0l1.33,-1.26a3.2,3.2 0 0 1 1.24,-0.21a3.47,3.47 0 0 1 1.31,0.21l1.33,1.26c13.55,11.22 78.7,59.23 140.86,0c0,0 0.07,-0.08 0.11,-0.14a3.18,3.18 0 0 1 2.21,-0.91a3.25,3.25 0 0 1 1.8,0.62a3.58,3.58 0 0 1 0.92,0.9c12,11.85 64.08,56.65 119.15,8.8a3.18,3.18 0 0 0 1,-2.29l0,-22.75a3.24,3.24 0 0 0 -3.25,-3.25a4.3,4.3 0 0 0 -0.7,0.13l-1.65,0.83c-16.91,8.48 -69.42,28.59 -117,-16.42l-1.38,-1.3a2.64,2.64 0 0 0 -1.4,-0.33a2,2 0 0 0 -1,0.25a2.79,2.79 0 0 0 -1.66,1.22c-14.18,10.8 -79.36,54.93 -137.4,0.8l-0.85,-0.85a3.35,3.35 0 0 0 -2.35,-0.91a3.22,3.22 0 0 0 -2.27,0.91l-0.9,0.85c-58,54.13 -123.24,10 -137.42,-0.8a2.71,2.71 0 0 0 -1.61,-1.22a2.25,2.25 0 0 0 -1,-0.25a2.6,2.6 0 0 0 -1.35,0.33c-0.45,0.45 -0.93,0.88 -1.42,1.3c-47.63,45 -100.09,24.9 -117,16.42l-1.67,-0.83a4.32,4.32 0 0 0 -0.62,-0.13a3.26,3.26 0 0 0 -3.28,3.25l0,22.75a3.13,3.13 0 0 0 0.95,2.29c55,47.85 107.12,3 119.17,-8.8" id="svg_20"/>
  </g>
 </g>
</svg>