<?xml version="1.0"?>
<svg width="762" height="327" xmlns="http://www.w3.org/2000/svg" xmlns:svg="http://www.w3.org/2000/svg" data-name="Layer 1">
 <defs>
  <style>.cls-1 {
        fill: #e5243b;
      }

      .cls-2 {
        fill: #fff;
      }</style>
 </defs>
 <title>Artboard 1</title>
 <g class="layer">
  <title>Layer 1</title>
  <g id="svg_12">
   <path class="cls-2" d="m668.56,27.69a27.67,27.67 0 1 1 27.7,27.69a27.7,27.7 0 0 1 -27.7,-27.69" id="svg_13"/>
   <path class="cls-2" d="m728.58,66.05a36.89,36.89 0 0 1 33.5,36.77l0,76.78a10.73,10.73 0 0 1 -21.46,0l0,-65.95c0,-2.48 -0.71,-5.82 -5.23,-5.82c-3.13,0 -3.78,3.31 -3.89,5.42l0,197.54a15.43,15.43 0 0 1 -30.86,0l0,-113.83c0,-1.26 -0.46,-4.52 -4.38,-4.52l0,0c-3.93,0 -4.41,3.26 -4.45,4.52l0,113.83a15.42,15.42 0 1 1 -30.83,0l0,-197.54c-0.1,-2.11 -0.78,-5.42 -3.88,-5.42c-4.54,0 -5.23,3.34 -5.23,5.82l0,65.95a10.73,10.73 0 0 1 -21.44,0l0,-76.78a36.91,36.91 0 0 1 33.55,-36.77a15.26,15.26 0 0 1 2,-0.17l60.45,0a16.4,16.4 0 0 1 2.11,0.17" id="svg_14"/>
  </g>
  <g id="svg_15">
   <path class="cls-2" d="m503.93,42.23a26.21,26.21 0 1 0 -26.19,26.22a26.21,26.21 0 0 0 26.19,-26.22" id="svg_16"/>
   <path class="cls-2" d="m424.91,101.6l-21.79,71s-3.88,13 7.15,16.25s14.31,-9.44 14.31,-9.44l17.57,-59.21s1,-4.56 4.38,-3.57s2.14,5.85 2.14,5.85l-30.58,111l28.44,0l0,79.47a13.66,13.66 0 0 0 27.31,0l0,-79.56l7.76,0l0,79.47a13.67,13.67 0 0 0 27.33,0l0,-79.47l28.43,0l-30.56,-111s-1.29,-4.79 2.13,-5.79s4.38,3.57 4.38,3.57l17.57,59.21s3.34,12.69 14.3,9.44s7.15,-16.22 7.15,-16.22l-21.79,-71s-7.78,-20.51 -25,-20.51l-55.58,0c-17.24,0 -25,20.51 -25,20.51" id="svg_17"/>
  </g>
  <g id="svg_18" transform="matrix(1 0 0 1 0 0)">
   <path class="cls-2" d="m346.92,42.23a26.21,26.21 0 1 0 -26.2,26.22a26.22,26.22 0 0 0 26.2,-26.22" id="svg_19"/>
   <path class="cls-2" d="m267.89,101.6l-21.78,71s-3.9,13 7.14,16.25s14.31,-9.44 14.31,-9.44l17.57,-59.21s0.95,-4.56 4.38,-3.57s2.13,5.85 2.13,5.85l-30.57,111l28.44,0l0,79.47a13.66,13.66 0 0 0 27.32,0l0,-79.56l7.76,0l0,79.47a13.66,13.66 0 0 0 27.31,0l0,-79.47l28.45,0l-30.56,-111s-1.3,-4.87 2.11,-5.85s4.39,3.57 4.39,3.57l17.56,59.21s3.34,12.69 14.31,9.44s7.14,-16.16 7.14,-16.16l-21.79,-71s-7.77,-20.51 -25,-20.51l-55.57,0c-17.23,0 -25.05,20.51 -25.05,20.51" id="svg_20"/>
  </g>
  <g id="svg_21">
   <path class="cls-2" d="m591.97,188.95a21.82,21.82 0 1 0 -21.82,-21.84a21.8,21.8 0 0 0 21.82,21.84" id="svg_22"/>
   <path class="cls-2" d="m539.66,256.73c-1.07,2.55 -1.94,8 3.18,10.32c6,2.76 9.35,-3 9.35,-3l11.86,-37.83s2.06,-2.53 2.06,0.09l0,89.05l0.05,0a11.2,11.2 0 0 0 22.39,0l0,-35.19s-0.65,-5 3.36,-5s3.38,5 3.38,5l0,35.15a11.22,11.22 0 0 0 22.44,0l0,-89.05c0,-2.62 1.38,-0.75 1.38,-0.75l9.3,25.9s4,11.57 5.28,12.08a8.26,8.26 0 0 0 10.81,-4.47a8.16,8.16 0 0 0 -0.88,-8l0.08,-0.08c-0.27,-0.84 -13.9,-34.26 -15.5,-38.95c-4.92,-14.37 -13.88,-14.24 -22.5,-14.48s-13.79,0 -13.79,0s-5.51,-0.22 -16.9,0.11s-15,6.19 -27.51,38.46c-1.79,4.65 -7.84,19.68 -7.92,20.58l0.08,0.06z" id="svg_23"/>
  </g>
  <g id="svg_24" transform="matrix(1 0 0 1 0 0)">
   <path class="cls-2" d="m85.09,55.38a27.69,27.69 0 1 0 -27.66,-27.69a27.72,27.72 0 0 0 27.66,27.69z" id="svg_25"/>
   <path class="cls-2" d="m117.65,65.91a18.06,18.06 0 0 0 -2.22,-0.31l-60.5,0a13.66,13.66 0 0 0 -2,0.31a37,37 0 0 0 -33.5,36.91l0,76.78a10.66,10.66 0 0 0 5.61,9.46a4.07,4.07 0 0 0 -0.36,0.94l-24.6,130.3a4,4 0 0 0 3.22,4.74a3.81,3.81 0 0 0 0.75,0.07a4.05,4.05 0 0 0 4,-3.31l24.58,-130.3a4,4 0 0 0 -0.15,-1.51a10.62,10.62 0 0 0 7.95,-10.39l0,-65.95c0,-2.48 0.65,-5.82 5.17,-5.82c3.12,0 3.83,3.31 3.83,5.42l0,197.54a15.5,15.5 0 0 0 31,0l0,-113.83a4.3,4.3 0 0 1 4.66,-4.36l0,0c3.93,0 4.33,3.1 4.33,4.36l0,113.83a15.5,15.5 0 0 0 31,0l0,-197.54c0,-2.11 0.74,-5.42 3.83,-5.42c4.55,0 5.17,3.34 5.17,5.82l0,65.95a11,11 0 0 0 22,0l0,-76.78a37.25,37.25 0 0 0 -33.77,-36.91z" id="svg_26"/>
  </g>
  <g id="svg_27">
   <path class="cls-2" d="m224.59,225.01l20.25,-36.75s2.44,-5.28 2.44,-6.54a8,8 0 0 0 -14.72,-4.21l-0.09,0c-0.64,0.55 -10.83,18.63 -14.19,22c-3.55,3.59 -6.74,3.14 -6.74,3.14l-26.44,0s-3.2,0.45 -6.74,-3.14c-3.4,-3.36 -13.54,-21.47 -14.19,-22l-0.07,0.06a8,8 0 0 0 -14.67,4.14a14.41,14.41 0 0 0 0.78,3.49l21.95,39.81a14.62,14.62 0 0 1 1.29,5.25l0,7.84l-11.52,42.5l11.5,0l0,35l0.15,0a10.94,10.94 0 0 0 10.94,10.83a10.81,10.81 0 0 0 10.91,-10.69l0,-33.73a1.8,1.8 0 0 1 -0.38,-1.41l6.5,0a3.39,3.39 0 0 1 -0.12,1.41l0,33.73a11,11 0 0 0 22,0l0,-35.14l11.29,0l-11.29,-42.75l0,-7.59a15.92,15.92 0 0 1 1.16,-5.25z" id="svg_28"/>
   <path class="cls-2" d="m198.31,188.95a21.82,21.82 0 1 0 -21.81,-21.84a21.8,21.8 0 0 0 21.81,21.84z" id="svg_29"/>
  </g>
 </g>
</svg>