<?xml version="1.0"?>
<svg width="740" height="377" xmlns="http://www.w3.org/2000/svg" xmlns:svg="http://www.w3.org/2000/svg" data-name="Layer 1">
 <defs>
  <style>.cls-1 {
        fill: #3f7e44;
      }

      .cls-2 {
        fill: #fff;
      }</style>
 </defs>
 <title>Artboard 1</title>
 <g class="layer">
  <title>Layer 1</title>
  <path class="cls-2" d="m737.03,184.45c-26.35,-36.91 -145.53,-184.45 -367.09,-184.45s-340.68,147.54 -367.07,184.45c-1.12,1.58 -2.09,3 -2.87,4.11c0.78,1.19 1.75,2.55 2.87,4.15c26.39,36.97 145.53,184.52 367.07,184.52s340.74,-147.55 367.09,-184.48c1.15,-1.6 2.1,-3 2.85,-4.15q-1.12,-1.74 -2.85,-4.11m-490.64,-91.2c2,-2.93 8.63,-11.29 9.43,-12.35c1.71,-2.2 5.1,-2.65 7.47,-3.07s5.49,0.87 5.87,2.64s-0.91,8.63 -2.07,9.81c-3.25,3.37 -11.71,8.13 -16.37,7.38c-3.61,-0.55 -5,-3.34 -4.33,-4.41m-7.92,15.74c0.35,-0.42 0.67,-0.76 0.8,-0.93c2.79,-3.18 8.34,-3.86 12.17,-4.46s9,1.28 9.58,3.83s-9.63,7.2 -11.51,9c-5.33,4.91 -13.67,14.91 -18.55,16a5.86,5.86 0 0 1 -4,-0.41a152.9,152.9 0 0 1 11.5,-23m82.91,170.08c-3,11.8 -6.5,16.05 -9.48,19.77s-14,8.57 -21,8.05s-8,-19.25 -8,-28.89c0,-3.32 -4.71,6.54 -7.17,-13.51c-1.57,-12.83 -9.81,1.34 -10.39,-7.22s-4.7,-6.84 -9,-12.18s-9.68,0.52 -15.7,3.22s-3.52,4.06 -12,1.38c-0.22,-0.07 -0.33,-0.13 -0.54,-0.21a153.79,153.79 0 0 1 -12.22,-60.1c0,-5.21 0.28,-10.34 0.77,-15.4a9.2,9.2 0 0 1 0.95,-1.44c8.16,-9.66 8,-11.92 8,-11.92l9,-3.12s14.42,2.22 25.28,6.31c8.95,3.35 23,10.94 31.23,7.6c5.93,-2.44 10.56,-5.68 10,-10.61c-0.66,-6.19 -5.54,-7.66 -11.44,-3.49c-2.17,1.54 -6.81,-9.33 -10.45,-8.77s4.5,12.76 1.42,13.28s-9.31,-12.74 -10.37,-14.89s-5.85,-7.46 -10.16,-3.4c-9.1,8.65 -23.88,8.12 -26.85,10.35c-9,6.76 -11.42,-2.23 -11.22,-7.7c0.36,-1.25 0.73,-2.51 1.13,-3.75c2.95,-3.25 13.54,-4.33 17.18,-1.91c4,2.67 6.86,-0.68 8.42,-2.3s1,-4.15 0,-6.27s2,-3.72 4.06,-4.27s8.95,-5.37 11.7,-7s17,-3.33 23.43,-0.13a12.42,12.42 0 0 0 15.41,-3.11a41.24,41.24 0 0 1 11.19,-9.33c2.24,-1 -5.51,-8.27 -11.87,-0.39s-9.63,8.56 -12.63,8.56s-20.82,-4.44 -23,-10.07s5.58,-9.84 12.15,-13s24.57,-3.09 29.17,-4.13c9.35,-2.05 21.31,-6.75 27.33,-2.65s-25.15,11.12 -14.91,16.65c3.64,2 20.1,-9.47 25.75,-12.41c13.27,-6.84 -12.87,-9.1 -9.48,-23c3.83,-15.72 -32.07,-9.64 -50,-8.3a154.3,154.3 0 0 1 233.18,93.93a25.36,25.36 0 0 1 -0.75,7.15c-1.4,5.56 -12,10.34 -18.07,1.39c-1.56,-2.26 -8.18,-8.51 -8,2.18s10.4,11.79 0.53,18.21s-11.66,4.87 -16.22,6.49s-9,12.63 -7.87,18.52s15.17,22 4.73,21.32c-2.45,-0.19 -20.89,-12.78 -23.93,-20.88c-3.22,-8.53 -6.72,-16.87 -9.21,-23.3s-9,-8 -14.54,-4.27s1.53,7.51 -2.42,15.55s-6.76,15.19 -12.55,8.56c-15.07,-17.26 -37,-8.75 -40.39,-28c-1.85,-10.41 -10.82,-9.41 -18.32,-15.31s-11.73,-9 -13,-4.81c-1.11,3.73 23.59,23.32 25.35,28.33c2.63,7.46 -7.39,14 -14.73,15.8s-10.52,-4.11 -17.72,-11.61s-10.33,-12.82 -10.83,-6.94c-0.72,8.49 6.83,21 14.15,25.62c6.25,3.95 13.25,5.74 11.22,12.16s0,2.8 -7,9.72s-8.34,9.19 -7.83,18.8s-2,10.19 -3.51,18.2s-5,1.08 -8,12.83m165.61,-61.51c5.18,-0.42 13,6.77 9.93,9.53s-10.81,1.74 -14.72,-1.32s2.45,-8 4.79,-8.21m-6.57,-4.74c-1.66,-0.62 -3.13,-2.2 -4.39,-6s1.93,-6 5,-4.43s7.28,6.33 7.28,8.85s-6.23,2.23 -7.93,1.56m-68.11,-0.27c-3.05,2.72 -10.85,1.72 -14.75,-1.32s2.46,-8 4.78,-8.21c5.19,-0.47 13,6.79 10,9.53m-63,30.65c-2.12,3.47 -7.93,29.42 -11.82,26.4s1.58,-30.1 2.7,-32.16c6.1,-11.18 19.28,-10.63 9.12,5.76m21,100.58a154.27,154.27 0 0 1 -43.37,-6.21a6.35,6.35 0 0 1 -1.87,-7.54c4.77,-12.45 19,-17.33 30.22,-18.41c25,-2.44 57.92,16.25 63.15,13.23s15.83,-16.77 31.35,-16.19c10.6,0.41 10.52,2.19 14.08,3.53a153.73,153.73 0 0 1 -93.56,31.59m108.85,-44.92a25.79,25.79 0 0 1 -4.84,-1.79c-8.43,-4.29 -7.42,2.56 -11.56,1s4.67,-11.15 -7.77,-3s-9.05,-1.26 -14.45,-15s6.22,-29.43 16,-33c13.41,-4.85 21.73,-5.84 28,-7.39c18.54,-4.63 22.46,-15.63 25.82,-8.94c0.64,1.25 1.25,2.45 1.81,3.57a24.37,24.37 0 0 1 2.34,10.15a154.48,154.48 0 0 1 -35.38,54.44m42.28,-77.91c-4.14,-1.13 -21.47,-25.09 -7.77,-40.85c2.28,-2.59 -4.6,-10.22 -2.72,-10.37c7.5,-0.58 11.48,4.07 13.45,10.77c0.15,3 0.27,5.94 0.27,9a155.68,155.68 0 0 1 -3.23,31.5" id="svg_4"/>
 </g>
</svg>