<?xml version="1.0"?>
<svg width="409" height="402" xmlns="http://www.w3.org/2000/svg" xmlns:svg="http://www.w3.org/2000/svg" data-name="Layer 1">
 <defs>
  <style>.cls-1 {
        fill: #00689d;
      }

      .cls-2 {
        fill: #fff;
      }</style>
 </defs>
 <title>Artboard 1</title>
 <g class="layer">
  <title>Layer 1</title>
  <g id="svg_4">
   <path class="cls-2" d="m350.52,3.15s-8.41,11.17 -6,22.06s14.88,17.36 14.88,17.36s8.41,-11.17 6,-22.05s-14.88,-17.37 -14.88,-17.37" id="svg_5"/>
   <path class="cls-2" d="m336.81,66.99s8.41,-11.18 6,-22.06s-14.87,-17.36 -14.87,-17.36s-8.42,11.17 -6,22.06s14.88,17.36 14.88,17.36" id="svg_6"/>
   <path class="cls-2" d="m371.38,55.03s8.88,9 19,8.06s17.61,-11.31 17.61,-11.31s-8.87,-9 -19,-8.07s-17.61,11.32 -17.61,11.32" id="svg_7"/>
   <path class="cls-2" d="m385.94,7.15c-8.23,8.35 -7.07,23.13 -7.07,23.13s14.51,1.26 22.76,-7.08s7.07,-23.13 7.07,-23.13s-14.52,-1.26 -22.76,7.08" id="svg_8"/>
   <path class="cls-2" d="m367.78,88.24c10.08,1.2 19.56,-7.46 19.56,-7.46s-6.87,-10.63 -16.96,-11.78s-19.57,7.47 -19.57,7.47s6.87,10.58 16.95,11.77" id="svg_9"/>
   <path class="cls-2" d="m376.78,263.38l-75.35,0a10.66,10.66 0 1 0 0,21.32l75.35,0a10.66,10.66 0 0 0 0,-21.32" id="svg_10"/>
   <path class="cls-2" d="m376.78,380.89l-75.35,0a10.66,10.66 0 1 0 0,21.32l75.35,0a10.66,10.66 0 0 0 0,-21.32" id="svg_11"/>
   <path class="cls-2" d="m37.89,237.5a49.66,49.66 0 0 0 -5.23,-1.34s1.93,0.6 5.23,1.34" id="svg_12"/>
   <path class="cls-2" d="m374.01,292.15l-69.83,0a6.07,6.07 0 0 0 -6.07,6.06l0,21.15l-45.58,5l-66.59,-1.52l0,-40.69a183,183 0 0 0 26.49,-5.38c64.11,-18.08 78.09,-71.08 76.69,-107.75c-1.39,-37.35 10.56,-51.85 27.73,-58.3a77.47,77.47 0 0 1 14.23,-3.77c0.19,9.17 2,19.84 6.15,32.54c1.53,-0.08 3,-0.21 4.55,-0.37c-4.33,-13 -6.18,-23.69 -6.28,-32.81a79.89,79.89 0 0 1 15.2,-0.46a96.54,96.54 0 0 1 -14.47,-10.3c2.88,-17.68 13.42,-28.54 24.27,-39.65c6,-6.11 12.13,-12.42 17,-19.94l-3.78,-2.44c-4.6,7.14 -10.63,13.29 -16.44,19.24c-10.58,10.83 -21.27,21.89 -24.89,39.45a145.4,145.4 0 0 1 -11.01,-11.06c-15.81,-17.72 -36.16,-4.71 -65.17,22.31s-65.54,27.93 -101.2,-8.55c-47,-48.16 -88.08,-47.88 -116.22,-45.15c19.25,8.2 26,26.19 35.73,71.91c10.21,48 36,69.68 71.19,72.67c-19.59,6.93 -20.56,18 -46.81,36.12c-20.51,14.14 -49.35,9.67 -61,7c21.46,6.7 46.89,29.21 69.64,37a168.17,168.17 0 0 0 41.51,8.51l0,38.94l-119.3,-2.72l0,27.16l222.79,-5.1l45.58,5l0,21.13a6.09,6.09 0 0 0 6.07,6.08l69.83,0a6.1,6.1 0 0 0 6.08,-6.08l0,-69.17a6.08,6.08 0 0 0 -6.09,-6.06zm-214,-8.52c5,0.08 9.95,-0.07 14.94,-0.41l0,39.37l-14.94,-0.34l0,-38.62z" id="svg_13"/>
   <path class="cls-2" d="m23.22,341.95c0,5.73 -4,10.37 -8.92,10.37l-5.37,0c-4.92,0 -8.93,-4.64 -8.93,-10.37l0,-18.8c0,-5.73 4,-10.37 8.93,-10.37l5.37,0c4.92,0 8.92,4.64 8.92,10.37l0,18.8z" id="svg_14"/>
  </g>
 </g>
</svg>