<?xml version="1.0"?>
<svg width="490" height="481" xmlns="http://www.w3.org/2000/svg" xmlns:svg="http://www.w3.org/2000/svg" data-name="Layer 1">
 <defs>
  <style>.cls-1 {
        fill: #56c02b;
      }

      .cls-2 {
        fill: #fff;
      }</style>
 </defs>
 <title>Artboard 1</title>
 <g class="layer">
  <title>Layer 1</title>
  <g id="svg_14">
   <path class="cls-2" d="m164.22,278.87a2.21,2.21 0 0 1 2.21,2.21l0,72.82a2.2,2.2 0 0 1 -2.21,2.21l-29.46,0a2.21,2.21 0 0 1 -2.22,-2.21l0,-72.82a2.21,2.21 0 0 1 2.22,-2.21l29.46,0z" id="svg_15"/>
   <path class="cls-2" d="m487.83,387.37l-485.61,0a2.28,2.28 0 0 0 -2.22,2.29l0,29.68a2.21,2.21 0 0 0 2.22,2.18l485.61,0a2.24,2.24 0 0 0 2.23,-2.18l0,-29.68a2.3,2.3 0 0 0 -2.23,-2.29" id="svg_16"/>
   <path class="cls-2" d="m487.83,446.36l-485.61,0a2.22,2.22 0 0 0 -2.19,2.19l0,29.77a2.23,2.23 0 0 0 2.22,2.19l485.58,0a2.25,2.25 0 0 0 2.23,-2.19l0,-29.77a2.24,2.24 0 0 0 -2.23,-2.19" id="svg_17"/>
   <path class="cls-2" d="m395.42,198.27c-6.06,-4.75 -22.26,-15.83 -42,-15.83c-14.12,0 -27.25,5.56 -39,16.57a4.19,4.19 0 0 0 -1.3,3l0,2.74a4.19,4.19 0 0 0 1.39,3.32a3.88,3.88 0 0 0 3.42,0.8a5.28,5.28 0 0 0 0.91,-0.23a6.7,6.7 0 0 0 2.43,-1.54c2.54,-1.71 9.5,-4 19.45,-4c10.28,0 30.5,2.76 50,21l0.45,0.4a5.87,5.87 0 0 0 4.22,1.76a5.72,5.72 0 0 0 4.11,-1.72l0.4,-0.41c19.64,-18.24 39.82,-21 50.1,-21c10,0 17,2.34 19.5,4a7.21,7.21 0 0 0 2.69,1.64a5.93,5.93 0 0 0 2.84,-0.02a4.16,4.16 0 0 0 3.06,-4l0,-2.34a4.22,4.22 0 0 0 -1.3,-3c-11.86,-11.3 -25.13,-17 -39.47,-17c-19.57,0 -35.69,10.91 -41.93,15.85" id="svg_18"/>
   <path class="cls-2" d="m365.29,4.75a4.07,4.07 0 0 0 -2.12,2.56l-0.49,1.62a4.11,4.11 0 0 0 0.64,3.65a4,4 0 0 0 3,1.64a1.59,1.59 0 0 0 0.61,0a5.15,5.15 0 0 0 2.34,-0.6a12.21,12.21 0 0 1 3,-0.33c2.17,0 21.75,0.66 34.69,22.66l0.17,0.32a4.94,4.94 0 0 0 3.1,2.48a5.91,5.91 0 0 0 1.55,0.24a5.25,5.25 0 0 0 2.45,-0.6l0.32,-0.16a48.39,48.39 0 0 1 21.66,-5.36c12.27,0 20.28,5 22.15,7.09a5.6,5.6 0 0 0 1.57,1.79a11.43,11.43 0 0 0 1.58,0.76a3.29,3.29 0 0 0 0.72,0.1a2,2 0 0 0 0.43,0a4.21,4.21 0 0 0 1.93,-0.48a4.1,4.1 0 0 0 2.06,-2.49l0.41,-1.43a3.74,3.74 0 0 0 0.17,-1.18a4,4 0 0 0 -0.57,-2.09c-9.43,-16.37 -23.11,-19.79 -32.94,-19.79a51.65,51.65 0 0 0 -17.48,3.28c-4.44,-6 -15.69,-18.35 -32.75,-18.35a40.46,40.46 0 0 0 -18.2,4.6" id="svg_19"/>
   <path class="cls-2" d="m262.68,79.44l0.14,2.19a4.15,4.15 0 0 0 5.21,3.76a5.33,5.33 0 0 0 0.71,-0.22a5.41,5.41 0 0 0 2.1,-1.55c2.06,-1.49 8.71,-4.21 18.52,-4.21c9.43,0 23.77,2.52 38.39,14.53l0.34,0.35a5.78,5.78 0 0 0 3.75,1.41l0.36,0a5.69,5.69 0 0 0 3.81,-1.83l0.32,-0.37c16.19,-17.13 33.62,-19.67 42.57,-19.67c6.38,0 10.9,1.31 12.66,2.31a6.46,6.46 0 0 0 2.53,1.31a4.86,4.86 0 0 0 2.8,-0.13a4.14,4.14 0 0 0 2.75,-4.17l-0.11,-1.9a4.11,4.11 0 0 0 -1.46,-2.89c-9.66,-8.13 -20.09,-12.22 -31.06,-12.22c-17.08,0 -30.71,10.08 -36.35,15c-5.16,-3.52 -17.7,-10.76 -32.4,-10.76c-12.92,0 -24.5,5.37 -34.45,15.92a4.3,4.3 0 0 0 -1.13,3.11" id="svg_20"/>
   <path class="cls-2" d="m16.94,118.42a52.65,52.65 0 0 1 52.65,-52.67c1.14,0 2.25,0.1 3.37,0.17a71.19,71.19 0 1 1 135,36.44a79.58,79.58 0 0 1 -17.28,157.29c-3.21,0 -106.23,-0.62 -106.23,-0.62l0,0a56.29,56.29 0 0 1 -41,-94.95a52.59,52.59 0 0 1 -26.51,-45.66z" id="svg_21"/>
  </g>
 </g>
</svg>