<?xml version="1.0"?>
<svg width="497" height="486" xmlns="http://www.w3.org/2000/svg" xmlns:svg="http://www.w3.org/2000/svg" data-name="Layer 1">
 <defs>
  <style>.cls-1 {
        fill: #19486a;
      }

      .cls-2 {
        fill: #fff;
      }</style>
 </defs>
 <title>Artboard 1</title>
 <g class="layer">
  <title>Layer 1</title>
  <path class="cls-2" d="m496.52,217.03c0,-70.23 -55.87,-127.6 -125.47,-130.14a130.23,130.23 0 0 0 -245.61,0c-69.59,2.54 -125.44,59.92 -125.44,130.14a130,130 0 0 0 50.26,102.66a130.4,130.4 0 0 0 -5.14,36.16c0,71.78 58.43,130.21 130.26,130.21a129.47,129.47 0 0 0 73.5,-22.8a129.52,129.52 0 0 0 72.26,21.94c71.82,0 130.25,-58.43 130.25,-130.22a129.92,129.92 0 0 0 -4.93,-35.43a130.08,130.08 0 0 0 50.06,-102.51m-144.26,-86.79c0,52.14 -38.59,95.3 -88.68,102.76a102.74,102.74 0 0 1 -1.36,-16a104.06,104.06 0 0 1 88.68,-102.76a103.77,103.77 0 0 1 1.36,16m-103.53,299.23a103.73,103.73 0 0 1 -1,-148.17a103.7,103.7 0 0 1 1,148.17m-103.14,-315.22c50.09,7.45 88.67,50.62 88.67,102.77a102.74,102.74 0 0 1 -1.37,16c-50.07,-7.48 -88.63,-50.64 -88.63,-102.78a104,104 0 0 1 1.36,-16m77.53,149.3a103.63,103.63 0 0 1 -140.68,45.76a103.63,103.63 0 0 1 140.68,-45.76m49.87,-0.7a103.67,103.67 0 0 1 141.37,46.3a103.67,103.67 0 0 1 -141.37,-46.3m-24.76,-236.61a104.13,104.13 0 0 1 95.35,62.54a130.71,130.71 0 0 0 -95.35,73.19a130.61,130.61 0 0 0 -95.35,-73.19a104.14,104.14 0 0 1 95.35,-62.54m-222,190.79a104.17,104.17 0 0 1 92.87,-103.42a129.57,129.57 0 0 0 41.43,112.86a130.49,130.49 0 0 0 -99.87,67.67a103.68,103.68 0 0 1 -34.43,-77.11m45.09,138.82a103.41,103.41 0 0 1 2.27,-21.56a130,130 0 0 0 119.52,-3.27a129.64,129.64 0 0 0 34.57,114.53a103.83,103.83 0 0 1 -156.36,-89.7m353.82,-0.87a103.85,103.85 0 0 1 -155.32,90.35a129.67,129.67 0 0 0 33.34,-114.41a129.92,129.92 0 0 0 119.87,3.27a103.39,103.39 0 0 1 2.11,20.79m-88.42,-129.28a129.9,129.9 0 0 0 41.75,-95.45a132.61,132.61 0 0 0 -1.09,-16.64a103.83,103.83 0 0 1 58.7,180.26a130.5,130.5 0 0 0 -99.36,-68.17" id="svg_27"/>
 </g>
</svg>