<?xml version="1.0"?>
<svg width="679" height="507" xmlns="http://www.w3.org/2000/svg" xmlns:svg="http://www.w3.org/2000/svg" data-name="Layer 1">
 <defs>
  <style>.cls-1 {
        fill: #fd9d24;
      }

      .cls-2 {
        fill: #fff;
      }</style>
 </defs>
 <title>Artboard 1</title>
 <g class="layer">
  <title>Layer 1</title>
  <g id="svg_35">
   <g id="svg_36">
    <path class="cls-2" d="m4.49,366.89l150.38,0a3.67,3.67 0 0 0 2.72,-6.16l-0.21,-0.22l-74.84,-96.82l-0.73,-0.81a3.67,3.67 0 0 0 -2.72,-1.2a3.75,3.75 0 0 0 -2.42,0.95l-0.45,0.52l-0.71,0.79l-73,95.81l-1.12,1.37a3.64,3.64 0 0 0 -0.63,2.06a3.71,3.71 0 0 0 3.73,3.71z" id="svg_37"/>
    <path class="cls-2" d="m154.41,380.58l-150.72,0a3.69,3.69 0 0 0 -3.69,3.69l0,117.9a3.7,3.7 0 0 0 3.69,3.71l48.51,0l0,-74.21a3.68,3.68 0 0 1 3.69,-3.69l45,0a3.68,3.68 0 0 1 3.69,3.69l0,74.21l49.8,0a3.7,3.7 0 0 0 3.69,-3.71l0,-117.94a3.69,3.69 0 0 0 -3.66,-3.65z" id="svg_38"/>
   </g>
   <path class="cls-2" d="m675.32,349.66l-149.17,0a3.59,3.59 0 0 0 -3.65,3.55l0,150.63a3.6,3.6 0 0 0 3.65,3.54l149.17,0a3.6,3.6 0 0 0 3.66,-3.54l0,-150.63a3.59,3.59 0 0 0 -3.66,-3.55m-81.62,98.34a3.6,3.6 0 0 1 -3.64,3.56l-44.57,0a3.61,3.61 0 0 1 -3.66,-3.56l0,-27.08a3.6,3.6 0 0 1 3.66,-3.56l44.57,0a3.59,3.59 0 0 1 3.64,3.56l0,27.08zm0,-50.06a3.6,3.6 0 0 1 -3.64,3.56l-44.57,0a3.61,3.61 0 0 1 -3.66,-3.56l0,-27.1a3.61,3.61 0 0 1 3.66,-3.54l44.57,0a3.59,3.59 0 0 1 3.64,3.54l0,27.1zm68.12,50.06a3.6,3.6 0 0 1 -3.66,3.56l-44.55,0a3.6,3.6 0 0 1 -3.66,-3.56l0,-27.08a3.6,3.6 0 0 1 3.66,-3.56l44.55,0a3.6,3.6 0 0 1 3.66,3.56l0,27.08zm0,-50.06a3.6,3.6 0 0 1 -3.66,3.56l-44.55,0a3.6,3.6 0 0 1 -3.66,-3.56l0,-27.1a3.6,3.6 0 0 1 3.66,-3.54l44.55,0a3.6,3.6 0 0 1 3.66,3.54l0,27.1z" id="svg_39"/>
   <path class="cls-2" d="m328.55,0.02l-146,0a3.57,3.57 0 0 0 -3.56,3.58l0,498.9a3.58,3.58 0 0 0 3.56,3.57l146,0a3.6,3.6 0 0 0 3.59,-3.57l0,-498.92a3.59,3.59 0 0 0 -3.59,-3.58m-86.84,449.23a1.92,1.92 0 0 1 -1.92,1.92l-33.42,0a1.92,1.92 0 0 1 -1.92,-1.92l0,-37.24a1.91,1.91 0 0 1 1.92,-1.91l33.42,0a1.91,1.91 0 0 1 1.92,1.91l0,37.24zm0,-85.55a1.91,1.91 0 0 1 -1.92,1.9l-33.42,0a1.91,1.91 0 0 1 -1.88,-1.9l0,-37.23a1.91,1.91 0 0 1 1.92,-1.92l33.38,0a1.91,1.91 0 0 1 1.92,1.92l0,37.23zm0,-85.53a1.92,1.92 0 0 1 -1.92,1.92l-33.42,0a1.92,1.92 0 0 1 -1.92,-1.92l0,-37.26a1.92,1.92 0 0 1 1.92,-1.91l33.42,0a1.92,1.92 0 0 1 1.92,1.91l0,37.26zm0,-85.55a1.92,1.92 0 0 1 -1.92,1.92l-33.42,0a1.92,1.92 0 0 1 -1.88,-1.94l0,-37.24a1.9,1.9 0 0 1 1.92,-1.89l33.38,0a1.9,1.9 0 0 1 1.92,1.89l0,37.26zm0,-85.53a1.92,1.92 0 0 1 -1.92,1.91l-33.42,0a1.92,1.92 0 0 1 -1.92,-1.91l0,-37.26a1.92,1.92 0 0 1 1.92,-1.92l33.42,0a1.92,1.92 0 0 1 1.92,1.92l0,37.26zm65.55,342.16a1.92,1.92 0 0 1 -1.93,1.92l-33.41,0a1.91,1.91 0 0 1 -1.92,-1.92l0,-37.24a1.91,1.91 0 0 1 1.92,-1.91l33.41,0a1.91,1.91 0 0 1 1.93,1.91l0,37.24zm0,-85.55a1.91,1.91 0 0 1 -1.93,1.92l-33.41,0a1.9,1.9 0 0 1 -1.92,-1.92l0,-37.23a1.9,1.9 0 0 1 1.92,-1.92l33.41,0a1.91,1.91 0 0 1 1.93,1.92l0,37.23zm0,-85.53a1.92,1.92 0 0 1 -1.93,1.92l-33.41,0a1.91,1.91 0 0 1 -1.92,-1.92l0,-37.26a1.91,1.91 0 0 1 1.92,-1.91l33.41,0a1.92,1.92 0 0 1 1.93,1.91l0,37.26zm0,-85.55a1.92,1.92 0 0 1 -1.93,1.92l-33.41,0a1.91,1.91 0 0 1 -1.92,-1.92l0,-37.26a1.9,1.9 0 0 1 1.92,-1.89l33.41,0a1.9,1.9 0 0 1 1.93,1.89l0,37.26zm0,-85.53a1.92,1.92 0 0 1 -1.93,1.91l-33.41,0a1.91,1.91 0 0 1 -1.92,-1.91l0,-37.26a1.91,1.91 0 0 1 1.92,-1.92l33.41,0a1.92,1.92 0 0 1 1.93,1.92l0,37.26z" id="svg_40"/>
   <path class="cls-2" d="m678.81,334.5a3,3 0 0 1 -3,3l-150.15,0a3,3 0 0 1 -3,-3l0,-30a3,3 0 0 1 3,-3l150.15,0a3,3 0 0 1 3,3l0,30z" id="svg_41"/>
   <path class="cls-2" d="m504.89,94.23a3.85,3.85 0 0 0 -3.67,-2.79a3.81,3.81 0 0 0 -2.09,0.69l-0.27,0.18l-1.23,1.56l-143.48,182l-0.66,0.89a4.13,4.13 0 0 0 -1.25,2.84l0,223.65a3.57,3.57 0 0 0 3.58,3.56l145.84,0a3.56,3.56 0 0 0 3.57,-3.56l0,-407.52a3.71,3.71 0 0 0 -0.34,-1.5zm-60.4,98.84l1,-1.28c9.81,-12.6 26.36,-33 34.42,-42.86l1.06,-1.26a4.17,4.17 0 0 1 3.21,-1.52a4.09,4.09 0 0 1 4,3.34l0,46.09a4.12,4.12 0 0 1 -4,4.1c-0.07,0 -0.12,0 -0.18,0s-0.12,0 -0.19,0l-35.81,0c-0.07,0 -0.12,0 -0.18,0s-0.12,0 -0.18,0a4.13,4.13 0 0 1 -4,-4.1a4.17,4.17 0 0 1 0.85,-2.51zm-22.7,254.9a3.56,3.56 0 0 1 -3.57,3.57l-43.52,0a3.56,3.56 0 0 1 -3.57,-3.57l0,-27.23a3.56,3.56 0 0 1 3.57,-3.56l43.51,0a3.56,3.56 0 0 1 3.57,3.56l0.01,27.23zm0,-50.32a3.56,3.56 0 0 1 -3.57,3.57l-43.52,0a3.56,3.56 0 0 1 -3.57,-3.57l0,-27.23a3.55,3.55 0 0 1 3.57,-3.57l43.51,0a3.55,3.55 0 0 1 3.57,3.57l0.01,27.23zm0,-50.32a3.56,3.56 0 0 1 -3.57,3.56l-43.52,0a3.56,3.56 0 0 1 -3.57,-3.56l0,-27.24a3.56,3.56 0 0 1 3.57,-3.57l43.51,0a3.56,3.56 0 0 1 3.57,3.57l0.01,27.24zm0.12,-110.27l0,60a3.58,3.58 0 0 1 -3.57,3.57l-43.5,0a3.57,3.57 0 0 1 -3.59,-3.57l0,-7.55a4.14,4.14 0 0 1 0.27,-1.33a2.92,2.92 0 0 1 0.22,-0.42a3,3 0 0 1 0.32,-0.47c0.1,-0.17 0.27,-0.39 0.4,-0.58c5.56,-8 30.66,-38.88 41.2,-51.8l1.06,-1.28a4.15,4.15 0 0 1 3.21,-1.51a4.1,4.1 0 0 1 4,3.33l-0.02,1.61zm66.38,210.91a3.57,3.57 0 0 1 -3.57,3.57l-43.5,0a3.57,3.57 0 0 1 -3.59,-3.57l0,-27.23a3.57,3.57 0 0 1 3.59,-3.56l43.5,0a3.57,3.57 0 0 1 3.57,3.56l0,27.23zm0,-50.32a3.57,3.57 0 0 1 -3.57,3.57l-43.5,0a3.57,3.57 0 0 1 -3.59,-3.57l0,-27.23a3.56,3.56 0 0 1 3.59,-3.57l43.5,0a3.57,3.57 0 0 1 3.57,3.57l0,27.23zm0,-50.32a3.58,3.58 0 0 1 -3.57,3.56l-43.5,0a3.57,3.57 0 0 1 -3.59,-3.56l0,-27.24a3.57,3.57 0 0 1 3.59,-3.57l43.5,0a3.57,3.57 0 0 1 3.57,3.57l0,27.24zm0,-50.33a3.57,3.57 0 0 1 -3.57,3.56l-43.5,0a3.57,3.57 0 0 1 -3.59,-3.56l0,-27.23a3.57,3.57 0 0 1 3.59,-3.57l43.5,0a3.57,3.57 0 0 1 3.57,3.57l0,27.23zm0,-50.33a3.57,3.57 0 0 1 -3.57,3.57l-43.5,0a3.57,3.57 0 0 1 -3.59,-3.57l0,-27.23a3.57,3.57 0 0 1 3.59,-3.58l43.5,0a3.57,3.57 0 0 1 3.57,3.58l0,27.23z" id="svg_42"/>
  </g>
 </g>
</svg>