<?xml version="1.0"?>
<svg width="674" height="344" xmlns="http://www.w3.org/2000/svg" xmlns:svg="http://www.w3.org/2000/svg" data-name="Layer 1">
 <defs>
  <style>.cls-1 {
        fill: #bf8b2e;
      }

      .cls-2 {
        fill: #fff;
      }</style>
 </defs>
 <title>Artboard 1</title>
 <g class="layer">
  <title>Layer 1</title>
  <path class="cls-2" d="m615.69,35.68c-40.78,-32.21 -89.68,-35.68 -108.81,-35.68c-10.09,0 -19.43,0.9 -26.27,2.53l-2.68,0.62c-25.83,6.1 -69.06,16.31 -119.39,78.77l-1.48,1.83a6.54,6.54 0 0 0 -1.26,3.78a6.69,6.69 0 0 0 0.89,3.31l1.14,1.87q12.46,20.85 20.7,36.21a6.65,6.65 0 0 0 10.76,1.51c0.35,-0.46 0.71,-0.95 1,-1.32c43.42,-60.11 77.48,-68.11 100.02,-73.44l2.83,-0.67a66,66 0 0 1 13.8,-1.17c10.48,0 46.91,1.74 75.33,24.18c25.29,20 38.11,51.84 38.11,94.75c0,71.92 -34.79,100 -64,110.84a101.61,101.61 0 0 1 -35.68,6.28a126.64,126.64 0 0 1 -53.56,-12.19l-2.09,-1c-25.11,-10.9 -62.6,-33.63 -98.05,-104.81c-72.66,-146 -133.7,-159.78 -174.12,-168.93l-2.12,-0.47c-3.1,-0.71 -11.84,-2.34 -26,-2.34c-23.4,0 -68.42,4.6 -107,35.4c-26.34,21 -57.76,61.83 -57.76,137c0,45.77 9.43,76 33.6,107.79c4.54,6.2 46.65,60.58 127.5,60.58a196.78,196.78 0 0 0 36.92,-3.62c14.76,-2.82 37.54,-10.12 63,-28.78l21.25,19.18a6.36,6.36 0 0 0 8.63,-0.4a5.6,5.6 0 0 0 1.53,-4l16.44,-101.28l0,-1.18a6,6 0 0 0 -2,-4.42a5.92,5.92 0 0 0 -4.26,-1.57l0,0l-98.66,27.16l-1.88,0.31a5.74,5.74 0 0 0 -3.13,1.81a6.1,6.1 0 0 0 0.42,8.67l20.43,18.48c-10.74,6.59 -21.48,11 -31.92,13a139.84,139.84 0 0 1 -26.16,2.56c-55.87,0 -83.36,-36.67 -84.49,-38.22l-0.55,-0.76c-17,-22.33 -22.74,-41.34 -22.74,-75.34c0,-43.06 12.6,-75 37.45,-94.8c27.65,-22.06 63.23,-23.78 73.49,-23.78a69.38,69.38 0 0 1 14,1.17l2.18,0.49c32.26,7.31 76.44,17.31 137.7,140.35c32.35,65 72.92,107.44 123.91,129.84c5.93,3 37.56,18.11 78.1,18.11a155.58,155.58 0 0 0 54.5,-9.67c29.78,-11.11 99.08,-49.1 99.08,-161.42c-0.03,-75.08 -31.91,-116 -58.65,-137.12z" data-name="&lt;Path&gt;" id="_Path_4"/>
 </g>
</svg>