<?xml version="1.0"?>
<svg width="524" height="524" xmlns="http://www.w3.org/2000/svg" xmlns:svg="http://www.w3.org/2000/svg" data-name="Layer 1">
 <defs>
  <style>.cls-1 {
        fill: #dd1367;
      }

      .cls-2 {
        fill: #fff;
      }</style>
 </defs>
 <title>Artboard 1</title>
 <g class="layer">
  <title>Layer 1</title>
  <g id="svg_23">
   <g id="svg_24">
    <path class="cls-2" d="m354.27,290.99l-184.62,0a2.14,2.14 0 0 0 -2,2.24l0,55.49a2.14,2.14 0 0 0 2,2.25l184.62,0a2.14,2.14 0 0 0 2,-2.25l0,-55.49a2.14,2.14 0 0 0 -2,-2.24" id="svg_25"/>
    <path class="cls-2" d="m354.27,172.92l-184.62,0a2.14,2.14 0 0 0 -2,2.24l0,55.49a2.13,2.13 0 0 0 2,2.25l184.62,0a2.13,2.13 0 0 0 2,-2.25l0,-55.49a2.14,2.14 0 0 0 -2,-2.24" id="svg_26"/>
   </g>
   <g id="svg_27">
    <path class="cls-2" d="m351.67,89.05l-88.62,-88.61a1.54,1.54 0 0 0 -2.16,0l-88.62,88.61a1.53,1.53 0 0 0 1.08,2.61l177.24,0a1.53,1.53 0 0 0 1.08,-2.61z" id="svg_28"/>
    <path class="cls-2" d="m434.87,351.65l88.62,-88.62a1.53,1.53 0 0 0 0,-2.17l-88.62,-88.62a1.53,1.53 0 0 0 -2.61,1.08l0,177.25a1.53,1.53 0 0 0 2.61,1.08z" id="svg_29"/>
    <path class="cls-2" d="m172.27,434.85l88.62,88.59a1.52,1.52 0 0 0 2.16,0l88.62,-88.62a1.53,1.53 0 0 0 -1.08,-2.62l-177.24,0a1.53,1.53 0 0 0 -1.08,2.65z" id="svg_30"/>
    <path class="cls-2" d="m89.07,172.24l-88.62,88.62a1.53,1.53 0 0 0 0,2.17l88.62,88.62a1.53,1.53 0 0 0 2.61,-1.08l0,-177.25a1.53,1.53 0 0 0 -2.61,-1.08z" id="svg_31"/>
   </g>
  </g>
 </g>
</svg>