<?xml version="1.0"?>
<svg width="539" height="459" xmlns="http://www.w3.org/2000/svg" xmlns:svg="http://www.w3.org/2000/svg" data-name="Layer 1">
 <defs>
  <style>.cls-1 {
        fill: #dda63a;
      }

      .cls-2 {
        fill: #fff;
      }</style>
 </defs>
 <title>Artboard 1</title>
 <g class="layer">
  <title>Layer 1</title>
  <g id="svg_1">
   <path class="cls-2" d="m182.67,438.37l0,14.07a1.54,1.54 0 0 0 -0.05,0.31a1.63,1.63 0 0 0 0.05,0.33a6.6,6.6 0 0 0 6.48,6.32s0.08,0 0.13,0l0.16,0l165,0s0.09,0 0.14,0l0.15,0a6.63,6.63 0 0 0 6.5,-6.6s0,0 0,0a0.07,0.07 0 0 1 0,-0.05l0,-15.96c92.86,-30.44 162.43,-105.7 177.73,-197.42c0,-0.2 0.06,-0.38 0.09,-0.55a5.85,5.85 0 0 0 0.09,-0.92a6.66,6.66 0 0 0 -6.67,-6.67l-525.78,0a6.67,6.67 0 0 0 -6.69,6.67l0.35,3c16.07,92.59 87.54,168.27 182.32,197.47" data-name="&lt;Path&gt;" id="_Path_3"/>
   <path class="cls-2" d="m361.04,6.85c-2.17,3.08 -53,76.21 1.13,135.34c24.81,27.14 22.66,51.08 15.58,67.25l34.7,0c7,-23.87 4.12,-53.82 -24,-84.6c-39.86,-43.58 0.51,-102.47 1.12,-103.38c4.76,-6.72 2.21,-15.38 -5.63,-19.42s-18.07,-1.87 -22.85,4.81" data-name="&lt;Path&gt;" id="_Path_4"/>
   <path class="cls-2" d="m273.16,209.44l34.71,0c7,-23.88 4.11,-53.82 -24.06,-84.6c-39.88,-43.58 0.46,-102.45 1.1,-103.41c4.73,-6.69 2.23,-15.34 -5.64,-19.39s-18.06,-1.88 -22.82,4.81c-2.18,3.07 -53,76.21 1.13,135.34c24.81,27.14 22.64,51.09 15.58,67.25" data-name="&lt;Path&gt;" id="_Path_5"/>
   <path class="cls-2" d="m151.84,6.85c-2.2,3.08 -53,76.21 1.12,135.34c24.82,27.15 22.67,51.09 15.6,67.25l34.7,0c7,-23.86 4.12,-53.81 -24.08,-84.6c-39.87,-43.58 0.5,-102.47 1.14,-103.4c4.71,-6.7 2.2,-15.36 -5.67,-19.4s-18.05,-1.88 -22.81,4.81" data-name="&lt;Path&gt;" id="_Path_6"/>
  </g>
 </g>
</svg>