<?xml version="1.0"?>
<svg width="670" height="469" xmlns="http://www.w3.org/2000/svg" xmlns:svg="http://www.w3.org/2000/svg" data-name="Layer 1">
 <defs>
  <style>.cls-1 {
        fill: #4c9f38;
      }

      .cls-2 {
        fill: #fff;
      }</style>
 </defs>
 <title>Artboard 1</title>
 <g class="layer">
  <title>Layer 1</title>
  <g id="svg_1">
   <g id="svg_2">
    <path class="cls-2" d="m669.85,248.19c0,-28.14 -18,-51 -45.4,-51c-13.67,0 -30.17,15 -39.13,24.19c-9,-9.23 -24.36,-24.21 -38,-24.21c-27.34,0 -46.51,22.81 -46.51,51a51.51,51.51 0 0 0 14.51,36l0,0l70.1,70.23l70,-70.15l-0.06,-0.05a51.55,51.55 0 0 0 14.49,-36.01z" data-name="&lt;Path&gt;" id="_Path_3"/>
    <g data-name="&lt;Group&gt;" id="_Group_">
     <path class="cls-2" d="m371.4,469.07l-0.72,0a11.48,11.48 0 0 1 -10.63,-9.54l-35.61,-207.41l-53.94,100a11.51,11.51 0 0 1 -21.52,-3.83l-22.9,-160.05l-41.89,94.1a11.54,11.54 0 0 1 -10.52,6.85l-162.83,0a11.52,11.52 0 0 1 0,-23l155.35,0l55.11,-123.77a11.51,11.51 0 0 1 21.91,3l23.61,165l53.19,-98.63a11.52,11.52 0 0 1 21.48,3.52l33,192.07l120.15,-399.19a11.52,11.52 0 0 1 21.4,-1.68l63.23,131.09a11.51,11.51 0 1 1 -20.73,10l-50.38,-104.41l-125.75,417.68a11.5,11.5 0 0 1 -11.01,8.2z" data-name="&lt;Path&gt;" id="_Path_4"/>
    </g>
   </g>
  </g>
 </g>
</svg>