<?xml version="1.0"?>
<svg width="559" height="457" xmlns="http://www.w3.org/2000/svg" xmlns:svg="http://www.w3.org/2000/svg" data-name="Layer 1">
 <defs>
  <style>.cls-1 {
        fill: #c5192d;
      }

      .cls-2 {
        fill: #fff;
      }</style>
 </defs>
 <title>Artboard 1</title>
 <g class="layer">
  <title>Layer 1</title>
  <g id="svg_19">
   <polygon class="cls-2" id="svg_20" points="217.6199951171875,133.72000122070312 38.279998779296875,30.160003662109375 38.279998779296875,365.1600036621094 217.6199951171875,419.2699890136719 217.6199951171875,133.72000122070312 "/>
   <polygon class="cls-2" id="svg_21" points="237.35000610351562,134.39999389648438 237.35000610351562,419.3899841308594 417.85003662109375,365.1200256347656 417.85003662109375,30.170013427734375 237.35000610351562,134.39999389648438 "/>
   <path class="cls-2" d="m558.64,21.68a21.22,21.22 0 1 0 -42.43,0l0,22.85l42.43,0l0,-22.85z" id="svg_22"/>
   <polygon class="cls-2" id="svg_23" points="521.47998046875,359.2200012207031 516.2100219726562,359.2200012207031 537.4400024414062,433.3799743652344 558.6300048828125,359.2200012207031 553.3599853515625,359.2200012207031 558.6300048828125,359.2200012207031 558.6300048828125,61.170013427734375 553.3599853515625,61.170013427734375 548.0900268554688,61.170013427734375 542.510009765625,61.170013427734375 531.9500122070312,61.170013427734375 526.739990234375,61.170013427734375 521.47998046875,61.170013427734375 516.2000122070312,61.170013427734375 516.2000122070312,359.2200012207031 521.47998046875,359.2200012207031 "/>
   <polygon class="cls-2" id="svg_24" points="456.3800048828125,44.54998779296875 437.1500244140625,29.3599853515625 437.1500244140625,374.2499694824219 237.8800048828125,438.6399841308594 228.66000366210938,438.6399841308594 226.83001708984375,438.6399841308594 217.6199951171875,438.6399841308594 19.240005493164062,383.2099914550781 19.240005493164062,29.3599853515625 0,44.54998779296875 0,396.6999816894531 216.71002197265625,456.6999816894531 226.83001708984375,456.6999816894531 228.66000366210938,456.6999816894531 238.77999877929688,456.6999816894531 438.72003173828125,393.2200012207031 456.3800048828125,388.0199890136719 456.3800048828125,44.54998779296875 "/>
  </g>
 </g>
</svg>