<?xml version="1.0"?>
<svg width="394" height="532" xmlns="http://www.w3.org/2000/svg" xmlns:svg="http://www.w3.org/2000/svg" data-name="Layer 1">
 <defs>
  <style>.cls-1 {
        fill: #ff3a21;
      }

      .cls-2 {
        fill: #fff;
      }</style>
 </defs>
 <title>Artboard 1</title>
 <g class="layer">
  <title>Layer 1</title>
  <g id="svg_17">
   <path class="cls-2" d="m392.88,0l-124.28,0a1.6,1.6 0 0 0 -1.58,1.59l0,41.29a1.59,1.59 0 0 0 1.58,1.59l49.48,0l-54.95,55a161.9,161.9 0 0 0 -100.35,-34.76c-89.75,0 -162.78,73 -162.78,162.78c0,82.64 61.91,151 141.77,161.37l0,47.59l-49,0a1.57,1.57 0 0 0 -1.6,1.57l0,44.27a1.57,1.57 0 0 0 1.6,1.58l49,0l0,46.75a1.57,1.57 0 0 0 1.58,1.58l44.24,0a1.59,1.59 0 0 0 1.6,-1.58l0,-46.79l49,0a1.57,1.57 0 0 0 1.57,-1.58l0,-44.27a1.57,1.57 0 0 0 -1.57,-1.57l-49,0l0,-48.36c77.23,-12.67 136.34,-79.84 136.34,-160.6a161.84,161.84 0 0 0 -29.73,-93.62l54.18,-54.21l0,46.22a1.6,1.6 0 0 0 1.61,1.58l41.29,0a1.6,1.6 0 0 0 1.61,-1.58l0,-124.22a1.6,1.6 0 0 0 -1.61,-1.59m-230.1,347.24a119.82,119.82 0 1 1 119.82,-119.82a119.94,119.94 0 0 1 -119.82,119.82" id="svg_18"/>
   <path class="cls-2" d="m237.18,178.27l-145.33,0a1.52,1.52 0 0 0 -1.58,1.42l0,35.18a1.5,1.5 0 0 0 1.58,1.44l145.33,0a1.51,1.51 0 0 0 1.61,-1.44l0,-35.18a1.53,1.53 0 0 0 -1.61,-1.42" id="svg_19"/>
   <path class="cls-2" d="m237.18,241.09l-145.33,0a1.54,1.54 0 0 0 -1.58,1.47l0,35.18a1.5,1.5 0 0 0 1.58,1.42l145.33,0a1.51,1.51 0 0 0 1.61,-1.42l0,-35.18a1.55,1.55 0 0 0 -1.61,-1.47" id="svg_20"/>
  </g>
 </g>
</svg>