<?xml version="1.0"?>
<svg width="371" height="510" xmlns="http://www.w3.org/2000/svg" xmlns:svg="http://www.w3.org/2000/svg" data-name="Layer 1">
 <defs>
  <style>.cls-1 {
        fill: #26bde2;
      }

      .cls-2 {
        fill: #fff;
      }</style>
 </defs>
 <title>Artboard 1</title>
 <g class="layer">
  <title>Layer 1</title>
  <path class="cls-2" d="m370.32,1.43a4.38,4.38 0 0 0 -3.28,-1.43l-362.8,0a4.09,4.09 0 0 0 -4.17,4.86l61,368.63a4.26,4.26 0 0 0 4.18,3.55l74.81,0l5.12,60l-31.48,0l73.25,73.24l73.42,-73.41l-31.47,0l5.06,-59.8l76.13,0a4.18,4.18 0 0 0 4.16,-3.62l57,-368.56a4.36,4.36 0 0 0 -0.93,-3.46zm-140.22,295.11a58.2,58.2 0 0 1 -43.29,15.1a58.23,58.23 0 0 1 -43.34,-15.1c-27.18,-27.15 -17.48,-60.93 -8,-78.39c5.84,-10.93 47.6,-73.64 51.2,-79l0,-0.42l0.16,0.2l0.14,-0.2l0,0.42c3.5,5.34 45.33,68 51.17,79c9.45,17.46 19.12,51.24 -8.04,78.39zm115.09,-217.55c-9.83,-4.33 -22.3,-2.77 -34.26,2.07c-45,18.25 -75.66,24.81 -123,10c-29.82,-9.34 -57.72,-28.88 -90.69,-17c-21.89,7.87 -42.28,15.38 -67,15.19l-14.29,-73.26l339.51,0l-10.27,63z" id="svg_26"/>
 </g>
</svg>