<?xml version="1.0"?>
<svg width="510" height="510" xmlns="http://www.w3.org/2000/svg" xmlns:svg="http://www.w3.org/2000/svg" data-name="Layer 1">
 <defs>
  <style>.cls-1 {
        fill: #fcc30b;
      }

      .cls-2 {
        fill: #fff;
      }</style>
 </defs>
 <title>Artboard 1</title>
 <g class="layer">
  <title>Layer 1</title>
  <g id="svg_1">
   <path class="cls-2" d="m255.07,109.76a146.58,146.58 0 1 0 146.52,146.57a146.56,146.56 0 0 0 -146.52,-146.57m-10.85,57.9c0,-4.87 4.89,-10.25 10.91,-10.25s10.85,5.38 10.85,10.25l0,50.33c0,4.85 -4.85,10.17 -10.85,10.17s-10.91,-5.32 -10.91,-10.17l0,-50.33zm10.85,163.77a76.24,76.24 0 0 1 -22.65,-149l0,28.39a49.89,49.89 0 1 0 45.18,-0.07l0,-28.39a76.24,76.24 0 0 1 -22.53,149.07" data-name="&lt;Compound Path&gt;" id="_Compound_Path_"/>
   <path class="cls-2" d="m86.8,255.05c0,-6.65 -5.89,-12 -11.26,-12l-64.19,0c-5.41,0 -11.35,5.38 -11.35,12s5.94,12.07 11.35,12.07l64.19,0c5.37,0 11.26,-5.41 11.26,-12.07" data-name="&lt;Path&gt;" id="_Path_3"/>
   <path class="cls-2" d="m510.14,255.05c0,-6.65 -5.89,-12 -11.26,-12l-64.18,0c-5.41,0 -11.35,5.38 -11.35,12s5.94,12.07 11.35,12.07l64.18,0c5.37,0 11.26,-5.41 11.26,-12.07" data-name="&lt;Path&gt;" id="_Path_4"/>
   <path class="cls-2" d="m255.07,86.8c6.63,0 12,-5.89 12,-11.26l0,-64.19c0,-5.41 -5.39,-11.35 -12,-11.35s-12.09,5.94 -12.09,11.35l0,64.19c0,5.37 5.43,11.26 12.09,11.26" data-name="&lt;Path&gt;" id="_Path_5"/>
   <path class="cls-2" d="m255.07,510.13c6.63,0 12,-5.89 12,-11.26l0,-64.18c0,-5.4 -5.39,-11.35 -12,-11.35s-12.09,5.95 -12.09,11.35l0,64.18c0,5.37 5.43,11.26 12.09,11.26" data-name="&lt;Path&gt;" id="_Path_6"/>
   <path class="cls-2" d="m109.07,171.46c3.31,-5.77 0.88,-13.36 -3.8,-16l-55.7,-31.88c-4.7,-2.69 -12.52,-1 -15.83,4.8s-0.83,13.43 3.86,16.12l55.71,31.88c4.66,2.67 12.46,0.9 15.76,-4.89" data-name="&lt;Path&gt;" id="_Path_7"/>
   <path class="cls-2" d="m476.46,381.74c3.29,-5.75 0.86,-13.36 -3.8,-16l-55.7,-31.88c-4.7,-2.68 -12.53,-1 -15.83,4.81s-0.84,13.43 3.85,16.11l55.71,31.88c4.66,2.67 12.46,0.9 15.77,-4.89" data-name="&lt;Path&gt;" id="_Path_8"/>
   <path class="cls-2" d="m338.68,109.04c5.76,3.29 13.35,0.86 16,-3.8l31.87,-55.71c2.7,-4.7 1,-12.53 -4.79,-15.83s-13.44,-0.84 -16.12,3.86l-31.85,55.71c-2.67,4.67 -0.9,12.47 4.89,15.78" data-name="&lt;Path&gt;" id="_Path_9"/>
   <path class="cls-2" d="m128.4,476.46c5.76,3.29 13.35,0.86 16,-3.81l31.87,-55.7c2.69,-4.69 1,-12.53 -4.8,-15.83s-13.4,-0.85 -16.08,3.86l-31.88,55.7c-2.67,4.66 -0.9,12.47 4.89,15.78" data-name="&lt;Path&gt;" id="_Path_10"/>
   <path class="cls-2" d="m171.21,109.18c5.75,-3.31 7.49,-11.1 4.81,-15.76l-32,-55.64c-2.7,-4.69 -10.32,-7.15 -16.08,-3.84s-7.51,11.17 -4.8,15.86l32,55.63c2.69,4.66 10.3,7.07 16.09,3.75" data-name="&lt;Path&gt;" id="_Path_11"/>
   <path class="cls-2" d="m382.24,476.17c5.76,-3.31 7.49,-11.1 4.82,-15.75l-32,-55.64c-2.7,-4.7 -10.32,-7.16 -16.09,-3.85s-7.51,11.17 -4.79,15.87l32,55.63c2.68,4.66 10.3,7.06 16.08,3.74" data-name="&lt;Path&gt;" id="_Path_12"/>
   <path class="cls-2" d="m400.96,171.2c3.31,5.76 11.09,7.49 15.75,4.82l55.63,-32c4.7,-2.7 7.18,-10.33 3.86,-16.09s-11.16,-7.5 -15.86,-4.8l-55.63,32c-4.67,2.68 -7.07,10.31 -3.75,16.08" data-name="&lt;Path&gt;" id="_Path_13"/>
   <path class="cls-2" d="m33.97,382.27c3.31,5.76 11.09,7.49 15.76,4.81l55.63,-32c4.69,-2.7 7.17,-10.33 3.84,-16.09s-11.16,-7.5 -15.85,-4.81l-55.63,32c-4.67,2.67 -7.07,10.31 -3.75,16.08" data-name="&lt;Path&gt;" id="_Path_14"/>
  </g>
 </g>
</svg>