<?xml version="1.0"?>
<svg width="481" height="508" xmlns="http://www.w3.org/2000/svg" xmlns:svg="http://www.w3.org/2000/svg" data-name="Layer 1">
 <defs>
  <style>.cls-1 {
        fill: #a21942;
      }

      .cls-2 {
        fill: #fff;
      }</style>
 </defs>
 <title>Artboard 1</title>
 <g class="layer">
  <title>Layer 1</title>
  <g data-name="&lt;Group&gt;" id="_Group_">
   <g id="svg_1">
    <path class="cls-2" d="m434.52,120.31l-101.64,96.67c-3.83,3.81 -5.8,6.62 -5.8,14.52l0,271a5.8,5.8 0 0 0 5.8,5.78l105,0a5.79,5.79 0 0 0 5.79,-5.78l0,-379.77c0,-3.2 -2.5,-9 -9.14,-2.44" data-name="&lt;Path&gt;" id="_Path_2"/>
    <path class="cls-2" d="m141.7,246.31l-101.65,96.63c-3.82,3.82 -5.8,6.62 -5.8,14.51l0,145a5.8,5.8 0 0 0 5.8,5.77l105,0a5.79,5.79 0 0 0 5.79,-5.77l0,-253.76c0,-3.21 -2.53,-9.06 -9.14,-2.43" data-name="&lt;Path&gt;" id="_Path_3"/>
    <path class="cls-2" d="m480.72,3.03a2.84,2.84 0 0 0 -0.86,-2.2a3.06,3.06 0 0 0 -1.88,-0.83l-0.56,0l-0.83,0l-77.83,17.64l-1.41,0.15a3.14,3.14 0 0 0 -1.52,0.79a3,3 0 0 0 0,4.19l0.88,0.88l17.78,17.77l-176.36,176.36l-81.45,-81.47a2.32,2.32 0 0 0 -3.32,0l-22.1,22.11a0,0 0 0 0 0,0l-130.59,130.58a2.38,2.38 0 0 0 0,3.32l22.13,22.12a2.32,2.32 0 0 0 3.29,0l129,-128.92l59.1,59.12a2.31,2.31 0 0 0 0.19,0.28l22.11,22.08a2.31,2.31 0 0 0 3.31,0l200.11,-200.15l18.66,18.65a2.91,2.91 0 0 0 4.15,0a2.8,2.8 0 0 0 0.85,-1.92l0,-0.24l17.09,-79.45l0.06,-0.86z" data-name="&lt;Path&gt;" id="_Path_4"/>
    <path class="cls-2" d="m288.69,263.23l-49.18,49.58a2.35,2.35 0 0 1 -3.17,-0.12l-44.55,-45.38c-8.16,-8.12 -9.92,-1.53 -9.92,1.66l0,233.51a5.77,5.77 0 0 0 5.76,5.78l105,0a5.79,5.79 0 0 0 5.77,-5.78l0,-237.42c0,-3.19 -2.51,-9.06 -9.73,-1.83" data-name="&lt;Path&gt;" id="_Path_5"/>
   </g>
  </g>
 </g>
</svg>