<?xml version="1.0"?>
<svg width="508" height="513" xmlns="http://www.w3.org/2000/svg" xmlns:svg="http://www.w3.org/2000/svg" data-name="Layer 1">
 <defs>
  <style>.cls-1 {
        fill: #fd6925;
      }

      .cls-2 {
        fill: #fff;
      }</style>
 </defs>
 <title>Artboard 1</title>
 <g class="layer">
  <title>Layer 1</title>
  <path class="cls-2" d="m503.82,284.95l-118.88,-68.61l0,-137.25a8.1,8.1 0 0 0 -4,-7l-122.9,-71a8.1,8.1 0 0 0 -8.11,0l-122.99,70.98a8.1,8.1 0 0 0 -4,7l0,137.27l-118.88,68.61a8.11,8.11 0 0 0 -4.06,7l0,142a8.12,8.12 0 0 0 4.06,7l122.91,71a8.15,8.15 0 0 0 8.11,0l118.86,-68.67l118.84,68.61a8.15,8.15 0 0 0 8.11,0l122.93,-71a8.12,8.12 0 0 0 4.06,-7l0,-142a8.09,8.09 0 0 0 -4.06,-6.94zm-258,134.92l-98.58,-56.93l98.59,-56.92l-0.01,113.85zm114.8,-198.84l-98.58,56.89l0,-113.82l98.58,56.93zm-114.79,56.9l-98.58,-56.91l98.58,-56.92l0,113.83zm24.33,14l106.68,-61.54l106.71,61.58l-106.71,61.61l-106.68,-61.65zm98.57,-85l-98.57,-56.93l98.57,-56.91l0,113.84zm-131,-56.93l-98.59,56.93l0,-113.79l98.59,56.86zm-114.79,340.82l-106.7,-61.59l0,-123.21l106.7,61.65l0,123.15zm16.21,0l0,-113.83l98.59,56.93l-98.59,56.9zm352.53,-61.59l-106.74,61.59l0,-123.15l106.72,-61.61l0.02,123.17z" data-name="&lt;Compound Path&gt;" id="_Compound_Path_2"/>
 </g>
</svg>