<?xml version="1.0" encoding="UTF-8" standalone="no"?>
<!-- Created with Inkscape (http://www.inkscape.org/) -->

<svg
   width="236.86601mm"
   height="41.82534mm"
   viewBox="0 0 236.86601 41.82534"
   version="1.1"
   id="svg5"
   xml:space="preserve"
   xmlns:inkscape="http://www.inkscape.org/namespaces/inkscape"
   xmlns:sodipodi="http://sodipodi.sourceforge.net/DTD/sodipodi-0.dtd"
   xmlns="http://www.w3.org/2000/svg"
   xmlns:svg="http://www.w3.org/2000/svg"><sodipodi:namedview
     id="namedview7"
     pagecolor="#ffffff"
     bordercolor="#000000"
     borderopacity="0.25"
     inkscape:showpageshadow="2"
     inkscape:pageopacity="0.0"
     inkscape:pagecheckerboard="0"
     inkscape:deskcolor="#d1d1d1"
     inkscape:document-units="mm"
     showgrid="false" /><defs
     id="defs2" /><g
     inkscape:label="Capa 1"
     inkscape:groupmode="layer"
     id="layer1"
     transform="translate(-7.6516978,-72.345228)"><g
       id="g1358"><rect
         style="fill:#ffffff;stroke-width:0.399699"
         id="rect1092"
         width="236.866"
         height="41.825333"
         x="7.6516976"
         y="72.34523"
         rx="0.85849613"
         ry="0.50206554" /><g
         id="g1090"
         transform="matrix(0.42579479,0,0,0.42579479,0.00307219,58.344418)"><path
           d="m 313.26,77.36 c 0,0.85 -0.16,1.61 -0.47,2.27 -0.31,0.66 -0.75,1.23 -1.3,1.69 -0.56,0.46 -1.21,0.81 -1.96,1.05 -0.75,0.23 -1.56,0.35 -2.43,0.35 -0.61,0 -1.17,-0.05 -1.69,-0.16 -0.52,-0.1 -0.98,-0.23 -1.39,-0.38 -0.41,-0.15 -0.75,-0.3 -1.03,-0.46 -0.27,-0.16 -0.47,-0.29 -0.57,-0.41 -0.11,-0.11 -0.19,-0.25 -0.24,-0.43 -0.05,-0.17 -0.08,-0.4 -0.08,-0.7 0,-0.2 0.01,-0.38 0.03,-0.51 0.02,-0.14 0.05,-0.24 0.08,-0.33 0.04,-0.08 0.09,-0.14 0.14,-0.18 0.06,-0.03 0.12,-0.05 0.2,-0.05 0.13,0 0.31,0.08 0.55,0.24 0.24,0.16 0.54,0.33 0.92,0.52 0.37,0.19 0.82,0.36 1.35,0.53 0.53,0.16 1.14,0.24 1.83,0.24 0.52,0 1,-0.07 1.44,-0.21 0.44,-0.14 0.81,-0.34 1.12,-0.6 0.31,-0.26 0.55,-0.57 0.72,-0.95 0.17,-0.37 0.25,-0.8 0.25,-1.28 0,-0.51 -0.12,-0.95 -0.35,-1.32 -0.23,-0.36 -0.54,-0.69 -0.93,-0.96 -0.38,-0.28 -0.82,-0.53 -1.31,-0.76 -0.49,-0.23 -0.99,-0.46 -1.51,-0.7 -0.51,-0.24 -1.01,-0.5 -1.5,-0.79 -0.49,-0.29 -0.92,-0.63 -1.31,-1.02 -0.38,-0.39 -0.7,-0.85 -0.93,-1.38 -0.24,-0.53 -0.36,-1.16 -0.36,-1.9 0,-0.74 0.14,-1.43 0.41,-2.02 0.28,-0.59 0.66,-1.09 1.15,-1.5 0.49,-0.4 1.07,-0.71 1.75,-0.92 0.68,-0.21 1.41,-0.32 2.2,-0.32 0.4,0 0.81,0.04 1.21,0.1 0.41,0.07 0.79,0.16 1.15,0.28 0.36,0.12 0.68,0.25 0.96,0.39 0.28,0.14 0.47,0.26 0.55,0.35 0.09,0.09 0.15,0.16 0.18,0.21 0.03,0.05 0.05,0.12 0.07,0.2 0.02,0.08 0.03,0.17 0.05,0.29 0,0.11 0.01,0.26 0.01,0.43 0,0.17 0,0.32 -0.02,0.45 -0.01,0.13 -0.04,0.24 -0.06,0.33 -0.03,0.09 -0.07,0.16 -0.12,0.2 -0.05,0.04 -0.11,0.06 -0.17,0.06 -0.1,0 -0.26,-0.06 -0.48,-0.2 -0.22,-0.13 -0.49,-0.28 -0.81,-0.44 -0.32,-0.16 -0.69,-0.31 -1.13,-0.45 -0.44,-0.13 -0.92,-0.2 -1.46,-0.2 -0.51,0 -0.94,0.07 -1.32,0.2 -0.38,0.14 -0.68,0.32 -0.93,0.54 -0.24,0.22 -0.43,0.49 -0.55,0.8 -0.12,0.31 -0.18,0.63 -0.18,0.98 0,0.5 0.12,0.94 0.35,1.3 0.23,0.36 0.54,0.69 0.93,0.97 0.39,0.28 0.83,0.54 1.32,0.77 0.5,0.23 1,0.47 1.52,0.71 0.51,0.24 1.02,0.5 1.51,0.79 0.5,0.29 0.94,0.62 1.33,1.01 0.39,0.39 0.7,0.85 0.94,1.37 0.24,0.53 0.36,1.15 0.36,1.87"
           fill="#25282a"
           stroke-width="0"
           id="path938" /><path
           d="m 319.02,65.22 c 0,0.54 -0.1,0.91 -0.31,1.11 -0.21,0.2 -0.58,0.29 -1.14,0.29 -0.56,0 -0.92,-0.09 -1.11,-0.29 -0.2,-0.19 -0.3,-0.55 -0.3,-1.09 0,-0.54 0.1,-0.91 0.31,-1.11 0.21,-0.19 0.58,-0.29 1.14,-0.29 0.56,0 0.91,0.1 1.11,0.29 0.2,0.19 0.3,0.55 0.3,1.09 m -0.27,16.88 c 0,0.08 -0.02,0.14 -0.06,0.19 -0.04,0.05 -0.1,0.1 -0.18,0.13 -0.08,0.04 -0.2,0.07 -0.35,0.08 -0.15,0.02 -0.34,0.03 -0.58,0.03 -0.24,0 -0.41,0 -0.56,-0.03 -0.15,-0.02 -0.27,-0.05 -0.36,-0.08 -0.09,-0.04 -0.15,-0.08 -0.18,-0.13 -0.03,-0.05 -0.05,-0.11 -0.05,-0.19 V 69.48 c 0,-0.06 0.02,-0.12 0.05,-0.18 0.03,-0.06 0.09,-0.1 0.18,-0.14 0.09,-0.04 0.21,-0.07 0.36,-0.08 0.15,-0.02 0.34,-0.03 0.56,-0.03 0.22,0 0.43,0 0.58,0.03 0.15,0.02 0.27,0.05 0.35,0.08 0.08,0.04 0.14,0.08 0.18,0.14 0.04,0.06 0.06,0.12 0.06,0.18 z"
           fill="#25282a"
           stroke-width="0"
           id="path940" /><path
           d="m 330.95,78.66 c 0,0.65 -0.12,1.22 -0.36,1.73 -0.24,0.5 -0.58,0.93 -1.02,1.28 -0.44,0.34 -0.96,0.61 -1.57,0.78 -0.61,0.18 -1.28,0.27 -2.01,0.27 -0.45,0 -0.88,-0.04 -1.28,-0.11 -0.41,-0.07 -0.77,-0.16 -1.09,-0.26 -0.32,-0.11 -0.6,-0.22 -0.82,-0.34 -0.22,-0.12 -0.39,-0.22 -0.49,-0.32 -0.1,-0.09 -0.18,-0.22 -0.23,-0.39 -0.05,-0.17 -0.07,-0.4 -0.07,-0.69 0,-0.18 0.01,-0.33 0.03,-0.45 0.02,-0.12 0.04,-0.22 0.07,-0.29 0.03,-0.08 0.07,-0.13 0.12,-0.16 0.05,-0.03 0.11,-0.05 0.17,-0.05 0.11,0 0.26,0.06 0.46,0.19 0.2,0.13 0.45,0.26 0.74,0.41 0.29,0.15 0.64,0.29 1.04,0.41 0.4,0.13 0.86,0.19 1.39,0.19 0.39,0 0.75,-0.04 1.07,-0.13 0.32,-0.09 0.59,-0.21 0.83,-0.37 0.24,-0.16 0.41,-0.37 0.54,-0.62 0.13,-0.25 0.19,-0.55 0.19,-0.9 0,-0.35 -0.09,-0.65 -0.27,-0.9 -0.18,-0.24 -0.42,-0.46 -0.72,-0.64 -0.3,-0.19 -0.64,-0.35 -1.01,-0.5 -0.37,-0.15 -0.76,-0.3 -1.16,-0.46 -0.4,-0.16 -0.79,-0.34 -1.16,-0.54 -0.38,-0.2 -0.72,-0.45 -1.02,-0.74 -0.3,-0.29 -0.54,-0.63 -0.72,-1.04 -0.18,-0.4 -0.27,-0.88 -0.27,-1.44 0,-0.5 0.1,-0.97 0.29,-1.42 0.19,-0.46 0.48,-0.85 0.86,-1.19 0.38,-0.34 0.86,-0.61 1.44,-0.82 0.57,-0.21 1.24,-0.31 2.01,-0.31 0.34,0 0.67,0.03 1.01,0.08 0.34,0.05 0.64,0.13 0.91,0.21 0.27,0.08 0.5,0.17 0.7,0.27 0.19,0.1 0.33,0.18 0.43,0.26 0.1,0.08 0.16,0.14 0.19,0.2 0.03,0.06 0.06,0.12 0.07,0.19 0.01,0.07 0.03,0.16 0.04,0.26 0.01,0.1 0.02,0.23 0.02,0.38 0,0.16 0,0.3 -0.02,0.41 -0.02,0.12 -0.04,0.21 -0.07,0.29 -0.03,0.08 -0.07,0.13 -0.12,0.16 -0.05,0.03 -0.1,0.05 -0.15,0.05 -0.08,0 -0.21,-0.05 -0.36,-0.15 -0.16,-0.1 -0.36,-0.21 -0.62,-0.33 -0.25,-0.12 -0.55,-0.23 -0.89,-0.33 -0.34,-0.1 -0.73,-0.15 -1.17,-0.15 -0.39,0 -0.74,0.04 -1.04,0.13 -0.3,0.09 -0.55,0.22 -0.73,0.38 -0.19,0.16 -0.34,0.36 -0.44,0.58 -0.1,0.22 -0.15,0.47 -0.15,0.73 0,0.36 0.09,0.67 0.28,0.92 0.19,0.25 0.43,0.47 0.73,0.65 0.3,0.19 0.64,0.36 1.02,0.5 0.38,0.15 0.77,0.3 1.17,0.46 0.4,0.16 0.79,0.34 1.18,0.53 0.38,0.19 0.73,0.43 1.03,0.71 0.3,0.28 0.54,0.62 0.72,1.01 0.18,0.39 0.27,0.86 0.27,1.4"
           fill="#25282a"
           stroke-width="0"
           id="path942" /><path
           d="m 340.5,81.17 c 0,0.27 -0.02,0.49 -0.06,0.64 -0.04,0.16 -0.09,0.28 -0.17,0.35 -0.07,0.07 -0.19,0.14 -0.34,0.21 -0.15,0.06 -0.32,0.12 -0.51,0.16 -0.19,0.04 -0.39,0.08 -0.61,0.11 -0.22,0.03 -0.43,0.04 -0.65,0.04 -0.65,0 -1.21,-0.09 -1.68,-0.26 -0.47,-0.17 -0.85,-0.43 -1.15,-0.79 -0.3,-0.35 -0.52,-0.79 -0.65,-1.33 -0.13,-0.54 -0.2,-1.17 -0.2,-1.9 v -7.38 h -1.77 c -0.14,0 -0.25,-0.08 -0.34,-0.23 -0.08,-0.15 -0.13,-0.39 -0.13,-0.73 0,-0.18 0.01,-0.33 0.04,-0.45 0.02,-0.12 0.05,-0.22 0.09,-0.3 0.04,-0.08 0.09,-0.13 0.15,-0.17 0.06,-0.03 0.13,-0.05 0.2,-0.05 h 1.75 v -3 c 0,-0.06 0.02,-0.13 0.05,-0.18 0.03,-0.06 0.09,-0.11 0.18,-0.15 0.09,-0.04 0.21,-0.07 0.36,-0.09 0.15,-0.02 0.34,-0.03 0.56,-0.03 0.22,0 0.43,0 0.57,0.03 0.15,0.02 0.27,0.05 0.35,0.09 0.08,0.04 0.14,0.09 0.18,0.15 0.04,0.06 0.05,0.12 0.05,0.18 v 3 h 3.24 c 0.08,0 0.14,0.02 0.2,0.05 0.06,0.03 0.11,0.09 0.15,0.17 0.04,0.08 0.07,0.18 0.09,0.3 0.02,0.12 0.03,0.27 0.03,0.45 0,0.34 -0.04,0.58 -0.13,0.73 -0.08,0.15 -0.2,0.23 -0.34,0.23 h -3.24 v 7.04 c 0,0.87 0.13,1.53 0.39,1.97 0.25,0.44 0.72,0.67 1.38,0.67 0.21,0 0.41,-0.02 0.57,-0.06 0.17,-0.04 0.32,-0.09 0.45,-0.13 0.13,-0.05 0.24,-0.09 0.33,-0.13 0.09,-0.04 0.18,-0.06 0.25,-0.06 0.05,0 0.09,0.01 0.13,0.04 0.04,0.02 0.07,0.07 0.1,0.13 0.03,0.06 0.04,0.15 0.06,0.27 0.02,0.11 0.03,0.25 0.03,0.42"
           fill="#25282a"
           stroke-width="0"
           id="path944" /><path
           d="m 354.01,75.24 c 0,0.36 -0.09,0.62 -0.28,0.78 -0.18,0.15 -0.39,0.23 -0.63,0.23 h -8.31 c 0,0.7 0.07,1.33 0.21,1.9 0.14,0.56 0.38,1.04 0.7,1.44 0.33,0.4 0.76,0.71 1.28,0.93 0.53,0.21 1.17,0.32 1.93,0.32 0.6,0 1.14,-0.05 1.61,-0.15 0.47,-0.1 0.88,-0.21 1.22,-0.33 0.34,-0.12 0.63,-0.23 0.85,-0.33 0.22,-0.1 0.39,-0.15 0.5,-0.15 0.07,0 0.12,0.02 0.18,0.05 0.05,0.03 0.09,0.08 0.12,0.15 0.03,0.06 0.05,0.16 0.06,0.28 0.01,0.11 0.02,0.26 0.02,0.43 0,0.12 0,0.23 -0.01,0.32 0,0.09 -0.02,0.17 -0.04,0.24 -0.02,0.07 -0.04,0.14 -0.07,0.19 -0.03,0.06 -0.07,0.11 -0.13,0.16 -0.05,0.05 -0.2,0.14 -0.46,0.25 -0.25,0.12 -0.58,0.23 -0.98,0.34 -0.4,0.11 -0.87,0.21 -1.39,0.3 -0.53,0.09 -1.09,0.13 -1.69,0.13 -1.04,0 -1.95,-0.15 -2.73,-0.44 -0.78,-0.29 -1.44,-0.72 -1.97,-1.29 -0.53,-0.57 -0.93,-1.29 -1.2,-2.15 -0.27,-0.86 -0.41,-1.86 -0.41,-3 0,-1.14 0.14,-2.06 0.42,-2.92 0.28,-0.86 0.68,-1.6 1.21,-2.2 0.53,-0.6 1.16,-1.07 1.91,-1.39 0.75,-0.32 1.58,-0.48 2.51,-0.48 0.99,0 1.83,0.16 2.53,0.48 0.7,0.32 1.27,0.75 1.72,1.28 0.45,0.54 0.78,1.17 0.99,1.89 0.21,0.72 0.32,1.5 0.32,2.32 v 0.42 z m -2.33,-0.69 c 0.03,-1.21 -0.24,-2.17 -0.81,-2.86 -0.57,-0.69 -1.41,-1.04 -2.53,-1.04 -0.57,0 -1.08,0.11 -1.51,0.32 -0.43,0.21 -0.79,0.5 -1.09,0.86 -0.29,0.35 -0.52,0.77 -0.68,1.24 -0.16,0.47 -0.25,0.96 -0.27,1.48 h 6.88 z"
           fill="#25282a"
           stroke-width="0"
           id="path946" /><path
           d="m 376.25,82.1 c 0,0.08 -0.02,0.14 -0.06,0.19 -0.04,0.05 -0.1,0.1 -0.18,0.13 -0.08,0.04 -0.2,0.07 -0.35,0.08 -0.15,0.02 -0.34,0.03 -0.56,0.03 -0.22,0 -0.43,0 -0.58,-0.03 -0.15,-0.02 -0.27,-0.05 -0.36,-0.08 -0.09,-0.04 -0.15,-0.08 -0.19,-0.13 -0.04,-0.05 -0.06,-0.11 -0.06,-0.19 v -7.67 c 0,-0.53 -0.05,-1.02 -0.14,-1.46 -0.09,-0.44 -0.24,-0.82 -0.45,-1.13 -0.21,-0.32 -0.47,-0.56 -0.78,-0.73 -0.32,-0.17 -0.69,-0.25 -1.12,-0.25 -0.53,0 -1.07,0.2 -1.61,0.62 -0.53,0.41 -1.13,1.02 -1.77,1.81 v 8.82 c 0,0.08 -0.02,0.14 -0.06,0.19 -0.04,0.05 -0.1,0.1 -0.19,0.13 -0.09,0.04 -0.21,0.07 -0.36,0.08 -0.15,0.02 -0.33,0.03 -0.56,0.03 -0.23,0 -0.4,0 -0.55,-0.03 -0.15,-0.02 -0.27,-0.05 -0.36,-0.08 -0.09,-0.04 -0.15,-0.08 -0.18,-0.13 -0.03,-0.05 -0.05,-0.11 -0.05,-0.19 v -7.67 c 0,-0.53 -0.05,-1.02 -0.15,-1.46 -0.1,-0.44 -0.26,-0.82 -0.46,-1.13 -0.21,-0.32 -0.47,-0.56 -0.78,-0.73 -0.31,-0.17 -0.69,-0.25 -1.12,-0.25 -0.53,0 -1.07,0.2 -1.61,0.62 -0.54,0.41 -1.13,1.02 -1.77,1.81 v 8.82 c 0,0.08 -0.02,0.14 -0.06,0.19 -0.04,0.05 -0.1,0.1 -0.18,0.13 -0.08,0.04 -0.2,0.07 -0.35,0.08 -0.15,0.02 -0.34,0.03 -0.58,0.03 -0.24,0 -0.41,0 -0.56,-0.03 -0.15,-0.02 -0.27,-0.05 -0.36,-0.08 -0.09,-0.04 -0.15,-0.08 -0.18,-0.13 -0.03,-0.05 -0.05,-0.11 -0.05,-0.19 V 69.5 c 0,-0.07 0.02,-0.14 0.04,-0.19 0.03,-0.05 0.08,-0.1 0.17,-0.14 0.08,-0.04 0.19,-0.07 0.32,-0.08 0.13,-0.01 0.3,-0.02 0.52,-0.02 0.22,0 0.38,0 0.51,0.02 0.13,0.01 0.24,0.04 0.31,0.08 0.07,0.04 0.13,0.09 0.16,0.14 0.03,0.05 0.05,0.12 0.05,0.19 v 1.67 c 0.71,-0.79 1.4,-1.38 2.07,-1.75 0.67,-0.37 1.34,-0.55 2.03,-0.55 0.52,0 0.99,0.06 1.41,0.18 0.41,0.12 0.78,0.29 1.1,0.51 0.32,0.22 0.59,0.48 0.81,0.78 0.22,0.3 0.41,0.64 0.56,1.02 0.42,-0.46 0.82,-0.85 1.2,-1.16 0.38,-0.32 0.74,-0.58 1.1,-0.77 0.35,-0.2 0.69,-0.34 1.02,-0.43 0.33,-0.09 0.66,-0.13 1,-0.13 0.81,0 1.49,0.14 2.05,0.43 0.55,0.29 1,0.67 1.34,1.14 0.34,0.48 0.58,1.03 0.73,1.67 0.14,0.64 0.22,1.32 0.22,2.03 v 7.98 z"
           fill="#25282a"
           stroke-width="0"
           id="path948" /><path
           d="m 389.98,82.11 c 0,0.11 -0.04,0.19 -0.11,0.25 -0.07,0.06 -0.18,0.1 -0.31,0.13 -0.13,0.03 -0.32,0.04 -0.58,0.04 -0.26,0 -0.44,-0.01 -0.58,-0.04 -0.14,-0.03 -0.25,-0.07 -0.31,-0.13 -0.07,-0.06 -0.1,-0.14 -0.1,-0.25 v -1.26 c -0.55,0.59 -1.17,1.05 -1.84,1.37 -0.68,0.33 -1.39,0.49 -2.15,0.49 -0.66,0 -1.26,-0.09 -1.8,-0.26 -0.54,-0.17 -1,-0.43 -1.38,-0.75 -0.38,-0.33 -0.67,-0.73 -0.88,-1.21 -0.21,-0.48 -0.31,-1.02 -0.31,-1.63 0,-0.71 0.14,-1.33 0.43,-1.85 0.29,-0.53 0.71,-0.96 1.25,-1.31 0.54,-0.35 1.21,-0.6 1.99,-0.78 0.79,-0.17 1.67,-0.26 2.65,-0.26 h 1.74 v -0.98 c 0,-0.48 -0.05,-0.92 -0.15,-1.29 -0.1,-0.37 -0.27,-0.68 -0.5,-0.93 -0.23,-0.25 -0.53,-0.43 -0.89,-0.56 -0.36,-0.13 -0.81,-0.19 -1.35,-0.19 -0.57,0 -1.08,0.07 -1.53,0.2 -0.45,0.13 -0.85,0.29 -1.19,0.45 -0.34,0.16 -0.62,0.31 -0.85,0.45 -0.23,0.13 -0.4,0.2 -0.51,0.2 -0.07,0 -0.14,-0.02 -0.2,-0.06 -0.06,-0.04 -0.11,-0.09 -0.15,-0.17 -0.04,-0.07 -0.07,-0.17 -0.09,-0.29 -0.02,-0.12 -0.03,-0.25 -0.03,-0.39 0,-0.23 0.01,-0.42 0.05,-0.56 0.03,-0.13 0.11,-0.26 0.24,-0.39 0.13,-0.12 0.35,-0.26 0.65,-0.43 0.31,-0.16 0.66,-0.31 1.06,-0.45 0.4,-0.14 0.84,-0.25 1.32,-0.34 0.48,-0.09 0.96,-0.13 1.45,-0.13 0.91,0 1.68,0.1 2.31,0.31 0.63,0.21 1.15,0.51 1.54,0.9 0.39,0.4 0.68,0.89 0.85,1.48 0.18,0.59 0.27,1.28 0.27,2.06 v 8.51 z m -2.3,-5.76 h -1.98 c -0.63,0 -1.19,0.05 -1.65,0.16 -0.47,0.11 -0.86,0.27 -1.16,0.48 -0.31,0.21 -0.53,0.46 -0.68,0.75 -0.14,0.3 -0.22,0.64 -0.22,1.02 0,0.65 0.21,1.18 0.63,1.56 0.42,0.39 1,0.58 1.75,0.58 0.61,0 1.17,-0.15 1.69,-0.46 0.52,-0.31 1.06,-0.78 1.63,-1.42 v -2.68 z"
           fill="#25282a"
           stroke-width="0"
           id="path950" /><path
           d="m 416.45,81.73 c 0,0.18 -0.03,0.33 -0.09,0.46 -0.06,0.13 -0.14,0.23 -0.24,0.31 -0.1,0.08 -0.21,0.14 -0.33,0.17 -0.12,0.04 -0.24,0.06 -0.36,0.06 h -0.77 c -0.24,0 -0.45,-0.03 -0.64,-0.08 -0.18,-0.05 -0.35,-0.14 -0.52,-0.27 -0.16,-0.13 -0.33,-0.31 -0.49,-0.54 -0.16,-0.23 -0.34,-0.51 -0.52,-0.87 L 407.14,71 c -0.28,-0.51 -0.56,-1.05 -0.85,-1.62 -0.28,-0.57 -0.55,-1.11 -0.79,-1.65 h -0.03 c 0.02,0.65 0.03,1.31 0.04,1.99 0,0.68 0.02,1.35 0.02,2.02 v 10.58 c 0,0.06 -0.02,0.12 -0.06,0.18 -0.04,0.06 -0.1,0.1 -0.19,0.14 -0.09,0.03 -0.21,0.06 -0.36,0.08 -0.15,0.02 -0.33,0.03 -0.56,0.03 -0.23,0 -0.42,-0.01 -0.57,-0.03 -0.15,-0.02 -0.26,-0.05 -0.35,-0.08 -0.09,-0.03 -0.15,-0.08 -0.18,-0.14 -0.04,-0.06 -0.06,-0.12 -0.06,-0.18 V 66.14 c 0,-0.36 0.1,-0.62 0.31,-0.77 0.21,-0.15 0.43,-0.23 0.67,-0.23 h 1.15 c 0.27,0 0.5,0.02 0.68,0.07 0.18,0.05 0.34,0.12 0.49,0.22 0.15,0.1 0.28,0.25 0.42,0.43 0.14,0.18 0.28,0.42 0.43,0.7 l 4.11,7.7 c 0.25,0.47 0.5,0.93 0.73,1.38 0.23,0.44 0.46,0.89 0.68,1.32 0.22,0.43 0.44,0.86 0.65,1.28 0.21,0.42 0.42,0.84 0.64,1.27 h 0.01 c -0.02,-0.71 -0.03,-1.46 -0.03,-2.23 0,-0.77 0,-1.51 0,-2.23 v -9.51 c 0,-0.06 0.02,-0.12 0.06,-0.17 0.04,-0.05 0.1,-0.1 0.19,-0.14 0.09,-0.04 0.21,-0.07 0.36,-0.09 0.15,-0.02 0.34,-0.03 0.58,-0.03 0.21,0 0.39,0 0.54,0.03 0.15,0.02 0.27,0.05 0.36,0.09 0.09,0.04 0.15,0.09 0.19,0.14 0.04,0.05 0.06,0.11 0.06,0.17 v 16.18 z"
           fill="#25282a"
           stroke-width="0"
           id="path952" /><path
           d="m 430.04,82.36 c 0,0.11 -0.04,0.19 -0.11,0.24 -0.07,0.05 -0.17,0.1 -0.3,0.12 -0.13,0.03 -0.31,0.04 -0.56,0.04 -0.25,0 -0.42,-0.01 -0.56,-0.04 -0.14,-0.03 -0.24,-0.07 -0.3,-0.12 -0.06,-0.06 -0.09,-0.14 -0.09,-0.24 v -1.22 c -0.54,0.57 -1.13,1.01 -1.78,1.33 -0.65,0.32 -1.35,0.48 -2.08,0.48 -0.64,0 -1.22,-0.08 -1.74,-0.25 -0.52,-0.17 -0.96,-0.41 -1.33,-0.73 -0.36,-0.32 -0.65,-0.7 -0.85,-1.17 -0.2,-0.46 -0.3,-0.99 -0.3,-1.57 0,-0.69 0.14,-1.28 0.42,-1.79 0.28,-0.51 0.68,-0.93 1.21,-1.26 0.52,-0.33 1.17,-0.58 1.92,-0.75 0.76,-0.17 1.61,-0.25 2.56,-0.25 h 1.68 v -0.95 c 0,-0.47 -0.05,-0.89 -0.15,-1.25 -0.1,-0.36 -0.26,-0.66 -0.48,-0.9 -0.22,-0.24 -0.51,-0.42 -0.86,-0.54 -0.35,-0.12 -0.79,-0.18 -1.3,-0.18 -0.55,0 -1.05,0.07 -1.48,0.2 -0.44,0.13 -0.82,0.28 -1.15,0.43 -0.33,0.16 -0.6,0.3 -0.83,0.43 -0.22,0.13 -0.39,0.19 -0.5,0.19 -0.07,0 -0.13,-0.02 -0.19,-0.05 -0.05,-0.04 -0.1,-0.09 -0.14,-0.16 -0.04,-0.07 -0.07,-0.16 -0.09,-0.28 -0.02,-0.11 -0.03,-0.24 -0.03,-0.37 0,-0.23 0.01,-0.41 0.05,-0.54 0.03,-0.13 0.11,-0.25 0.23,-0.37 0.12,-0.12 0.33,-0.26 0.63,-0.41 0.3,-0.16 0.64,-0.3 1.03,-0.43 0.39,-0.13 0.81,-0.24 1.27,-0.33 0.46,-0.08 0.93,-0.13 1.4,-0.13 0.88,0 1.62,0.1 2.24,0.3 0.61,0.2 1.11,0.49 1.49,0.87 0.38,0.38 0.65,0.86 0.83,1.43 0.17,0.57 0.26,1.23 0.26,1.99 v 8.23 z m -2.22,-5.57 h -1.91 c -0.61,0 -1.15,0.05 -1.6,0.16 -0.45,0.1 -0.83,0.26 -1.13,0.46 -0.3,0.2 -0.52,0.45 -0.66,0.73 -0.14,0.29 -0.21,0.62 -0.21,0.99 0,0.63 0.2,1.14 0.6,1.51 0.4,0.38 0.97,0.56 1.69,0.56 0.59,0 1.13,-0.15 1.63,-0.45 0.5,-0.3 1.03,-0.75 1.58,-1.37 v -2.59 z"
           fill="#25282a"
           stroke-width="0"
           id="path954" /><path
           d="m 442.91,80.49 c 0,0.15 0,0.29 -0.01,0.4 -0.01,0.11 -0.02,0.21 -0.05,0.29 -0.02,0.07 -0.05,0.14 -0.08,0.2 -0.03,0.06 -0.1,0.14 -0.22,0.26 -0.11,0.11 -0.3,0.25 -0.58,0.42 -0.27,0.17 -0.58,0.32 -0.91,0.45 -0.34,0.13 -0.71,0.24 -1.11,0.32 -0.4,0.08 -0.81,0.12 -1.23,0.12 -0.88,0 -1.65,-0.15 -2.33,-0.43 -0.68,-0.29 -1.24,-0.71 -1.7,-1.27 -0.45,-0.55 -0.8,-1.24 -1.04,-2.05 -0.24,-0.81 -0.36,-1.74 -0.36,-2.8 0,-1.2 0.15,-2.24 0.44,-3.1 0.29,-0.86 0.7,-1.57 1.21,-2.12 0.51,-0.55 1.11,-0.96 1.8,-1.23 0.69,-0.26 1.44,-0.4 2.24,-0.4 0.39,0 0.76,0.04 1.13,0.11 0.37,0.07 0.7,0.17 1.01,0.28 0.31,0.12 0.58,0.25 0.82,0.41 0.24,0.15 0.41,0.29 0.52,0.39 0.11,0.11 0.18,0.19 0.22,0.26 0.04,0.06 0.07,0.14 0.1,0.22 0.03,0.08 0.04,0.18 0.05,0.29 0,0.11 0.01,0.24 0.01,0.41 0,0.35 -0.04,0.6 -0.12,0.74 -0.08,0.14 -0.18,0.21 -0.3,0.21 -0.13,0 -0.29,-0.08 -0.47,-0.23 -0.18,-0.15 -0.4,-0.31 -0.67,-0.49 -0.27,-0.18 -0.6,-0.35 -0.98,-0.49 -0.38,-0.15 -0.84,-0.23 -1.36,-0.23 -1.08,0 -1.9,0.42 -2.47,1.24 -0.57,0.83 -0.86,2.03 -0.86,3.6 0,0.78 0.08,1.47 0.22,2.07 0.15,0.59 0.37,1.09 0.66,1.48 0.29,0.4 0.64,0.69 1.06,0.89 0.42,0.19 0.9,0.29 1.44,0.29 0.51,0 0.97,-0.08 1.35,-0.24 0.39,-0.16 0.73,-0.34 1.01,-0.54 0.28,-0.19 0.52,-0.37 0.72,-0.53 0.19,-0.16 0.35,-0.24 0.45,-0.24 0.06,0 0.12,0.02 0.16,0.06 0.04,0.04 0.08,0.1 0.12,0.18 0.03,0.09 0.05,0.19 0.07,0.33 0.02,0.13 0.02,0.29 0.02,0.47"
           fill="#25282a"
           stroke-width="0"
           id="path956" /><path
           d="m 448.37,66.03 c 0,0.52 -0.1,0.88 -0.3,1.07 -0.2,0.19 -0.56,0.28 -1.1,0.28 -0.54,0 -0.89,-0.09 -1.08,-0.28 -0.2,-0.19 -0.29,-0.54 -0.29,-1.05 0,-0.51 0.1,-0.88 0.3,-1.07 0.2,-0.19 0.56,-0.28 1.1,-0.28 0.54,0 0.88,0.09 1.08,0.28 0.19,0.19 0.29,0.54 0.29,1.05 m -0.26,16.32 c 0,0.07 -0.02,0.14 -0.06,0.18 -0.03,0.05 -0.09,0.09 -0.17,0.13 -0.08,0.04 -0.2,0.06 -0.34,0.08 -0.15,0.02 -0.33,0.03 -0.56,0.03 -0.23,0 -0.4,0 -0.54,-0.03 -0.14,-0.02 -0.26,-0.05 -0.34,-0.08 -0.09,-0.04 -0.15,-0.08 -0.18,-0.13 -0.03,-0.05 -0.05,-0.11 -0.05,-0.18 v -12.2 c 0,-0.06 0.02,-0.12 0.05,-0.18 0.03,-0.05 0.09,-0.1 0.18,-0.14 0.09,-0.04 0.2,-0.06 0.34,-0.08 0.15,-0.02 0.33,-0.03 0.54,-0.03 0.23,0 0.41,0 0.56,0.03 0.14,0.02 0.26,0.05 0.34,0.08 0.08,0.03 0.14,0.08 0.17,0.14 0.04,0.05 0.06,0.11 0.06,0.18 z"
           fill="#25282a"
           stroke-width="0"
           id="path958" /><path
           d="m 463.59,76.11 c 0,1 -0.13,1.91 -0.39,2.74 -0.26,0.84 -0.65,1.56 -1.17,2.17 -0.52,0.6 -1.17,1.08 -1.95,1.41 -0.78,0.34 -1.69,0.51 -2.72,0.51 -1.03,0 -1.88,-0.15 -2.62,-0.45 -0.75,-0.3 -1.37,-0.73 -1.86,-1.3 -0.5,-0.57 -0.87,-1.26 -1.11,-2.07 -0.24,-0.81 -0.37,-1.74 -0.37,-2.77 0,-1.03 0.13,-1.91 0.39,-2.74 0.26,-0.84 0.65,-1.56 1.17,-2.16 0.52,-0.61 1.17,-1.08 1.94,-1.41 0.78,-0.33 1.68,-0.5 2.72,-0.5 1.04,0 1.88,0.15 2.62,0.45 0.75,0.3 1.37,0.73 1.86,1.3 0.5,0.57 0.87,1.26 1.12,2.07 0.25,0.81 0.37,1.73 0.37,2.75 m -2.32,0.15 c 0,-0.66 -0.06,-1.28 -0.18,-1.87 -0.12,-0.59 -0.33,-1.1 -0.61,-1.55 -0.28,-0.44 -0.67,-0.79 -1.15,-1.05 -0.48,-0.26 -1.08,-0.39 -1.8,-0.39 -0.67,0 -1.24,0.12 -1.72,0.35 -0.48,0.24 -0.87,0.57 -1.18,1 -0.31,0.43 -0.54,0.94 -0.69,1.52 -0.15,0.59 -0.23,1.23 -0.23,1.92 0,0.69 0.06,1.3 0.18,1.89 0.13,0.59 0.33,1.1 0.62,1.54 0.29,0.44 0.67,0.79 1.16,1.04 0.48,0.26 1.08,0.39 1.81,0.39 0.66,0 1.23,-0.12 1.71,-0.35 0.48,-0.23 0.88,-0.56 1.19,-0.99 0.31,-0.43 0.54,-0.93 0.68,-1.52 0.15,-0.59 0.22,-1.23 0.22,-1.94"
           fill="#25282a"
           stroke-width="0"
           id="path960" /><path
           d="m 477.39,82.35 c 0,0.07 -0.02,0.14 -0.05,0.18 -0.04,0.05 -0.09,0.09 -0.18,0.13 -0.08,0.04 -0.19,0.06 -0.34,0.08 -0.15,0.02 -0.33,0.03 -0.54,0.03 -0.21,0 -0.41,0 -0.56,-0.03 -0.15,-0.03 -0.26,-0.05 -0.34,-0.08 -0.08,-0.04 -0.14,-0.08 -0.18,-0.13 -0.04,-0.05 -0.05,-0.11 -0.05,-0.18 v -7.14 c 0,-0.69 -0.06,-1.26 -0.16,-1.68 -0.11,-0.42 -0.27,-0.79 -0.47,-1.1 -0.21,-0.31 -0.48,-0.54 -0.81,-0.7 -0.33,-0.17 -0.71,-0.25 -1.14,-0.25 -0.56,0 -1.12,0.2 -1.68,0.6 -0.56,0.4 -1.15,0.98 -1.76,1.75 v 8.52 c 0,0.07 -0.02,0.14 -0.05,0.18 -0.04,0.05 -0.1,0.09 -0.18,0.13 -0.08,0.04 -0.19,0.06 -0.34,0.08 -0.15,0.02 -0.33,0.03 -0.56,0.03 -0.23,0 -0.4,0 -0.54,-0.03 -0.14,-0.02 -0.26,-0.05 -0.35,-0.08 -0.09,-0.04 -0.14,-0.08 -0.18,-0.13 -0.03,-0.05 -0.04,-0.11 -0.04,-0.18 v -12.2 c 0,-0.07 0.01,-0.13 0.04,-0.18 0.03,-0.05 0.08,-0.1 0.16,-0.14 0.08,-0.04 0.18,-0.07 0.31,-0.08 0.13,-0.01 0.29,-0.02 0.5,-0.02 0.2,0 0.36,0 0.49,0.02 0.13,0.01 0.23,0.04 0.31,0.08 0.07,0.04 0.12,0.09 0.15,0.14 0.03,0.05 0.05,0.11 0.05,0.18 v 1.61 c 0.69,-0.77 1.37,-1.33 2.06,-1.69 0.68,-0.36 1.37,-0.53 2.07,-0.53 0.81,0 1.5,0.14 2.05,0.41 0.56,0.28 1,0.64 1.35,1.11 0.34,0.46 0.59,1 0.74,1.62 0.15,0.62 0.22,1.36 0.22,2.23 z"
           fill="#25282a"
           stroke-width="0"
           id="path962" /><path
           d="m 490.65,82.36 c 0,0.11 -0.04,0.19 -0.11,0.24 -0.07,0.05 -0.17,0.1 -0.3,0.12 -0.13,0.03 -0.31,0.04 -0.56,0.04 -0.25,0 -0.42,-0.01 -0.56,-0.04 -0.14,-0.03 -0.24,-0.07 -0.3,-0.12 -0.06,-0.06 -0.09,-0.14 -0.09,-0.24 v -1.22 c -0.53,0.57 -1.13,1.01 -1.78,1.33 -0.65,0.32 -1.35,0.48 -2.08,0.48 -0.64,0 -1.22,-0.08 -1.74,-0.25 -0.52,-0.17 -0.96,-0.41 -1.33,-0.73 -0.36,-0.32 -0.65,-0.7 -0.85,-1.17 -0.2,-0.46 -0.3,-0.99 -0.3,-1.57 0,-0.69 0.14,-1.28 0.42,-1.79 0.28,-0.51 0.68,-0.93 1.21,-1.26 0.52,-0.33 1.17,-0.58 1.93,-0.75 0.76,-0.17 1.61,-0.25 2.56,-0.25 h 1.68 v -0.95 c 0,-0.47 -0.05,-0.89 -0.15,-1.25 -0.1,-0.36 -0.26,-0.66 -0.48,-0.9 -0.22,-0.24 -0.51,-0.42 -0.86,-0.54 -0.35,-0.12 -0.79,-0.18 -1.3,-0.18 -0.55,0 -1.05,0.07 -1.48,0.2 -0.44,0.13 -0.82,0.28 -1.15,0.43 -0.33,0.16 -0.6,0.3 -0.83,0.43 -0.22,0.13 -0.39,0.19 -0.5,0.19 -0.07,0 -0.14,-0.02 -0.19,-0.05 -0.05,-0.04 -0.1,-0.09 -0.14,-0.16 -0.04,-0.07 -0.07,-0.16 -0.09,-0.28 -0.02,-0.11 -0.03,-0.24 -0.03,-0.37 0,-0.23 0.01,-0.41 0.05,-0.54 0.03,-0.13 0.11,-0.25 0.23,-0.37 0.12,-0.12 0.33,-0.26 0.63,-0.41 0.3,-0.16 0.64,-0.3 1.03,-0.43 0.39,-0.13 0.81,-0.24 1.27,-0.33 0.46,-0.08 0.93,-0.13 1.4,-0.13 0.88,0 1.62,0.1 2.24,0.3 0.61,0.2 1.11,0.49 1.49,0.87 0.38,0.38 0.65,0.86 0.83,1.43 0.17,0.57 0.26,1.23 0.26,1.99 v 8.23 z m -2.22,-5.57 h -1.91 c -0.61,0 -1.15,0.05 -1.6,0.16 -0.45,0.1 -0.83,0.26 -1.13,0.46 -0.3,0.2 -0.52,0.45 -0.66,0.73 -0.14,0.29 -0.21,0.62 -0.21,0.99 0,0.63 0.2,1.14 0.6,1.51 0.4,0.38 0.96,0.56 1.69,0.56 0.59,0 1.13,-0.15 1.63,-0.45 0.5,-0.3 1.03,-0.75 1.58,-1.37 v -2.59 z"
           fill="#25282a"
           stroke-width="0"
           id="path964" /><path
           d="m 496.99,82.35 c 0,0.07 -0.02,0.14 -0.06,0.18 -0.03,0.05 -0.09,0.09 -0.17,0.13 -0.08,0.04 -0.2,0.06 -0.34,0.08 -0.15,0.02 -0.33,0.03 -0.56,0.03 -0.23,0 -0.4,0 -0.54,-0.03 -0.14,-0.02 -0.26,-0.05 -0.34,-0.08 -0.09,-0.04 -0.15,-0.08 -0.18,-0.13 -0.03,-0.05 -0.05,-0.11 -0.05,-0.18 v -18.1 c 0,-0.08 0.02,-0.14 0.05,-0.19 0.03,-0.05 0.09,-0.1 0.18,-0.14 0.09,-0.04 0.2,-0.06 0.34,-0.08 0.15,-0.02 0.33,-0.03 0.54,-0.03 0.23,0 0.41,0 0.56,0.03 0.14,0.02 0.26,0.05 0.34,0.08 0.08,0.04 0.14,0.08 0.17,0.14 0.04,0.05 0.06,0.12 0.06,0.19 z"
           fill="#25282a"
           stroke-width="0"
           id="path966" /><path
           d="m 518.83,82.39 c 0,0.07 -0.01,0.14 -0.05,0.19 -0.03,0.05 -0.09,0.1 -0.17,0.13 -0.08,0.03 -0.18,0.06 -0.31,0.07 -0.13,0.02 -0.29,0.03 -0.47,0.03 -0.19,0 -0.36,0 -0.49,-0.03 -0.13,-0.02 -0.24,-0.04 -0.32,-0.07 -0.08,-0.03 -0.14,-0.08 -0.18,-0.13 -0.04,-0.05 -0.06,-0.12 -0.06,-0.19 v -1.6 c -0.66,0.69 -1.34,1.23 -2.05,1.62 -0.71,0.38 -1.49,0.58 -2.33,0.58 -0.92,0 -1.7,-0.18 -2.35,-0.52 -0.65,-0.35 -1.17,-0.81 -1.57,-1.4 -0.4,-0.59 -0.7,-1.28 -0.88,-2.07 -0.18,-0.79 -0.28,-1.63 -0.28,-2.51 0,-1.04 0.12,-1.98 0.35,-2.82 0.23,-0.84 0.57,-1.55 1.03,-2.15 0.45,-0.59 1.02,-1.05 1.69,-1.36 0.67,-0.32 1.45,-0.48 2.33,-0.48 0.73,0 1.4,0.16 2.01,0.46 0.61,0.31 1.2,0.77 1.8,1.37 v -7.04 c 0,-0.06 0.02,-0.12 0.05,-0.18 0.03,-0.06 0.09,-0.1 0.19,-0.13 0.09,-0.03 0.21,-0.06 0.35,-0.08 0.15,-0.02 0.33,-0.03 0.55,-0.03 0.22,0 0.42,0.01 0.57,0.03 0.15,0.02 0.26,0.05 0.35,0.08 0.09,0.03 0.15,0.07 0.19,0.13 0.04,0.06 0.06,0.12 0.06,0.18 v 17.92 z m -2.3,-8.52 c -0.62,-0.74 -1.22,-1.31 -1.8,-1.7 -0.58,-0.39 -1.18,-0.59 -1.81,-0.59 -0.59,0 -1.08,0.14 -1.49,0.41 -0.41,0.27 -0.74,0.62 -0.99,1.06 -0.25,0.44 -0.44,0.94 -0.56,1.49 -0.12,0.56 -0.17,1.12 -0.17,1.7 0,0.61 0.05,1.21 0.14,1.79 0.1,0.58 0.27,1.1 0.51,1.55 0.24,0.45 0.56,0.82 0.96,1.09 0.4,0.27 0.9,0.41 1.5,0.41 0.31,0 0.6,-0.04 0.88,-0.12 0.28,-0.08 0.57,-0.21 0.87,-0.4 0.3,-0.19 0.61,-0.43 0.93,-0.73 0.32,-0.3 0.67,-0.67 1.03,-1.11 z"
           fill="#25282a"
           stroke-width="0"
           id="path968" /><path
           d="m 533.73,76.19 c 0,0.36 -0.09,0.62 -0.27,0.77 -0.18,0.15 -0.39,0.23 -0.62,0.23 h -8.23 c 0,0.7 0.07,1.32 0.21,1.88 0.14,0.55 0.37,1.03 0.7,1.43 0.33,0.4 0.75,0.71 1.27,0.92 0.52,0.21 1.16,0.32 1.91,0.32 0.6,0 1.13,-0.05 1.59,-0.15 0.47,-0.1 0.87,-0.2 1.21,-0.32 0.34,-0.12 0.62,-0.23 0.84,-0.33 0.22,-0.1 0.38,-0.14 0.5,-0.14 0.07,0 0.12,0.01 0.17,0.05 0.05,0.03 0.09,0.08 0.12,0.15 0.03,0.07 0.05,0.16 0.06,0.27 0.01,0.11 0.02,0.26 0.02,0.42 0,0.12 0,0.23 -0.01,0.31 -0.01,0.09 -0.02,0.17 -0.03,0.23 -0.01,0.07 -0.04,0.13 -0.07,0.19 -0.03,0.06 -0.07,0.11 -0.12,0.16 -0.05,0.05 -0.2,0.13 -0.45,0.25 -0.25,0.12 -0.57,0.23 -0.97,0.34 -0.4,0.11 -0.86,0.21 -1.38,0.3 -0.52,0.09 -1.08,0.13 -1.67,0.13 -1.03,0 -1.93,-0.15 -2.7,-0.43 -0.77,-0.29 -1.43,-0.71 -1.95,-1.28 -0.53,-0.57 -0.93,-1.27 -1.19,-2.13 -0.27,-0.85 -0.4,-1.84 -0.4,-2.97 0,-1.13 0.14,-2.04 0.42,-2.9 0.28,-0.86 0.68,-1.58 1.2,-2.18 0.52,-0.6 1.15,-1.06 1.9,-1.38 0.74,-0.32 1.57,-0.48 2.49,-0.48 0.98,0 1.82,0.16 2.51,0.47 0.69,0.32 1.26,0.74 1.7,1.27 0.44,0.53 0.77,1.16 0.98,1.88 0.21,0.72 0.31,1.48 0.31,2.3 v 0.42 z m -2.3,-0.68 c 0.03,-1.2 -0.24,-2.15 -0.8,-2.83 -0.56,-0.68 -1.4,-1.03 -2.51,-1.03 -0.57,0 -1.07,0.11 -1.5,0.32 -0.43,0.21 -0.79,0.5 -1.08,0.85 -0.29,0.35 -0.51,0.76 -0.67,1.23 -0.16,0.47 -0.25,0.96 -0.26,1.46 z"
           fill="#25282a"
           stroke-width="0"
           id="path970" /><path
           d="m 305.82,117.39 c 0,0.07 -0.02,0.14 -0.06,0.2 -0.04,0.06 -0.1,0.1 -0.2,0.13 -0.09,0.03 -0.22,0.06 -0.37,0.09 -0.16,0.02 -0.35,0.03 -0.59,0.03 -0.24,0 -0.42,-0.01 -0.58,-0.03 -0.16,-0.02 -0.29,-0.05 -0.38,-0.09 -0.09,-0.03 -0.16,-0.08 -0.2,-0.13 -0.04,-0.06 -0.06,-0.12 -0.06,-0.2 v -17.6 c 0,-0.07 0.02,-0.14 0.06,-0.2 0.04,-0.06 0.11,-0.1 0.21,-0.14 0.1,-0.03 0.23,-0.06 0.38,-0.08 0.16,-0.02 0.34,-0.03 0.56,-0.03 0.24,0 0.43,0 0.59,0.03 0.16,0.02 0.28,0.05 0.37,0.08 0.1,0.03 0.16,0.08 0.2,0.14 0.04,0.06 0.06,0.12 0.06,0.2 v 17.6 z"
           fill="#25282a"
           stroke-width="0"
           id="path972" /><path
           d="m 321.4,117.4 c 0,0.08 -0.02,0.14 -0.06,0.19 -0.04,0.05 -0.1,0.1 -0.18,0.14 -0.09,0.04 -0.2,0.07 -0.35,0.08 -0.15,0.02 -0.34,0.03 -0.57,0.03 -0.23,0 -0.43,0 -0.58,-0.03 -0.15,-0.02 -0.27,-0.05 -0.35,-0.08 -0.09,-0.04 -0.15,-0.08 -0.18,-0.14 -0.04,-0.05 -0.06,-0.12 -0.06,-0.19 v -7.47 c 0,-0.73 -0.06,-1.31 -0.17,-1.76 -0.11,-0.44 -0.28,-0.83 -0.49,-1.15 -0.22,-0.32 -0.5,-0.57 -0.84,-0.74 -0.35,-0.17 -0.74,-0.26 -1.2,-0.26 -0.59,0 -1.17,0.21 -1.76,0.62 -0.58,0.41 -1.2,1.03 -1.84,1.83 v 8.91 c 0,0.08 -0.02,0.14 -0.05,0.19 -0.04,0.05 -0.1,0.1 -0.19,0.14 -0.09,0.04 -0.2,0.07 -0.35,0.08 -0.15,0.02 -0.34,0.03 -0.58,0.03 -0.24,0 -0.42,0 -0.57,-0.03 -0.15,-0.02 -0.27,-0.05 -0.36,-0.08 -0.09,-0.04 -0.15,-0.08 -0.19,-0.14 -0.03,-0.05 -0.05,-0.12 -0.05,-0.19 v -12.75 c 0,-0.07 0.01,-0.14 0.04,-0.19 0.03,-0.05 0.09,-0.1 0.17,-0.14 0.08,-0.04 0.19,-0.07 0.33,-0.08 0.13,-0.01 0.31,-0.02 0.52,-0.02 0.21,0 0.38,0 0.52,0.02 0.14,0.01 0.24,0.04 0.32,0.08 0.07,0.04 0.13,0.09 0.16,0.14 0.03,0.05 0.05,0.12 0.05,0.19 v 1.69 c 0.72,-0.8 1.43,-1.39 2.15,-1.76 0.71,-0.37 1.43,-0.56 2.16,-0.56 0.85,0 1.56,0.14 2.15,0.43 0.58,0.29 1.05,0.67 1.41,1.16 0.36,0.48 0.62,1.04 0.77,1.69 0.16,0.65 0.23,1.42 0.23,2.33 v 7.78 z"
           fill="#25282a"
           stroke-width="0"
           id="path974" /><path
           d="m 332.48,99.41 c 0,0.18 -0.01,0.32 -0.03,0.43 -0.02,0.11 -0.04,0.2 -0.06,0.26 -0.02,0.07 -0.05,0.11 -0.09,0.13 -0.04,0.02 -0.09,0.03 -0.14,0.03 -0.07,0 -0.15,-0.02 -0.25,-0.06 -0.1,-0.04 -0.22,-0.09 -0.36,-0.14 -0.14,-0.05 -0.31,-0.1 -0.5,-0.14 -0.19,-0.04 -0.42,-0.06 -0.67,-0.06 -0.35,0 -0.65,0.06 -0.89,0.17 -0.25,0.11 -0.44,0.29 -0.59,0.53 -0.15,0.24 -0.26,0.55 -0.33,0.93 -0.07,0.38 -0.1,0.85 -0.1,1.39 v 1.39 h 2.85 c 0.07,0 0.14,0.02 0.19,0.05 0.05,0.03 0.1,0.09 0.14,0.17 0.04,0.08 0.07,0.18 0.1,0.31 0.03,0.13 0.04,0.27 0.04,0.45 0,0.34 -0.04,0.59 -0.13,0.74 -0.09,0.15 -0.2,0.23 -0.34,0.23 h -2.85 v 11.18 c 0,0.08 -0.02,0.14 -0.06,0.19 -0.04,0.05 -0.1,0.1 -0.19,0.13 -0.09,0.04 -0.21,0.07 -0.36,0.08 -0.15,0.02 -0.34,0.03 -0.57,0.03 -0.23,0 -0.42,0 -0.57,-0.03 -0.15,-0.02 -0.27,-0.05 -0.36,-0.08 -0.09,-0.04 -0.15,-0.08 -0.19,-0.13 -0.04,-0.05 -0.06,-0.12 -0.06,-0.19 v -11.18 h -1.8 c -0.15,0 -0.26,-0.07 -0.34,-0.23 -0.08,-0.15 -0.11,-0.39 -0.11,-0.74 0,-0.18 0,-0.33 0.03,-0.45 0.02,-0.12 0.05,-0.22 0.09,-0.31 0.04,-0.08 0.08,-0.14 0.14,-0.17 0.06,-0.03 0.12,-0.05 0.2,-0.05 h 1.8 v -1.32 c 0,-0.89 0.08,-1.65 0.25,-2.29 0.17,-0.64 0.42,-1.16 0.76,-1.56 0.34,-0.41 0.77,-0.71 1.28,-0.9 0.51,-0.19 1.12,-0.29 1.82,-0.29 0.33,0 0.65,0.03 0.96,0.09 0.31,0.06 0.55,0.13 0.72,0.2 0.17,0.07 0.28,0.13 0.34,0.19 0.06,0.06 0.1,0.13 0.14,0.22 0.04,0.09 0.06,0.2 0.08,0.33 0.01,0.13 0.02,0.28 0.02,0.46"
           fill="#25282a"
           stroke-width="0"
           id="path976" /><path
           d="m 345.6,110.89 c 0,1.04 -0.14,2 -0.41,2.87 -0.27,0.87 -0.68,1.63 -1.23,2.26 -0.54,0.63 -1.22,1.12 -2.04,1.48 -0.82,0.35 -1.76,0.53 -2.84,0.53 -1.08,0 -1.96,-0.16 -2.74,-0.47 -0.78,-0.31 -1.43,-0.77 -1.95,-1.36 -0.52,-0.59 -0.91,-1.32 -1.16,-2.17 -0.26,-0.85 -0.38,-1.81 -0.38,-2.89 0,-1.08 0.14,-2 0.4,-2.87 0.27,-0.87 0.67,-1.63 1.22,-2.26 0.55,-0.63 1.22,-1.12 2.03,-1.47 0.81,-0.35 1.76,-0.52 2.85,-0.52 1.09,0 1.96,0.16 2.74,0.47 0.78,0.31 1.43,0.76 1.95,1.36 0.52,0.6 0.91,1.32 1.17,2.17 0.26,0.85 0.39,1.81 0.39,2.88 m -2.42,0.16 c 0,-0.69 -0.06,-1.34 -0.19,-1.95 -0.13,-0.62 -0.34,-1.15 -0.63,-1.62 -0.3,-0.46 -0.7,-0.83 -1.2,-1.1 -0.51,-0.27 -1.13,-0.4 -1.89,-0.4 -0.7,0 -1.29,0.12 -1.79,0.37 -0.5,0.25 -0.91,0.59 -1.23,1.04 -0.33,0.45 -0.57,0.98 -0.72,1.59 -0.16,0.61 -0.23,1.28 -0.23,2.01 0,0.73 0.06,1.36 0.19,1.97 0.13,0.61 0.34,1.15 0.65,1.61 0.3,0.46 0.7,0.82 1.2,1.09 0.51,0.27 1.13,0.4 1.89,0.4 0.69,0 1.28,-0.12 1.79,-0.37 0.5,-0.24 0.92,-0.59 1.24,-1.03 0.32,-0.44 0.56,-0.97 0.71,-1.59 0.16,-0.62 0.23,-1.29 0.23,-2.03"
           fill="#25282a"
           stroke-width="0"
           id="path978" /><path
           d="m 356.49,105.49 c 0,0.21 0,0.38 -0.01,0.52 0,0.14 -0.03,0.25 -0.06,0.33 -0.03,0.08 -0.06,0.14 -0.11,0.19 -0.04,0.04 -0.1,0.06 -0.18,0.06 -0.08,0 -0.17,-0.02 -0.27,-0.06 -0.11,-0.04 -0.23,-0.09 -0.37,-0.13 -0.14,-0.04 -0.29,-0.08 -0.46,-0.12 -0.17,-0.04 -0.36,-0.06 -0.55,-0.06 -0.24,0 -0.47,0.05 -0.69,0.14 -0.23,0.09 -0.46,0.25 -0.72,0.47 -0.25,0.22 -0.51,0.5 -0.79,0.86 -0.28,0.36 -0.58,0.8 -0.91,1.32 v 8.39 c 0,0.08 -0.02,0.14 -0.06,0.19 -0.04,0.05 -0.1,0.1 -0.18,0.13 -0.09,0.04 -0.21,0.07 -0.35,0.08 -0.15,0.02 -0.35,0.03 -0.58,0.03 -0.23,0 -0.42,0 -0.57,-0.03 -0.15,-0.02 -0.27,-0.05 -0.36,-0.08 -0.09,-0.04 -0.15,-0.08 -0.18,-0.13 -0.04,-0.05 -0.05,-0.12 -0.05,-0.19 v -12.75 c 0,-0.07 0.01,-0.14 0.04,-0.19 0.03,-0.05 0.08,-0.1 0.17,-0.14 0.09,-0.04 0.19,-0.07 0.33,-0.08 0.13,-0.01 0.3,-0.02 0.52,-0.02 0.21,0 0.38,0 0.52,0.02 0.14,0.01 0.24,0.04 0.32,0.08 0.08,0.04 0.13,0.09 0.16,0.14 0.03,0.05 0.05,0.12 0.05,0.19 v 1.86 c 0.35,-0.51 0.68,-0.92 0.98,-1.25 0.31,-0.32 0.6,-0.57 0.87,-0.76 0.27,-0.18 0.54,-0.31 0.81,-0.38 0.27,-0.07 0.54,-0.11 0.81,-0.11 0.12,0 0.26,0 0.42,0.02 0.16,0.01 0.32,0.04 0.49,0.08 0.17,0.04 0.32,0.08 0.46,0.13 0.14,0.05 0.23,0.1 0.29,0.14 0.06,0.05 0.09,0.09 0.11,0.14 0.02,0.04 0.04,0.1 0.05,0.16 0.02,0.07 0.02,0.16 0.03,0.29 0,0.13 0,0.3 0,0.52"
           fill="#25282a"
           stroke-width="0"
           id="path980" /><path
           d="m 378.07,117.4 c 0,0.08 -0.02,0.14 -0.06,0.19 -0.04,0.05 -0.1,0.1 -0.18,0.14 -0.08,0.04 -0.2,0.07 -0.35,0.08 -0.15,0.02 -0.34,0.03 -0.57,0.03 -0.23,0 -0.43,0 -0.58,-0.03 -0.15,-0.02 -0.27,-0.05 -0.36,-0.08 -0.09,-0.04 -0.15,-0.08 -0.19,-0.14 -0.04,-0.05 -0.05,-0.12 -0.05,-0.19 v -7.75 c 0,-0.54 -0.05,-1.03 -0.14,-1.47 -0.09,-0.44 -0.25,-0.83 -0.45,-1.15 -0.21,-0.32 -0.47,-0.57 -0.79,-0.74 -0.32,-0.17 -0.7,-0.26 -1.13,-0.26 -0.54,0 -1.08,0.21 -1.62,0.62 -0.54,0.41 -1.14,1.03 -1.79,1.83 v 8.91 c 0,0.08 -0.02,0.14 -0.06,0.19 -0.04,0.05 -0.1,0.1 -0.19,0.14 -0.09,0.04 -0.21,0.07 -0.36,0.08 -0.15,0.02 -0.34,0.03 -0.57,0.03 -0.23,0 -0.4,0 -0.56,-0.03 -0.16,-0.02 -0.28,-0.05 -0.37,-0.08 -0.09,-0.04 -0.15,-0.08 -0.19,-0.14 -0.03,-0.05 -0.05,-0.12 -0.05,-0.19 v -7.75 c 0,-0.54 -0.05,-1.03 -0.16,-1.47 -0.1,-0.44 -0.26,-0.83 -0.47,-1.15 -0.21,-0.32 -0.47,-0.57 -0.79,-0.74 -0.32,-0.17 -0.69,-0.26 -1.13,-0.26 -0.54,0 -1.08,0.21 -1.63,0.62 -0.55,0.41 -1.14,1.03 -1.79,1.83 v 8.91 c 0,0.08 -0.02,0.14 -0.06,0.19 -0.04,0.05 -0.1,0.1 -0.18,0.14 -0.08,0.04 -0.2,0.07 -0.35,0.08 -0.15,0.02 -0.35,0.03 -0.58,0.03 -0.23,0 -0.42,0 -0.57,-0.03 -0.15,-0.02 -0.27,-0.05 -0.36,-0.08 -0.09,-0.04 -0.15,-0.08 -0.18,-0.14 -0.03,-0.05 -0.05,-0.12 -0.05,-0.19 v -12.75 c 0,-0.07 0.02,-0.14 0.04,-0.19 0.03,-0.05 0.08,-0.1 0.17,-0.14 0.09,-0.04 0.19,-0.07 0.33,-0.08 0.13,-0.01 0.31,-0.02 0.53,-0.02 0.21,0 0.38,0 0.52,0.02 0.14,0.01 0.24,0.04 0.32,0.08 0.07,0.04 0.13,0.09 0.16,0.14 0.03,0.05 0.05,0.12 0.05,0.19 v 1.69 c 0.72,-0.8 1.42,-1.39 2.09,-1.76 0.67,-0.37 1.36,-0.56 2.04,-0.56 0.53,0 1,0.06 1.43,0.18 0.42,0.12 0.79,0.3 1.11,0.52 0.32,0.22 0.59,0.49 0.82,0.79 0.23,0.31 0.42,0.65 0.57,1.03 0.43,-0.46 0.83,-0.86 1.21,-1.18 0.38,-0.32 0.75,-0.58 1.1,-0.78 0.36,-0.2 0.7,-0.34 1.04,-0.43 0.33,-0.09 0.67,-0.13 1.01,-0.13 0.82,0 1.51,0.14 2.07,0.43 0.56,0.29 1.01,0.67 1.35,1.16 0.34,0.48 0.59,1.04 0.74,1.69 0.15,0.65 0.22,1.33 0.22,2.05 v 8.06 z"
           fill="#25282a"
           stroke-width="0"
           id="path982" /><path
           d="m 391.94,117.42 c 0,0.11 -0.04,0.2 -0.11,0.25 -0.07,0.06 -0.18,0.1 -0.31,0.13 -0.13,0.03 -0.33,0.04 -0.58,0.04 -0.25,0 -0.44,-0.01 -0.59,-0.04 -0.15,-0.03 -0.25,-0.07 -0.32,-0.13 -0.07,-0.06 -0.1,-0.14 -0.1,-0.25 v -1.28 c -0.56,0.59 -1.18,1.06 -1.86,1.39 -0.68,0.33 -1.41,0.5 -2.17,0.5 -0.67,0 -1.28,-0.09 -1.82,-0.26 -0.54,-0.18 -1.01,-0.43 -1.39,-0.76 -0.38,-0.33 -0.68,-0.74 -0.89,-1.22 -0.21,-0.48 -0.32,-1.03 -0.32,-1.64 0,-0.72 0.15,-1.34 0.44,-1.87 0.29,-0.53 0.71,-0.97 1.26,-1.32 0.55,-0.35 1.22,-0.61 2.01,-0.78 0.79,-0.18 1.68,-0.26 2.67,-0.26 h 1.76 v -0.99 c 0,-0.49 -0.05,-0.93 -0.16,-1.3 -0.1,-0.38 -0.27,-0.69 -0.5,-0.94 -0.23,-0.25 -0.53,-0.44 -0.9,-0.57 -0.37,-0.13 -0.82,-0.19 -1.36,-0.19 -0.58,0 -1.09,0.07 -1.55,0.21 -0.46,0.14 -0.86,0.29 -1.2,0.45 -0.35,0.16 -0.63,0.32 -0.86,0.45 -0.23,0.14 -0.4,0.2 -0.52,0.2 -0.07,0 -0.14,-0.02 -0.2,-0.06 -0.06,-0.04 -0.11,-0.09 -0.15,-0.17 -0.04,-0.07 -0.07,-0.17 -0.09,-0.29 -0.02,-0.12 -0.03,-0.25 -0.03,-0.39 0,-0.24 0.02,-0.43 0.05,-0.56 0.03,-0.14 0.11,-0.27 0.24,-0.39 0.13,-0.12 0.35,-0.27 0.66,-0.43 0.31,-0.17 0.67,-0.32 1.08,-0.45 0.41,-0.14 0.85,-0.25 1.33,-0.34 0.48,-0.09 0.97,-0.13 1.46,-0.13 0.92,0 1.69,0.1 2.34,0.31 0.64,0.21 1.16,0.51 1.56,0.91 0.39,0.4 0.68,0.9 0.86,1.5 0.18,0.6 0.27,1.29 0.27,2.08 v 8.6 z m -2.32,-5.83 h -2 c -0.64,0 -1.2,0.06 -1.67,0.16 -0.47,0.11 -0.86,0.27 -1.18,0.48 -0.31,0.21 -0.54,0.47 -0.69,0.76 -0.15,0.3 -0.22,0.64 -0.22,1.03 0,0.66 0.21,1.19 0.63,1.58 0.42,0.39 1.01,0.59 1.76,0.59 0.62,0 1.19,-0.16 1.71,-0.47 0.53,-0.31 1.07,-0.79 1.65,-1.43 v -2.71 z"
           fill="#25282a"
           stroke-width="0"
           id="path984" /><path
           d="m 405.4,115.46 c 0,0.16 0,0.3 -0.01,0.42 -0.01,0.12 -0.02,0.22 -0.05,0.3 -0.02,0.08 -0.05,0.15 -0.08,0.21 -0.04,0.06 -0.11,0.15 -0.23,0.27 -0.12,0.12 -0.32,0.26 -0.6,0.44 -0.28,0.17 -0.6,0.33 -0.96,0.47 -0.35,0.14 -0.74,0.25 -1.15,0.33 -0.41,0.08 -0.85,0.13 -1.29,0.13 -0.92,0 -1.73,-0.15 -2.44,-0.45 -0.71,-0.3 -1.3,-0.74 -1.78,-1.32 -0.48,-0.58 -0.84,-1.29 -1.09,-2.14 -0.25,-0.85 -0.38,-1.82 -0.38,-2.92 0,-1.26 0.16,-2.34 0.46,-3.24 0.3,-0.9 0.73,-1.64 1.26,-2.22 0.53,-0.58 1.16,-1 1.88,-1.28 0.72,-0.28 1.5,-0.42 2.35,-0.42 0.4,0 0.8,0.04 1.18,0.12 0.38,0.07 0.73,0.17 1.06,0.3 0.32,0.12 0.61,0.26 0.86,0.42 0.25,0.16 0.43,0.3 0.54,0.41 0.11,0.11 0.19,0.2 0.23,0.27 0.04,0.07 0.08,0.14 0.11,0.23 0.03,0.09 0.05,0.19 0.06,0.3 0,0.12 0.01,0.26 0.01,0.42 0,0.37 -0.04,0.63 -0.13,0.77 -0.08,0.15 -0.19,0.22 -0.31,0.22 -0.14,0 -0.3,-0.08 -0.49,-0.24 -0.18,-0.15 -0.42,-0.33 -0.7,-0.52 -0.28,-0.19 -0.63,-0.36 -1.03,-0.51 -0.4,-0.16 -0.87,-0.24 -1.42,-0.24 -1.13,0 -1.99,0.43 -2.59,1.3 -0.6,0.86 -0.9,2.12 -0.9,3.76 0,0.82 0.08,1.54 0.23,2.16 0.15,0.62 0.38,1.14 0.69,1.55 0.31,0.41 0.67,0.72 1.11,0.93 0.44,0.2 0.94,0.3 1.51,0.3 0.54,0 1.01,-0.08 1.42,-0.25 0.41,-0.17 0.76,-0.35 1.05,-0.56 0.3,-0.2 0.55,-0.39 0.75,-0.55 0.2,-0.16 0.36,-0.25 0.48,-0.25 0.07,0 0.12,0.02 0.17,0.06 0.05,0.04 0.09,0.1 0.12,0.19 0.03,0.09 0.06,0.2 0.07,0.34 0.02,0.14 0.02,0.3 0.02,0.49"
           fill="#25282a"
           stroke-width="0"
           id="path986" /><path
           d="m 411.11,100.35 c 0,0.55 -0.11,0.92 -0.31,1.12 -0.21,0.2 -0.59,0.3 -1.15,0.3 -0.56,0 -0.92,-0.09 -1.13,-0.29 -0.2,-0.19 -0.3,-0.56 -0.3,-1.1 0,-0.54 0.1,-0.92 0.31,-1.12 0.21,-0.2 0.59,-0.3 1.15,-0.3 0.56,0 0.92,0.1 1.13,0.29 0.2,0.19 0.3,0.56 0.3,1.1 m -0.27,17.06 c 0,0.08 -0.02,0.14 -0.06,0.19 -0.04,0.05 -0.1,0.1 -0.18,0.14 -0.09,0.04 -0.21,0.07 -0.36,0.08 -0.15,0.02 -0.35,0.03 -0.58,0.03 -0.23,0 -0.42,0 -0.57,-0.03 -0.15,-0.02 -0.27,-0.05 -0.36,-0.08 -0.09,-0.04 -0.15,-0.08 -0.19,-0.14 -0.03,-0.05 -0.05,-0.12 -0.05,-0.19 v -12.75 c 0,-0.06 0.02,-0.13 0.05,-0.18 0.03,-0.06 0.09,-0.11 0.19,-0.14 0.09,-0.04 0.21,-0.07 0.36,-0.09 0.15,-0.02 0.34,-0.03 0.57,-0.03 0.23,0 0.43,0 0.58,0.03 0.15,0.02 0.27,0.05 0.36,0.09 0.08,0.04 0.14,0.08 0.18,0.14 0.04,0.06 0.06,0.12 0.06,0.18 z"
           fill="#25282a"
           stroke-width="0"
           id="path988" /><path
           d="m 427.02,110.89 c 0,1.04 -0.14,2 -0.41,2.87 -0.27,0.87 -0.68,1.63 -1.23,2.26 -0.54,0.63 -1.22,1.13 -2.04,1.48 -0.82,0.35 -1.77,0.53 -2.84,0.53 -1.07,0 -1.96,-0.16 -2.74,-0.47 -0.78,-0.31 -1.43,-0.77 -1.95,-1.36 -0.52,-0.59 -0.91,-1.32 -1.16,-2.17 -0.26,-0.85 -0.38,-1.81 -0.38,-2.89 0,-1.08 0.13,-2 0.4,-2.87 0.27,-0.87 0.68,-1.63 1.22,-2.26 0.54,-0.63 1.22,-1.12 2.03,-1.47 0.81,-0.35 1.76,-0.52 2.85,-0.52 1.09,0 1.96,0.16 2.74,0.47 0.78,0.31 1.43,0.77 1.95,1.36 0.52,0.6 0.91,1.32 1.17,2.17 0.26,0.85 0.39,1.81 0.39,2.88 m -2.42,0.16 c 0,-0.69 -0.07,-1.34 -0.19,-1.95 -0.13,-0.62 -0.34,-1.15 -0.64,-1.62 -0.3,-0.46 -0.7,-0.83 -1.2,-1.1 -0.51,-0.27 -1.14,-0.4 -1.89,-0.4 -0.69,0 -1.29,0.12 -1.79,0.37 -0.5,0.25 -0.91,0.59 -1.24,1.04 -0.32,0.45 -0.56,0.98 -0.72,1.59 -0.16,0.61 -0.24,1.28 -0.24,2.01 0,0.73 0.06,1.36 0.19,1.97 0.13,0.61 0.35,1.15 0.64,1.61 0.3,0.46 0.7,0.82 1.21,1.09 0.51,0.27 1.13,0.4 1.89,0.4 0.69,0 1.28,-0.12 1.79,-0.37 0.5,-0.24 0.92,-0.59 1.24,-1.04 0.33,-0.44 0.56,-0.97 0.72,-1.58 0.15,-0.62 0.23,-1.29 0.23,-2.03 m -2.79,-12.62 c 0.06,-0.11 0.12,-0.19 0.2,-0.26 0.08,-0.07 0.17,-0.12 0.28,-0.16 0.11,-0.04 0.24,-0.07 0.4,-0.08 0.16,-0.02 0.35,-0.03 0.58,-0.03 0.27,0 0.48,0.02 0.64,0.05 0.17,0.03 0.28,0.08 0.35,0.14 0.07,0.06 0.1,0.13 0.09,0.21 0,0.08 -0.05,0.16 -0.13,0.25 l -2.56,3.3 c -0.08,0.1 -0.14,0.17 -0.21,0.23 -0.06,0.06 -0.13,0.1 -0.21,0.13 -0.08,0.03 -0.19,0.06 -0.31,0.07 -0.13,0.02 -0.29,0.02 -0.48,0.02 -0.21,0 -0.37,-0.02 -0.49,-0.04 -0.12,-0.03 -0.21,-0.07 -0.26,-0.11 -0.05,-0.05 -0.07,-0.11 -0.06,-0.18 0.02,-0.08 0.05,-0.16 0.12,-0.27 z"
           fill="#25282a"
           stroke-width="0"
           id="path990" /><path
           d="m 441.44,117.4 c 0,0.08 -0.02,0.14 -0.06,0.19 -0.04,0.05 -0.1,0.1 -0.18,0.14 -0.09,0.04 -0.21,0.07 -0.35,0.08 -0.15,0.02 -0.34,0.03 -0.57,0.03 -0.23,0 -0.43,0 -0.58,-0.03 -0.15,-0.02 -0.27,-0.05 -0.35,-0.08 -0.08,-0.04 -0.14,-0.08 -0.18,-0.14 -0.04,-0.05 -0.06,-0.12 -0.06,-0.19 v -7.47 c 0,-0.73 -0.06,-1.31 -0.17,-1.76 -0.11,-0.44 -0.28,-0.83 -0.49,-1.15 -0.22,-0.32 -0.5,-0.57 -0.85,-0.74 -0.35,-0.17 -0.74,-0.26 -1.2,-0.26 -0.59,0 -1.17,0.21 -1.76,0.62 -0.59,0.41 -1.2,1.03 -1.84,1.83 v 8.91 c 0,0.08 -0.02,0.14 -0.05,0.19 -0.04,0.05 -0.1,0.1 -0.18,0.14 -0.09,0.04 -0.21,0.07 -0.35,0.08 -0.15,0.02 -0.35,0.03 -0.58,0.03 -0.23,0 -0.42,0 -0.57,-0.03 -0.15,-0.02 -0.27,-0.05 -0.36,-0.08 -0.09,-0.04 -0.15,-0.08 -0.19,-0.14 -0.03,-0.05 -0.05,-0.12 -0.05,-0.19 v -12.75 c 0,-0.07 0.01,-0.14 0.04,-0.19 0.02,-0.05 0.08,-0.1 0.17,-0.14 0.09,-0.04 0.19,-0.07 0.33,-0.08 0.13,-0.01 0.31,-0.02 0.52,-0.02 0.21,0 0.38,0 0.52,0.02 0.14,0.01 0.24,0.04 0.32,0.08 0.07,0.04 0.13,0.09 0.16,0.14 0.03,0.05 0.05,0.12 0.05,0.19 v 1.69 c 0.72,-0.8 1.43,-1.39 2.15,-1.76 0.71,-0.37 1.43,-0.56 2.16,-0.56 0.85,0 1.56,0.14 2.14,0.43 0.58,0.29 1.05,0.67 1.41,1.16 0.36,0.48 0.62,1.04 0.77,1.69 0.16,0.65 0.23,1.42 0.23,2.33 v 7.78 z"
           fill="#25282a"
           stroke-width="0"
           id="path992" /><path
           d="m 466.26,116.89 c 0.07,0.21 0.11,0.38 0.12,0.5 0,0.13 -0.03,0.22 -0.11,0.29 -0.07,0.07 -0.2,0.11 -0.38,0.13 -0.17,0.02 -0.41,0.03 -0.7,0.03 -0.29,0 -0.53,0 -0.7,-0.02 -0.17,-0.01 -0.31,-0.04 -0.39,-0.07 -0.09,-0.03 -0.16,-0.08 -0.2,-0.13 -0.04,-0.06 -0.08,-0.13 -0.12,-0.21 l -1.57,-4.46 h -7.62 l -1.5,4.4 c -0.03,0.09 -0.07,0.16 -0.11,0.22 -0.05,0.06 -0.11,0.11 -0.2,0.16 -0.09,0.04 -0.22,0.07 -0.38,0.09 -0.17,0.02 -0.38,0.03 -0.64,0.03 -0.26,0 -0.5,-0.01 -0.67,-0.03 -0.17,-0.02 -0.3,-0.07 -0.37,-0.13 -0.07,-0.07 -0.11,-0.16 -0.1,-0.29 0,-0.13 0.04,-0.3 0.12,-0.5 l 6.15,-17.03 c 0.04,-0.11 0.09,-0.19 0.15,-0.25 0.06,-0.07 0.15,-0.12 0.27,-0.16 0.12,-0.04 0.27,-0.07 0.45,-0.08 0.19,-0.01 0.42,-0.02 0.7,-0.02 0.3,0 0.55,0 0.75,0.02 0.2,0.01 0.36,0.04 0.48,0.08 0.12,0.04 0.22,0.09 0.28,0.16 0.07,0.07 0.12,0.16 0.16,0.26 l 6.15,17.03 z m -7.89,-15.03 h -0.01 L 455.2,111 h 6.38 l -3.2,-9.14 z"
           fill="#25282a"
           stroke-width="0"
           id="path994" /><path
           d="m 487.97,117.4 c 0,0.08 -0.02,0.14 -0.06,0.19 -0.04,0.05 -0.1,0.1 -0.18,0.14 -0.08,0.04 -0.2,0.07 -0.35,0.08 -0.15,0.02 -0.34,0.03 -0.57,0.03 -0.23,0 -0.43,0 -0.58,-0.03 -0.15,-0.02 -0.27,-0.05 -0.36,-0.08 -0.09,-0.04 -0.16,-0.08 -0.19,-0.14 -0.04,-0.05 -0.06,-0.12 -0.06,-0.19 v -7.75 c 0,-0.54 -0.05,-1.03 -0.14,-1.47 -0.09,-0.44 -0.25,-0.83 -0.45,-1.15 -0.21,-0.32 -0.47,-0.57 -0.79,-0.74 -0.32,-0.17 -0.7,-0.26 -1.14,-0.26 -0.54,0 -1.08,0.21 -1.62,0.62 -0.54,0.41 -1.14,1.03 -1.79,1.83 v 8.91 c 0,0.08 -0.02,0.14 -0.06,0.19 -0.04,0.05 -0.1,0.1 -0.19,0.14 -0.09,0.04 -0.21,0.07 -0.36,0.08 -0.15,0.02 -0.34,0.03 -0.56,0.03 -0.22,0 -0.41,0 -0.56,-0.03 -0.16,-0.02 -0.28,-0.05 -0.37,-0.08 -0.09,-0.04 -0.15,-0.08 -0.18,-0.14 -0.03,-0.05 -0.05,-0.12 -0.05,-0.19 v -7.75 c 0,-0.54 -0.05,-1.03 -0.16,-1.47 -0.1,-0.44 -0.26,-0.83 -0.47,-1.15 -0.21,-0.32 -0.47,-0.57 -0.79,-0.74 -0.32,-0.17 -0.69,-0.26 -1.13,-0.26 -0.54,0 -1.08,0.21 -1.63,0.62 -0.55,0.41 -1.14,1.03 -1.79,1.83 v 8.91 c 0,0.08 -0.02,0.14 -0.06,0.19 -0.04,0.05 -0.1,0.1 -0.18,0.14 -0.08,0.04 -0.2,0.07 -0.35,0.08 -0.15,0.02 -0.35,0.03 -0.58,0.03 -0.23,0 -0.41,0 -0.57,-0.03 -0.15,-0.02 -0.27,-0.05 -0.36,-0.08 -0.09,-0.04 -0.15,-0.08 -0.19,-0.14 -0.03,-0.05 -0.05,-0.12 -0.05,-0.19 v -12.75 c 0,-0.07 0.02,-0.14 0.04,-0.19 0.03,-0.05 0.08,-0.1 0.17,-0.14 0.09,-0.04 0.19,-0.07 0.33,-0.08 0.13,-0.01 0.31,-0.02 0.53,-0.02 0.22,0 0.38,0 0.52,0.02 0.14,0.01 0.24,0.04 0.32,0.08 0.08,0.04 0.13,0.09 0.16,0.14 0.03,0.05 0.05,0.12 0.05,0.19 v 1.69 c 0.72,-0.8 1.41,-1.39 2.09,-1.76 0.67,-0.37 1.36,-0.56 2.05,-0.56 0.53,0 1,0.06 1.42,0.18 0.42,0.12 0.79,0.3 1.11,0.52 0.32,0.22 0.6,0.49 0.82,0.79 0.23,0.31 0.41,0.65 0.57,1.03 0.43,-0.46 0.83,-0.86 1.21,-1.18 0.38,-0.32 0.75,-0.58 1.1,-0.78 0.35,-0.2 0.7,-0.34 1.03,-0.43 0.33,-0.09 0.67,-0.13 1.01,-0.13 0.82,0 1.51,0.14 2.07,0.43 0.56,0.29 1.01,0.67 1.35,1.16 0.34,0.48 0.59,1.04 0.74,1.69 0.15,0.65 0.22,1.33 0.22,2.05 v 8.06 z"
           fill="#25282a"
           stroke-width="0"
           id="path996" /><path
           d="m 503.96,110.86 c 0,1.1 -0.12,2.1 -0.36,2.98 -0.24,0.89 -0.59,1.64 -1.06,2.26 -0.46,0.62 -1.04,1.1 -1.72,1.43 -0.68,0.33 -1.46,0.5 -2.34,0.5 -0.41,0 -0.78,-0.04 -1.13,-0.12 -0.35,-0.08 -0.68,-0.21 -1.01,-0.39 -0.33,-0.18 -0.66,-0.41 -0.99,-0.68 -0.33,-0.27 -0.68,-0.6 -1.05,-0.99 v 1.56 c 0,0.08 -0.02,0.14 -0.06,0.2 -0.04,0.05 -0.1,0.1 -0.19,0.13 -0.08,0.03 -0.19,0.06 -0.32,0.08 -0.13,0.02 -0.29,0.03 -0.49,0.03 -0.2,0 -0.35,0 -0.48,-0.03 -0.13,-0.02 -0.24,-0.04 -0.33,-0.08 -0.08,-0.03 -0.14,-0.08 -0.17,-0.13 -0.03,-0.06 -0.04,-0.12 -0.04,-0.2 V 98.48 c 0,-0.08 0.02,-0.14 0.05,-0.2 0.03,-0.06 0.09,-0.1 0.18,-0.14 0.09,-0.04 0.21,-0.07 0.36,-0.08 0.15,-0.02 0.34,-0.03 0.57,-0.03 0.23,0 0.43,0 0.58,0.03 0.15,0.02 0.27,0.05 0.35,0.08 0.09,0.04 0.15,0.08 0.19,0.14 0.04,0.06 0.06,0.12 0.06,0.2 v 7.64 c 0.38,-0.39 0.74,-0.72 1.1,-0.98 0.35,-0.26 0.7,-0.48 1.04,-0.64 0.34,-0.16 0.68,-0.28 1.02,-0.36 0.34,-0.07 0.7,-0.11 1.08,-0.11 0.93,0 1.72,0.18 2.37,0.55 0.66,0.37 1.19,0.86 1.6,1.48 0.41,0.62 0.71,1.34 0.9,2.17 0.19,0.83 0.28,1.71 0.28,2.64 m -2.42,0.27 c 0,-0.65 -0.05,-1.28 -0.15,-1.9 -0.1,-0.61 -0.27,-1.16 -0.52,-1.63 -0.25,-0.47 -0.58,-0.85 -0.99,-1.14 -0.41,-0.29 -0.92,-0.43 -1.52,-0.43 -0.31,0 -0.6,0.04 -0.9,0.13 -0.3,0.08 -0.59,0.22 -0.9,0.43 -0.3,0.2 -0.62,0.45 -0.95,0.76 -0.33,0.31 -0.68,0.7 -1.05,1.18 v 5.09 c 0.65,0.78 1.26,1.38 1.85,1.79 0.59,0.41 1.2,0.62 1.84,0.62 0.59,0 1.09,-0.14 1.51,-0.43 0.42,-0.29 0.76,-0.66 1.02,-1.13 0.26,-0.47 0.45,-0.99 0.57,-1.57 0.12,-0.58 0.18,-1.17 0.18,-1.76"
           fill="#25282a"
           stroke-width="0"
           id="path998" /><path
           d="m 510.08,100.35 c 0,0.55 -0.1,0.92 -0.31,1.12 -0.21,0.2 -0.59,0.3 -1.15,0.3 -0.56,0 -0.92,-0.09 -1.13,-0.29 -0.21,-0.19 -0.31,-0.56 -0.31,-1.1 0,-0.54 0.1,-0.92 0.31,-1.12 0.21,-0.2 0.59,-0.3 1.15,-0.3 0.56,0 0.92,0.1 1.13,0.29 0.21,0.19 0.3,0.56 0.3,1.1 m -0.27,17.06 c 0,0.08 -0.02,0.14 -0.06,0.19 -0.04,0.05 -0.1,0.1 -0.18,0.14 -0.09,0.04 -0.21,0.07 -0.35,0.08 -0.15,0.02 -0.35,0.03 -0.58,0.03 -0.23,0 -0.41,0 -0.57,-0.03 -0.15,-0.02 -0.27,-0.05 -0.36,-0.08 -0.09,-0.04 -0.15,-0.08 -0.19,-0.14 -0.03,-0.05 -0.05,-0.12 -0.05,-0.19 v -12.75 c 0,-0.06 0.02,-0.13 0.05,-0.18 0.03,-0.06 0.1,-0.11 0.19,-0.14 0.09,-0.04 0.21,-0.07 0.36,-0.09 0.15,-0.02 0.34,-0.03 0.57,-0.03 0.24,0 0.43,0 0.58,0.03 0.15,0.02 0.27,0.05 0.35,0.09 0.08,0.04 0.14,0.08 0.18,0.14 0.04,0.06 0.06,0.12 0.06,0.18 z"
           fill="#25282a"
           stroke-width="0"
           id="path1000" /><path
           d="m 525.01,110.48 c 0,0.37 -0.09,0.63 -0.28,0.79 -0.18,0.16 -0.39,0.23 -0.63,0.23 h -8.39 c 0,0.71 0.07,1.35 0.21,1.92 0.14,0.56 0.38,1.05 0.71,1.46 0.33,0.41 0.76,0.72 1.3,0.94 0.53,0.22 1.18,0.32 1.95,0.32 0.61,0 1.15,-0.05 1.62,-0.15 0.47,-0.1 0.88,-0.21 1.23,-0.33 0.35,-0.12 0.63,-0.23 0.85,-0.33 0.22,-0.1 0.39,-0.15 0.51,-0.15 0.07,0 0.12,0.02 0.18,0.05 0.05,0.03 0.09,0.08 0.12,0.15 0.03,0.07 0.05,0.16 0.06,0.28 0.02,0.12 0.02,0.26 0.02,0.43 0,0.12 0,0.23 -0.01,0.32 0,0.09 -0.02,0.17 -0.03,0.24 -0.02,0.07 -0.04,0.14 -0.07,0.19 -0.03,0.06 -0.07,0.11 -0.13,0.16 -0.05,0.05 -0.2,0.14 -0.46,0.26 -0.26,0.12 -0.58,0.24 -0.99,0.35 -0.4,0.11 -0.87,0.21 -1.41,0.31 -0.54,0.09 -1.1,0.13 -1.71,0.13 -1.05,0 -1.97,-0.15 -2.75,-0.44 -0.79,-0.29 -1.45,-0.73 -1.99,-1.3 -0.54,-0.58 -0.95,-1.3 -1.22,-2.17 -0.27,-0.87 -0.41,-1.88 -0.41,-3.03 0,-1.15 0.14,-2.08 0.43,-2.95 0.28,-0.87 0.69,-1.61 1.23,-2.22 0.53,-0.61 1.18,-1.08 1.93,-1.4 0.75,-0.32 1.6,-0.49 2.53,-0.49 1,0 1.85,0.16 2.56,0.48 0.7,0.32 1.28,0.75 1.74,1.3 0.45,0.54 0.79,1.18 1,1.91 0.21,0.73 0.32,1.51 0.32,2.35 v 0.42 z m -2.35,-0.69 c 0.03,-1.23 -0.24,-2.19 -0.82,-2.89 -0.58,-0.7 -1.43,-1.05 -2.56,-1.05 -0.58,0 -1.09,0.11 -1.52,0.33 -0.44,0.22 -0.8,0.51 -1.1,0.86 -0.29,0.36 -0.52,0.78 -0.68,1.25 -0.16,0.48 -0.25,0.97 -0.27,1.49 h 6.96 z"
           fill="#25282a"
           stroke-width="0"
           id="path1002" /><path
           d="m 539.55,117.4 c 0,0.08 -0.02,0.14 -0.06,0.19 -0.04,0.05 -0.1,0.1 -0.18,0.14 -0.09,0.04 -0.21,0.07 -0.35,0.08 -0.15,0.02 -0.34,0.03 -0.57,0.03 -0.24,0 -0.43,0 -0.58,-0.03 -0.15,-0.02 -0.27,-0.05 -0.35,-0.08 -0.09,-0.04 -0.15,-0.08 -0.18,-0.14 -0.04,-0.05 -0.06,-0.12 -0.06,-0.19 v -7.47 c 0,-0.73 -0.06,-1.31 -0.17,-1.76 -0.11,-0.44 -0.28,-0.83 -0.49,-1.15 -0.22,-0.32 -0.5,-0.57 -0.85,-0.74 -0.35,-0.17 -0.74,-0.26 -1.2,-0.26 -0.59,0 -1.17,0.21 -1.76,0.62 -0.58,0.41 -1.2,1.03 -1.84,1.83 v 8.91 c 0,0.08 -0.02,0.14 -0.06,0.19 -0.04,0.05 -0.1,0.1 -0.18,0.14 -0.09,0.04 -0.21,0.07 -0.35,0.08 -0.15,0.02 -0.35,0.03 -0.58,0.03 -0.23,0 -0.42,0 -0.57,-0.03 -0.15,-0.02 -0.27,-0.05 -0.36,-0.08 -0.09,-0.04 -0.15,-0.08 -0.19,-0.14 -0.03,-0.05 -0.05,-0.12 -0.05,-0.19 v -12.75 c 0,-0.07 0.01,-0.14 0.04,-0.19 0.02,-0.05 0.08,-0.1 0.17,-0.14 0.08,-0.04 0.19,-0.07 0.33,-0.08 0.13,-0.01 0.31,-0.02 0.52,-0.02 0.21,0 0.38,0 0.52,0.02 0.14,0.01 0.24,0.04 0.32,0.08 0.08,0.04 0.13,0.09 0.16,0.14 0.03,0.05 0.05,0.12 0.05,0.19 v 1.69 c 0.72,-0.8 1.43,-1.39 2.15,-1.76 0.71,-0.37 1.43,-0.56 2.16,-0.56 0.85,0 1.56,0.14 2.14,0.43 0.58,0.29 1.05,0.67 1.41,1.16 0.36,0.48 0.62,1.04 0.77,1.69 0.16,0.65 0.23,1.42 0.23,2.33 v 7.78 z"
           fill="#25282a"
           stroke-width="0"
           id="path1004" /><path
           d="m 550.17,116.47 c 0,0.27 -0.02,0.49 -0.06,0.65 -0.04,0.16 -0.1,0.28 -0.17,0.36 -0.07,0.07 -0.19,0.15 -0.34,0.21 -0.15,0.06 -0.32,0.12 -0.52,0.16 -0.19,0.04 -0.4,0.08 -0.62,0.11 -0.21,0.03 -0.43,0.04 -0.65,0.04 -0.66,0 -1.23,-0.09 -1.7,-0.26 -0.47,-0.18 -0.86,-0.44 -1.16,-0.79 -0.3,-0.35 -0.52,-0.8 -0.66,-1.35 -0.14,-0.54 -0.21,-1.18 -0.21,-1.92 v -7.45 h -1.79 c -0.14,0 -0.25,-0.08 -0.34,-0.23 -0.08,-0.15 -0.13,-0.39 -0.13,-0.74 0,-0.18 0.01,-0.33 0.04,-0.45 0.02,-0.12 0.05,-0.22 0.09,-0.31 0.04,-0.08 0.09,-0.14 0.15,-0.17 0.06,-0.03 0.13,-0.05 0.21,-0.05 h 1.77 v -3.03 c 0,-0.07 0.02,-0.13 0.05,-0.18 0.03,-0.06 0.09,-0.11 0.18,-0.15 0.09,-0.04 0.21,-0.07 0.36,-0.09 0.15,-0.02 0.34,-0.03 0.57,-0.03 0.23,0 0.43,0 0.58,0.03 0.15,0.02 0.27,0.05 0.36,0.09 0.08,0.04 0.14,0.09 0.18,0.15 0.04,0.06 0.06,0.12 0.06,0.18 v 3.03 h 3.27 c 0.08,0 0.14,0.02 0.2,0.05 0.06,0.03 0.11,0.09 0.15,0.17 0.04,0.08 0.07,0.18 0.09,0.31 0.02,0.12 0.03,0.27 0.03,0.45 0,0.34 -0.04,0.59 -0.13,0.74 -0.08,0.15 -0.2,0.23 -0.34,0.23 h -3.27 v 7.11 c 0,0.88 0.13,1.54 0.39,1.99 0.26,0.45 0.72,0.67 1.39,0.67 0.22,0 0.41,-0.02 0.58,-0.06 0.17,-0.04 0.32,-0.09 0.45,-0.13 0.13,-0.05 0.25,-0.09 0.34,-0.13 0.1,-0.04 0.18,-0.07 0.26,-0.07 0.05,0 0.09,0.01 0.13,0.04 0.04,0.02 0.08,0.07 0.1,0.13 0.02,0.07 0.05,0.16 0.06,0.27 0.02,0.11 0.03,0.26 0.03,0.43"
           fill="#25282a"
           stroke-width="0"
           id="path1006" /><path
           d="m 562.51,117.42 c 0,0.11 -0.04,0.2 -0.11,0.25 -0.08,0.06 -0.18,0.1 -0.31,0.13 -0.13,0.03 -0.33,0.04 -0.58,0.04 -0.25,0 -0.44,-0.01 -0.59,-0.04 -0.14,-0.03 -0.25,-0.07 -0.32,-0.13 -0.07,-0.06 -0.1,-0.14 -0.1,-0.25 v -1.28 c -0.56,0.59 -1.18,1.06 -1.86,1.39 -0.68,0.33 -1.41,0.5 -2.17,0.5 -0.67,0 -1.28,-0.09 -1.82,-0.26 -0.55,-0.18 -1.01,-0.43 -1.39,-0.76 -0.38,-0.33 -0.68,-0.74 -0.89,-1.22 -0.21,-0.48 -0.32,-1.03 -0.32,-1.64 0,-0.72 0.15,-1.34 0.44,-1.87 0.29,-0.53 0.71,-0.97 1.26,-1.32 0.55,-0.35 1.22,-0.61 2.01,-0.78 0.79,-0.18 1.68,-0.26 2.67,-0.26 h 1.76 v -0.99 c 0,-0.49 -0.05,-0.93 -0.16,-1.3 -0.1,-0.38 -0.27,-0.69 -0.5,-0.94 -0.23,-0.25 -0.53,-0.44 -0.9,-0.57 -0.37,-0.13 -0.82,-0.19 -1.36,-0.19 -0.58,0 -1.09,0.07 -1.55,0.21 -0.46,0.14 -0.86,0.29 -1.2,0.45 -0.35,0.16 -0.63,0.32 -0.86,0.45 -0.23,0.14 -0.4,0.2 -0.52,0.2 -0.07,0 -0.14,-0.02 -0.2,-0.06 -0.06,-0.04 -0.11,-0.09 -0.15,-0.17 -0.04,-0.07 -0.07,-0.17 -0.09,-0.29 -0.02,-0.12 -0.03,-0.25 -0.03,-0.39 0,-0.24 0.02,-0.43 0.05,-0.56 0.03,-0.14 0.11,-0.27 0.24,-0.39 0.13,-0.12 0.35,-0.27 0.66,-0.43 0.31,-0.17 0.67,-0.32 1.08,-0.45 0.4,-0.14 0.85,-0.25 1.33,-0.34 0.48,-0.09 0.97,-0.13 1.46,-0.13 0.92,0 1.69,0.1 2.34,0.31 0.64,0.21 1.16,0.51 1.56,0.91 0.39,0.4 0.68,0.9 0.86,1.5 0.18,0.6 0.27,1.29 0.27,2.08 v 8.6 z m -2.32,-5.83 h -2 c -0.64,0 -1.2,0.06 -1.67,0.16 -0.47,0.11 -0.86,0.27 -1.18,0.48 -0.32,0.21 -0.54,0.47 -0.69,0.76 -0.15,0.3 -0.22,0.64 -0.22,1.03 0,0.66 0.21,1.19 0.63,1.58 0.42,0.39 1.01,0.59 1.76,0.59 0.62,0 1.18,-0.16 1.71,-0.47 0.53,-0.31 1.07,-0.79 1.65,-1.43 v -2.71 z"
           fill="#25282a"
           stroke-width="0"
           id="path1008" /><path
           d="m 569.14,117.4 c 0,0.08 -0.02,0.14 -0.06,0.19 -0.04,0.05 -0.1,0.1 -0.18,0.14 -0.08,0.04 -0.2,0.07 -0.35,0.08 -0.15,0.02 -0.35,0.03 -0.58,0.03 -0.23,0 -0.42,0 -0.57,-0.03 -0.15,-0.02 -0.27,-0.05 -0.36,-0.08 -0.09,-0.04 -0.15,-0.08 -0.18,-0.14 -0.03,-0.05 -0.05,-0.12 -0.05,-0.19 V 98.48 c 0,-0.08 0.02,-0.14 0.05,-0.2 0.03,-0.06 0.09,-0.1 0.18,-0.14 0.09,-0.04 0.21,-0.07 0.36,-0.08 0.15,-0.02 0.34,-0.03 0.57,-0.03 0.23,0 0.43,0 0.58,0.03 0.15,0.02 0.27,0.05 0.35,0.08 0.08,0.04 0.15,0.08 0.18,0.14 0.04,0.06 0.06,0.12 0.06,0.2 z"
           fill="#25282a"
           stroke-width="0"
           id="path1010" /><path
           d="m 45.443869,105.62 h 15.47 c 0.15,3.04 1.29,5.31 3.41,6.82 2.27,1.52 5.31,2.27 9.1,2.27 2.73,0 5.08,-0.53 7.05,-1.59 1.82,-1.06 2.73,-2.5 2.73,-4.32 0,-2.73 -3.18,-4.78 -9.55,-6.14 -2.73,-0.45 -4.78,-0.91 -6.14,-1.36 -8.04,-1.97 -13.42,-4.32 -16.15,-7.05 -3.03,-2.73 -4.55,-6.37 -4.55,-10.92 0,-5.76 2.2,-10.54 6.59,-14.33 4.55,-3.49 10.46,-5.23 17.74,-5.23 7.88,0 14.17,1.74 18.880005,5.23 4.400016,3.79 6.750024,8.72 7.050024,14.78 h -9.780029 c -2.88,0 -5.08,-1.29 -6.6,-3.87 -0.61,-0.6 -1.22,-1.21 -1.82,-1.82 -1.82,-1.37 -4.32,-2.05 -7.5,-2.05 -3.18,0 -5.31,0.46 -6.82,1.37 -1.36,0.91 -2.05,2.27 -2.05,4.09 0,2.43 3.94,4.47 11.83,6.14 0.91,0.31 1.71,0.53 2.39,0.68 0.68,0.15 1.33,0.23 1.93,0.23 7.73,1.97 13.110013,4.25 16.150021,6.82 2.880012,2.73 4.320006,6.37 4.320006,10.92 0,6.67 -2.429998,11.83 -7.280014,15.47 -4.550013,3.34 -11.370013,5 -20.470013,5 -9.1,0 -15.09,-1.74 -19.33,-5.23 -4.4,-3.48 -6.6,-8.56 -6.6,-15.24 v -0.68 z"
           fill="#1386c4"
           stroke-width="0"
           id="path1012" /><path
           d="m 103.0039,48.55 h 8.18999 c 2.12,0 3.94,0.76 5.46,2.27 1.51,1.52 2.27,3.34 2.27,5.46 v 4.78 H 103.0039 Z m 0,17.74 h 8.18999 c 2.12,0 3.94,0.76 5.46,2.27 1.51,1.52 2.27,3.34 2.27,5.46 v 52.76 H 103.0039 v -60.5 z"
           fill="#1386c4"
           stroke-width="0"
           id="path1014" /><path
           d="m 175.83389,126.78 h -7.96 c -2.27,0 -4.13,-0.72 -5.57,-2.16 -1.44,-1.44 -2.16,-3.3 -2.16,-5.57 V 88.12 c 0,-3.64 -1.1,-6.29 -3.3,-7.96 -2.2,-1.67 -4.66,-2.5 -7.39,-2.5 -2.73,0 -5.16,0.84 -7.28,2.5 -2.13,1.67 -3.18,4.32 -3.18,7.96 v 38.66 h -15.92 V 91.3 c 0,-10.31 2.69,-17.21 8.07,-20.7 5.38,-3.49 11.33,-5.38 17.85,-5.69 6.67,0 12.81,1.74 18.42,5.23 5.61,3.49 8.41,10.54 8.41,21.15 v 35.48 z"
           fill="#1386c4"
           stroke-width="0"
           id="path1016" /><path
           d="m 179.96389,47.69 h 8.19 c 2.12,0 3.94,0.76 5.46,2.27 1.51,1.52 2.27,3.34 2.27,5.46 v 4.78 h -15.92 z m -0.25,18.6 h 8.19 c 2.12,0 3.94,0.76 5.46,2.27 1.51,1.52 2.27,3.34 2.27,5.46 v 52.76 h -15.92 v -60.5 z"
           fill="#77b22e"
           stroke-width="0"
           id="path1018" /><path
           d="m 239.63389,123.13 c -3.18,1.67 -6.56,2.69 -10.12,3.07 -3.57,0.38 -6.71,0.57 -9.44,0.57 -5.46,0 -10.23,-1.48 -14.33,-4.43 -4.09,-2.96 -6.14,-7.85 -6.14,-14.67 0,-6.37 1.85,-10.92 5.57,-13.65 3.71,-2.73 8.45,-4.55 14.21,-5.46 0.76,0 1.67,-0.11 2.73,-0.34 1.06,-0.23 2.27,-0.42 3.64,-0.57 6.67,-0.91 10.01,-2.88 10.01,-5.91 0,-2.27 -1.18,-3.75 -3.52,-4.43 -2.35,-0.68 -4.51,-1.02 -6.48,-1.02 -2.13,0 -4.02,0.31 -5.69,0.91 -1.67,0.61 -2.88,1.74 -3.64,3.41 h -15.24 c 0.6,-4.7 2.73,-8.56 6.37,-11.6 4.09,-3.49 9.93,-5.23 17.51,-5.23 8.49,0 14.86,1.44 19.1,4.32 4.4,3.03 6.6,7.28 6.6,12.74 v 20.7 c 0,6.07 -1.1,10.8 -3.3,14.21 -2.2,3.41 -4.82,5.88 -7.85,7.39 m -3.64,-28.55 c -2.13,1.06 -5.08,2.05 -8.87,2.96 l -5.23,1.14 c -2.73,0.76 -4.7,1.74 -5.91,2.96 -1.06,1.67 -1.59,3.34 -1.59,5 0,2.27 0.68,4.09 2.05,5.46 1.37,1.22 3.33,1.82 5.91,1.82 4.24,0 7.58,-1.21 10.01,-3.64 2.42,-2.42 3.64,-5.76 3.64,-10.01 v -5.69 z"
           fill="#1386c4"
           stroke-width="0"
           id="path1020" /><path
           d="m 235.97389,95.42 v 24 c 0,2.15 0.68,3.9 2.04,5.26 1.36,1.36 3.11,2.04 5.26,2.04 h 7.51 V 95.43 h -14.8 z"
           fill="#1386c4"
           stroke-width="0"
           id="path1022" /><path
           d="m 201.38389,54.37 c -1.02,0.42 -2.19,-0.07 -2.61,-1.08 -0.42,-1.02 0.06,-2.18 1.08,-2.6 1.02,-0.42 2.19,0.06 2.61,1.08 0.42,1.02 -0.06,2.19 -1.08,2.61 z"
           fill="#7fb41e"
           stroke-width="0"
           id="path1024" /><path
           d="m 199.19389,48.37 c -1.25,0.51 -2.67,-0.08 -3.19,-1.33 -0.51,-1.25 0.08,-2.67 1.33,-3.19 1.25,-0.51 2.68,0.08 3.19,1.32 0.51,1.25 -0.08,2.68 -1.33,3.19 z"
           fill="#7fb41e"
           stroke-width="0"
           id="path1026" /><path
           d="m 185.30389,43.52 c -1.67,0.69 -3.59,-0.11 -4.28,-1.78 -0.69,-1.67 0.11,-3.59 1.78,-4.28 1.67,-0.69 3.59,0.11 4.28,1.78 0.69,1.67 -0.11,3.59 -1.78,4.28 z"
           fill="#ecb229"
           stroke-width="0"
           id="path1028" /><path
           d="m 202.16389,58.34 c -0.01,0.89 -0.75,1.61 -1.64,1.6 -0.89,-0.01 -1.61,-0.74 -1.6,-1.64 0.01,-0.89 0.74,-1.61 1.64,-1.6 0.89,0.01 1.61,0.75 1.6,1.64 z"
           fill="#7fb41e"
           stroke-width="0"
           id="path1030" /><path
           d="m 193.25389,44.46 c -1.47,0.61 -3.16,-0.1 -3.77,-1.57 -0.61,-1.47 0.09,-3.16 1.57,-3.77 1.47,-0.61 3.16,0.09 3.77,1.57 0.61,1.47 -0.09,3.16 -1.57,3.77 z"
           fill="#7fb41e"
           stroke-width="0"
           id="path1032" /><line
           x1="276.3179"
           y1="54.799999"
           x2="276.3179"
           y2="126.78"
           fill="none"
           stroke="#25282a"
           stroke-miterlimit="10"
           stroke-width="1.48"
           id="line1034" /></g></g></g></svg>
