<?xml version="1.0" encoding="utf-8"?>
<!-- Generator: Adobe Illustrator 28.0.0, SVG Export Plug-In . SVG Version: 6.00 Build 0)  -->
<svg version="1.1" id="Capa_1" xmlns="http://www.w3.org/2000/svg" xmlns:xlink="http://www.w3.org/1999/xlink" x="0px" y="0px"
	 viewBox="0 0 24 24" style="enable-background:new 0 0 24 24;" xml:space="preserve">
<style type="text/css">
	.st0{fill:#FFFFFF;}
</style>
<g>
	<path class="st0" d="M0.6,11.2c0.1-0.4,0.1-0.8,0.2-1.2c0.8-4.5,4.4-8.2,8.8-9.1c6-1.3,11.9,2.4,13.4,8.2
		c1.7,6.4-2.4,12.9-8.9,14.1c-0.5,0.1-1,0.1-1.5,0.2h-1.2c-0.1,0-0.1,0-0.2,0c-0.5-0.1-1.1-0.1-1.6-0.2c-4.5-1-8-4.6-8.8-9.2
		c-0.1-0.4-0.1-0.8-0.2-1.2C0.6,12.2,0.6,11.7,0.6,11.2L0.6,11.2z M12,1.5C6.2,1.5,1.5,6.2,1.5,12c0,5.8,4.7,10.5,10.4,10.5
		c5.8,0,10.5-4.7,10.5-10.5S17.8,1.5,12,1.5L12,1.5z"/>
	<path class="st0" d="M10.3,13.1c-2,0-4,0-6,0c-0.3,0-0.6-0.2-0.6-0.5c0-0.3,0.1-0.6,0.4-0.7c0.1,0,0.3,0,0.4,0c0.1,0,0.2,0,0.3,0
		c3.8,0,7.5,0,11.3,0c0.9,0,1.7-0.6,1.9-1.5c0.2-1-0.4-1.9-1.4-2.2c-1.2-0.3-2.3,0.6-2.3,1.8c0,0.4-0.3,0.6-0.6,0.6
		c-0.3,0-0.6-0.3-0.6-0.6c0.1-1.1,0.5-2,1.5-2.6C16.1,6.5,18,7,18.8,8.6c0.3,0.5,0.4,1.1,0.4,1.8c-0.1,1.5-1.2,2.5-2.5,2.7
		c-0.2,0-0.3,0-0.5,0C14.2,13.1,12.3,13.1,10.3,13.1z"/>
	<path class="st0" d="M7.2,11.1c-1,0-2,0-2.9,0c-0.1,0-0.2,0-0.3-0.1c-0.2-0.1-0.3-0.3-0.2-0.5c0-0.2,0.2-0.4,0.4-0.4
		c0.1,0,0.2,0,0.3,0c1.5,0,2.9,0,4.4,0c0.4,0,0.9,0,1.3,0c0.5,0,0.9-0.2,1.2-0.6c0.6-0.9,0.1-2.1-0.9-2.2C9.6,7.1,8.9,7.6,8.8,8.4
		c0,0.1,0,0.2,0,0.3c0,0.2-0.2,0.4-0.5,0.4S7.8,9,7.7,8.7c0-0.3,0-0.6,0.1-0.9c0.3-0.7,0.8-1.2,1.5-1.5c0.6-0.2,1.1-0.2,1.7,0
		c0.9,0.3,1.4,1.2,1.5,2c0.1,1.2-0.6,2.3-1.8,2.6C10.6,11,10.4,11,10.1,11C9.2,11,8.2,11,7.2,11.1L7.2,11.1z"/>
	<path class="st0" d="M10.6,13.7c0.9,0,1.9,0,2.8,0c0.6,0,1.2,0.2,1.6,0.6c0.6,0.6,0.9,1.3,0.8,2.2c-0.1,1-0.9,1.8-1.9,2
		c-1.3,0.3-2.7-0.6-2.9-2c0-0.2,0-0.4,0-0.5c0-0.2,0.3-0.4,0.5-0.4c0.3,0,0.5,0.2,0.5,0.5c0,0.7,0.4,1.2,1.1,1.4
		c0.8,0.2,1.6-0.4,1.7-1.2c0.1-0.9-0.5-1.6-1.4-1.6c-1.9,0-3.8,0-5.7,0c-0.1,0-0.2,0-0.2,0c-0.3,0-0.4-0.2-0.4-0.5s0.2-0.5,0.4-0.5
		c0.1,0,0.1,0,0.2,0C8.6,13.7,9.6,13.7,10.6,13.7L10.6,13.7z"/>
</g>
</svg>
