<?xml version="1.0" encoding="UTF-8"?><svg id="Capa_1" xmlns="http://www.w3.org/2000/svg" viewBox="0 0 24 24"><path d="m.59,11.24c.06-.42.11-.84.18-1.25C1.53,5.48,5.12,1.8,9.6.84c5.98-1.27,11.86,2.36,13.42,8.21,1.71,6.38-2.36,12.89-8.86,14.14-.51.1-1.03.15-1.54.22h-1.25c-.07-.01-.14-.03-.22-.04-.54-.08-1.08-.12-1.6-.24-4.54-1-8-4.62-8.79-9.17-.07-.4-.12-.8-.17-1.21,0-.51,0-1.01,0-1.52ZM11.99,1.53c-5.76,0-10.46,4.7-10.46,10.46,0,5.77,4.69,10.48,10.45,10.48,5.8,0,10.5-4.69,10.5-10.47,0-5.78-4.7-10.47-10.48-10.47Z" fill="#fff" stroke-width="0"/><path d="m11.79,15.26c-1.51,0-3.02,0-4.53,0-1.17,0-2.08-.48-2.68-1.48-.85-1.41-.43-3.14.97-4.04.21-.14.46-.23.69-.33.07-.03.1-.06.11-.14.05-.54.25-1.01.63-1.39.54-.55,1.2-.78,1.97-.68.07,0,.12,0,.16-.07.6-.9,1.4-1.52,2.47-1.77,2.49-.59,4.47,1.11,4.89,3.08.02.11.06.14.17.15,1.58.06,2.9,1.2,3.17,2.74.29,1.66-.71,3.28-2.33,3.77-.37.11-.75.16-1.14.16-.76,0-1.52,0-2.28,0-.76,0-1.51,0-2.27,0h0Zm.06-.98h0c1.56,0,3.13,0,4.69,0,.16,0,.33,0,.49-.04,1.39-.27,2.12-1.62,1.84-2.87-.27-1.18-1.31-1.92-2.54-1.83-.11,0-.21.01-.32,0-.2,0-.29-.09-.34-.28-.03-.12-.04-.24-.06-.35-.19-1.55-1.45-2.7-3-2.75-.84-.03-1.55.26-2.16.81-.32.28-.56.62-.76.99-.15.29-.32.34-.62.22-.1-.04-.21-.07-.32-.08-.68-.06-1.32.41-1.46,1.08-.04.19-.03.39-.03.59,0,.25-.09.37-.33.44-.09.03-.18.04-.28.06-.82.18-1.47.9-1.57,1.72-.11.96.4,1.81,1.31,2.17.3.12.6.13.91.13,1.52,0,3.03,0,4.55,0Z" fill="#fff" stroke-width="0"/><rect x="8.19" y="16.33" width="1.38" height=".63" rx=".19" ry=".19" transform="translate(-8.79 10.03) rotate(-41.41)" fill="#fff" stroke-width="0"/><rect x="11.46" y="16.33" width="1.38" height=".63" rx=".19" ry=".19" transform="translate(-7.97 12.2) rotate(-41.41)" fill="#fff" stroke-width="0"/><rect x="14.43" y="16.33" width="1.38" height=".63" rx=".19" ry=".19" transform="translate(-7.23 14.16) rotate(-41.41)" fill="#fff" stroke-width="0"/><rect x="8.35" y="17.87" width="1.38" height=".63" rx=".19" ry=".19" transform="translate(-9.77 10.53) rotate(-41.41)" fill="#fff" stroke-width="0"/><rect x="11.46" y="17.87" width="1.38" height=".63" rx=".19" ry=".19" transform="translate(-8.99 12.58) rotate(-41.41)" fill="#fff" stroke-width="0"/><rect x="14.43" y="17.87" width="1.38" height=".63" rx=".19" ry=".19" transform="translate(-8.25 14.55) rotate(-41.41)" fill="#fff" stroke-width="0"/><rect x="9.69" y="16.69" width="1.38" height=".63" rx=".19" ry=".19" transform="translate(-8.66 11.12) rotate(-41.41)" fill="#fff" stroke-width="0"/><rect x="12.75" y="16.69" width="1.38" height=".63" rx=".19" ry=".19" transform="translate(-7.89 13.14) rotate(-41.41)" fill="#fff" stroke-width="0"/><path d="m.59,11.24c.06-.42.11-.84.18-1.25C1.53,5.48,5.12,1.8,9.6.84c5.98-1.27,11.86,2.36,13.42,8.21,1.71,6.38-2.36,12.89-8.86,14.14-.51.1-1.03.15-1.54.22h-1.25c-.07-.01-.14-.03-.22-.04-.54-.08-1.08-.12-1.6-.24-4.54-1-8-4.62-8.79-9.17-.07-.4-.12-.8-.17-1.21,0-.51,0-1.01,0-1.52ZM11.99,1.53c-5.76,0-10.46,4.7-10.46,10.46,0,5.77,4.69,10.48,10.45,10.48,5.8,0,10.5-4.69,10.5-10.47,0-5.78-4.7-10.47-10.48-10.47Z" fill="#fff" stroke-width="0"/><path d="m11.79,15.26c-1.51,0-3.02,0-4.53,0-1.17,0-2.08-.48-2.68-1.48-.85-1.41-.43-3.14.97-4.04.21-.14.46-.23.69-.33.07-.03.1-.06.11-.14.05-.54.25-1.01.63-1.39.54-.55,1.2-.78,1.97-.68.07,0,.12,0,.16-.07.6-.9,1.4-1.52,2.47-1.77,2.49-.59,4.47,1.11,4.89,3.08.02.11.06.14.17.15,1.58.06,2.9,1.2,3.17,2.74.29,1.66-.71,3.28-2.33,3.77-.37.11-.75.16-1.14.16-.76,0-1.52,0-2.28,0-.76,0-1.51,0-2.27,0h0Zm.06-.98h0c1.56,0,3.13,0,4.69,0,.16,0,.33,0,.49-.04,1.39-.27,2.12-1.62,1.84-2.87-.27-1.18-1.31-1.92-2.54-1.83-.11,0-.21.01-.32,0-.2,0-.29-.09-.34-.28-.03-.12-.04-.24-.06-.35-.19-1.55-1.45-2.7-3-2.75-.84-.03-1.55.26-2.16.81-.32.28-.56.62-.76.99-.15.29-.32.34-.62.22-.1-.04-.21-.07-.32-.08-.68-.06-1.32.41-1.46,1.08-.04.19-.03.39-.03.59,0,.25-.09.37-.33.44-.09.03-.18.04-.28.06-.82.18-1.47.9-1.57,1.72-.11.96.4,1.81,1.31,2.17.3.12.6.13.91.13,1.52,0,3.03,0,4.55,0Z" fill="#fff" stroke-width="0"/><rect x="8.19" y="16.33" width="1.38" height=".63" rx=".19" ry=".19" transform="translate(-8.79 10.03) rotate(-41.41)" fill="#fff" stroke-width="0"/><rect x="11.46" y="16.33" width="1.38" height=".63" rx=".19" ry=".19" transform="translate(-7.97 12.2) rotate(-41.41)" fill="#fff" stroke-width="0"/><rect x="14.43" y="16.33" width="1.38" height=".63" rx=".19" ry=".19" transform="translate(-7.23 14.16) rotate(-41.41)" fill="#fff" stroke-width="0"/><rect x="8.35" y="17.87" width="1.38" height=".63" rx=".19" ry=".19" transform="translate(-9.77 10.53) rotate(-41.41)" fill="#fff" stroke-width="0"/><rect x="11.46" y="17.87" width="1.38" height=".63" rx=".19" ry=".19" transform="translate(-8.99 12.58) rotate(-41.41)" fill="#fff" stroke-width="0"/><rect x="14.43" y="17.87" width="1.38" height=".63" rx=".19" ry=".19" transform="translate(-8.25 14.55) rotate(-41.41)" fill="#fff" stroke-width="0"/><rect x="9.69" y="16.69" width="1.38" height=".63" rx=".19" ry=".19" transform="translate(-8.66 11.12) rotate(-41.41)" fill="#fff" stroke-width="0"/><rect x="12.75" y="16.69" width="1.38" height=".63" rx=".19" ry=".19" transform="translate(-7.89 13.14) rotate(-41.41)" fill="#fff" stroke-width="0"/></svg>