<?xml version="1.0" encoding="UTF-8"?><svg id="Capa_1" xmlns="http://www.w3.org/2000/svg" viewBox="0 0 24 24"><path d="m.59,11.24c.06-.42.11-.84.18-1.25C1.53,5.48,5.12,1.79,9.6.84c5.98-1.27,11.86,2.36,13.42,8.21,1.71,6.38-2.36,12.89-8.86,14.14-.51.1-1.03.15-1.54.22h-1.25c-.07-.01-.14-.03-.22-.04-.54-.08-1.08-.12-1.6-.24-4.54-1-8-4.62-8.79-9.17-.07-.4-.12-.8-.17-1.21,0-.51,0-1.01,0-1.52ZM11.99,1.53c-5.76,0-10.46,4.7-10.46,10.46,0,5.77,4.69,10.48,10.45,10.48,5.8,0,10.5-4.69,10.5-10.48,0-5.78-4.7-10.47-10.48-10.47Z" fill="#fff" stroke-width="0"/><path d="m12.09,13.04v-.79c-.26-.04-.53-.08-.79-.13-.83-.18-1.6-.5-2.21-1.12-.59-.59-.9-1.33-1.07-2.13-.07-.35-.1-.7-.13-1.06-.02-.19.1-.3.29-.29,1.11.06,2.14.33,3.02,1.05.37.3.64.69.88,1.15,0-.08.01-.12.01-.17,0-.5,0-1,0-1.5,0-.1-.04-.17-.11-.24-.22-.23-.46-.45-.64-.7-.41-.58-.41-1.19-.02-1.8.22-.35.52-.64.85-.88.1-.08.21-.1.32-.02.47.33.86.73,1.07,1.28.17.44.11.87-.11,1.28-.19.34-.45.62-.74.87-.05.05-.09.13-.09.2,0,.38,0,.77,0,1.16.02-.02.04-.02.05-.03.35-.68.96-.98,1.68-1.08.29-.04.58-.03.87-.03.19,0,.27.09.28.28.04.59-.02,1.16-.28,1.7-.32.66-.88.97-1.57,1.09-.33.06-.67.06-1.02.09v1.82c.32,0,.64,0,.96,0,.04,0,.08-.05.11-.09.23-.26.45-.53.68-.78.33-.34.7-.63,1.19-.68.2-.02.4,0,.6.05.1.02.16.01.23-.05.35-.32.74-.54,1.23-.54.22,0,.43.05.6.18.08.06.14.06.23.02.31-.17.64-.25,1-.16.44.1.77.5.78.94,0,.11-.06.24-.13.32-.75.83-1.5,1.66-2.25,2.49-.04.04-.07.08-.08.09.12.23.27.44.33.66.14.49-.24.97-.76.98-.26,0-.52,0-.77,0-.09,0-.14.03-.2.11-.49.73-1.12,1.28-1.96,1.58-.56.2-1.13.16-1.71.1-1.05-.11-2.04-.44-3-.85-.78-.33-1.58-.59-2.43-.66-.5-.04-.99-.02-1.45.18-.36.15-.66.37-.87.7-.07.11-.17.18-.3.14-.14-.04-.2-.14-.2-.29,0-1.03,0-2.06,0-3.09,0-.19.1-.29.28-.29,1.12-.02,2.18-.29,3.18-.78.41-.2.85-.28,1.31-.27.89,0,1.78,0,2.66,0h.18Zm3.72,3.43s-.04-.02-.06-.02c-.71,0-1.43-.01-2.14,0-.31,0-.6.1-.78.4-.08.13-.23.15-.35.07-.12-.07-.17-.22-.08-.34.11-.15.23-.3.38-.4.28-.2.62-.26.97-.26.97,0,1.94,0,2.91,0,.22,0,.45,0,.67,0,.22,0,.36-.2.26-.4-.08-.15-.2-.29-.34-.39-.28-.21-.62-.27-.96-.27-1.12,0-2.25,0-3.37,0-.08,0-.15,0-.23-.02-.55-.08-1.04-.32-1.49-.64-1-.7-2.07-.9-3.22-.36-.7.33-1.43.56-2.19.66-.26.04-.52.06-.78.09v2.19c.05-.04.09-.06.12-.08.04-.03.08-.06.12-.08.73-.45,1.53-.5,2.35-.39.83.11,1.62.36,2.39.7,1,.43,2.02.74,3.11.82.63.05,1.21-.04,1.75-.39.37-.24.7-.53.97-.9Zm-7.39-8.41c.1.97.34,1.87,1.05,2.57.71.71,1.62.96,2.6,1.07-.19-2.25-1.39-3.45-3.65-3.64Zm7.72,6.24c.34.07.68.13,1.01.21.11.03.16.02.24-.06.73-.81,1.46-1.61,2.2-2.42.15-.16.16-.27,0-.41-.1-.08-.23-.14-.36-.16-.23-.03-.45.05-.63.19-.21.17-.42.35-.6.55-.56.62-1.1,1.25-1.65,1.87-.07.08-.14.16-.19.22Zm-4.94-.73s-.01.02-.02.03c.29.18.56.38.86.52.25.12.54.21.82.22.8.03,1.61.01,2.42,0,.05,0,.11,0,.14-.03.22-.24.44-.48.67-.75h-4.89Zm1.69-2.91c1.38.04,2.15-.62,2.07-2.08-1.4-.07-2.13.66-2.07,2.08Zm-.26-3.48c.75-.69.62-1.68-.32-2.24-.18.21-.39.42-.55.66-.35.53-.21,1.18.31,1.57.07-.36.13-.45.29-.44.16,0,.22.1.26.45Zm5.27,4.33c-.1-.02-.18-.04-.25-.05-.35-.01-.64.15-.88.38-.28.28-.53.58-.8.87-.09.1-.17.2-.28.33.09,0,.13,0,.18,0,.23,0,.49.06.68-.03.19-.08.31-.31.46-.48.29-.33.58-.67.89-1.03Zm-3.6,1.52q.66.04,1.06-.41c.06-.07.12-.14.18-.21.11-.13.22-.26.33-.39-.76-.03-1.13.52-1.58,1.02Z" fill="#fff" stroke-width="0"/><path d="m11.04,4.35c0,.21-.23.34-.39.23-.13-.1-.26-.22-.35-.36-.04-.06-.02-.21.03-.28.05-.06.22-.12.26-.08.16.12.3.28.44.43.02.02.01.05.01.06Z" fill="#fff" stroke-width="0"/><path d="m14.49,4.07c-.04.09-.06.15-.1.2-.09.1-.18.19-.28.28-.11.1-.25.09-.35,0-.1-.1-.11-.24-.01-.35.09-.1.18-.21.29-.28.07-.05.19-.06.27-.04.08.03.12.13.19.2Z" fill="#fff" stroke-width="0"/><path d="m12.1,3.43s0-.08,0-.12c.01-.16.11-.27.25-.27.15,0,.26.11.27.27,0,.08,0,.15,0,.23,0,.17-.11.28-.26.28-.15,0-.25-.11-.26-.28,0-.04,0-.08,0-.12Z" fill="#fff" stroke-width="0"/><path d="m9.87,5.68s.09,0,.13,0c.15.01.25.12.25.25,0,.14-.1.25-.26.26-.08,0-.16,0-.25,0-.17,0-.28-.12-.28-.26,0-.15.11-.25.28-.26.04,0,.08,0,.12,0h0Z" fill="#fff" stroke-width="0"/><path d="m14.85,6.2s-.1,0-.15,0c-.14-.02-.23-.11-.23-.26,0-.15.09-.24.23-.26.09-.01.19,0,.28,0,.17,0,.28.12.27.27,0,.14-.11.24-.27.25-.04,0-.09,0-.13,0,0,0,0,0,0,0Z" fill="#fff" stroke-width="0"/></svg>