<?xml version="1.0" encoding="utf-8"?>
<!-- Generator: Adobe Illustrator 28.0.0, SVG Export Plug-In . SVG Version: 6.00 Build 0)  -->
<svg version="1.1" id="Capa_1" xmlns="http://www.w3.org/2000/svg" xmlns:xlink="http://www.w3.org/1999/xlink" x="0px" y="0px"
	 viewBox="0 0 24 24" style="enable-background:new 0 0 24 24;" xml:space="preserve">
<style type="text/css">
	.st0{fill:#FFFFFF;}
</style>
<g>
	<path class="st0" d="M0.6,11.2c0.1-0.4,0.1-0.8,0.2-1.2c0.8-4.5,4.3-8.2,8.8-9.1c6-1.3,11.9,2.4,13.4,8.2
		c1.7,6.4-2.4,12.9-8.9,14.1c-0.5,0.1-1,0.1-1.5,0.2h-1.2c-0.1,0-0.1,0-0.2,0c-0.5-0.1-1.1-0.1-1.6-0.2c-4.5-1-8-4.6-8.8-9.2
		c-0.1-0.4-0.1-0.8-0.2-1.2C0.6,12.2,0.6,11.7,0.6,11.2L0.6,11.2z M12,1.5C6.2,1.5,1.5,6.2,1.5,12c0,5.8,4.7,10.5,10.4,10.5
		c5.8,0,10.5-4.7,10.5-10.5S17.8,1.5,12,1.5L12,1.5z"/>
	<path class="st0" d="M9.9,4.9c0,0.5,0,1,0,1.5c0,0.3,0.1,0.4,0.4,0.4c1.2,0,2.3,0,3.5,0c0.2,0,0.3,0,0.3-0.3c0-0.5,0-1,0-1.5
		c0-0.1,0-0.1,0-0.2c-0.1,0-0.1,0-0.2,0c-0.7,0-1.4,0-2.1,0c-0.1,0-0.1,0-0.2,0c-0.1,0-0.2-0.1-0.2-0.3c0-0.1,0.1-0.2,0.2-0.2
		c0.1,0,0.1,0,0.2,0c0.9,0,1.8,0,2.7,0c0.5,0,0.7,0.2,0.9,0.6c0.3,0.9,0.7,1.8,1,2.7c0,0.1,0.1,0.1,0.2,0.2c0,0,0.1,0,0.1,0.1
		c0.3,0.3,0.2,1,0,1.3c0,0.1-0.1,0.1-0.1,0.2c-0.1,1.6-0.3,3.2-0.4,4.8c-0.1,1.5-0.3,3-0.4,4.5c-0.1,0.6-0.4,1-1,1
		c-1.7,0-3.5,0-5.2,0c-0.6,0-1-0.3-1-0.9c-0.1-1.4-0.2-2.8-0.4-4.2c-0.1-1.4-0.2-2.8-0.4-4.2c0-0.3-0.1-0.6-0.1-0.9
		c0-0.1-0.1-0.1-0.1-0.2c0,0,0,0,0,0C7.1,9,7.1,8.1,7.5,7.9c0.1,0,0.1-0.1,0.1-0.2C8,6.8,8.3,5.9,8.6,5C8.8,4.5,9,4.4,9.5,4.4
		c0.3,0,0.6,0,0.9,0c0.2,0,0.3,0.1,0.3,0.3s-0.1,0.3-0.3,0.3C10.3,4.9,10.1,4.9,9.9,4.9L9.9,4.9z M8.1,9.4c0,0.4,0.1,0.7,0.1,1.1
		c0.1,1.3,0.2,2.6,0.3,3.8c0.1,1.4,0.2,2.9,0.4,4.3c0,0.4,0.1,0.5,0.6,0.5c1.7,0,3.4,0,5.1,0c0.4,0,0.6-0.1,0.6-0.5
		c0.1-1.3,0.2-2.5,0.3-3.8c0.1-1.5,0.3-3.1,0.4-4.6c0-0.3,0-0.5,0.1-0.8L8.1,9.4L8.1,9.4z M14.7,4.9C14.7,4.9,14.6,4.9,14.7,4.9
		c-0.1,0.6-0.1,1.2-0.1,1.7c0,0.4-0.3,0.7-0.7,0.7c-1.3,0-2.5,0-3.8,0C9.7,7.3,9.4,7,9.4,6.6c0-0.5,0-1,0-1.5c0-0.1,0-0.1,0-0.2
		l-0.1,0C9.3,4.9,9.2,5,9.2,5.1c-0.3,0.8-0.6,1.7-1,2.5c0,0,0,0.1,0,0.1h7.7c-0.4-0.9-0.7-1.8-1-2.7C14.8,5,14.7,4.9,14.7,4.9
		L14.7,4.9z M16.2,8.8c0-0.1,0-0.2,0-0.3c0-0.2-0.1-0.2-0.2-0.2c-2.7,0-5.4,0-8,0c-0.1,0-0.1,0-0.1,0c0,0-0.1,0.1-0.1,0.1
		c0,0.1,0,0.3,0,0.4L16.2,8.8L16.2,8.8z"/>
	<path class="st0" d="M14.1,17.1H9.9c-0.2,0-0.3-0.1-0.3-0.3v-5.4c0-0.2,0.1-0.3,0.3-0.3h4.2c0.2,0,0.3,0.1,0.3,0.3v5.4
		C14.4,17,14.2,17.1,14.1,17.1z M9.9,11.2c-0.1,0-0.2,0.1-0.2,0.2v5.4c0,0.1,0.1,0.2,0.2,0.2h4.2c0.1,0,0.2-0.1,0.2-0.2v-5.4
		c0-0.1-0.1-0.2-0.2-0.2C14.1,11.2,9.9,11.2,9.9,11.2z"/>
</g>
</svg>
