<?xml version="1.0" encoding="UTF-8"?><svg id="Capa_1" xmlns="http://www.w3.org/2000/svg" viewBox="0 0 24 24"><path d="m.68,11.25c.06-.41.11-.83.18-1.24C1.62,5.53,5.18,1.88,9.62.94c5.93-1.26,11.76,2.34,13.31,8.14,1.69,6.33-2.34,12.78-8.78,14.02-.5.1-1.02.15-1.53.22h-1.24c-.07-.01-.14-.03-.22-.04-.53-.08-1.07-.12-1.59-.23-4.5-.99-7.94-4.58-8.72-9.1-.07-.4-.12-.8-.17-1.2,0-.5,0-1,0-1.5ZM11.99,1.61c-5.72,0-10.37,4.66-10.38,10.38,0,5.72,4.65,10.39,10.36,10.39,5.75,0,10.41-4.65,10.41-10.39,0-5.73-4.66-10.38-10.39-10.38Z" fill="#fff" stroke-width="0"/><path d="m11.06,10.93c-.33-.54-.69-1.04-1.17-1.44-.54-.45-1.11-.87-1.67-1.3-.04-.03-.09-.06-.14-.09-.11-.08-.13-.2-.06-.3.07-.09.19-.11.29-.04.26.18.52.36.78.54.77.56,1.49,1.18,2.04,1.97.07.1.14.21.23.33.2-.27.33-.55.38-.87.17-.96-.15-1.75-.86-2.38-.71-.62-1.55-.96-2.46-1.17-.18-.04-.27-.2-.17-.32.05-.06.16-.1.22-.09,1.09.25,2.1.67,2.9,1.48,1,1.01,1.12,2.57.27,3.67-.02.03-.04.1-.02.13.37.69.62,1.43.77,2.2,0,.01.01.02.02.05.05-.12.08-.23.13-.34.22-.55.5-1.07.87-1.54.04-.05.07-.09.03-.17-.54-1.03-.21-2.29.77-3,.62-.45,1.33-.7,2.07-.83.8-.14,1.6-.15,2.4-.05.38.04.65.39.56.76-.28,1.14-.74,2.21-1.52,3.11-.13.16-.28.3-.44.44-.1.1-.22.09-.31,0-.08-.09-.07-.21.03-.31.93-.85,1.43-1.94,1.77-3.13.11-.39-.01-.46-.32-.48-1.21-.1-2.39-.02-3.51.52-.55.27-1,.64-1.23,1.22-.19.49-.19.98.07,1.51.02-.04.03-.09.06-.12.67-.71,1.45-1.26,2.33-1.68.05-.02.11-.06.15-.05.07.02.17.07.19.13.02.07-.02.16-.06.23-.02.04-.09.06-.14.08-.89.43-1.67,1-2.35,1.76.13.11.24.24.38.33.55.37,1.15.43,1.77.22.22-.08.32-.05.37.08.05.13-.01.23-.23.3-.94.31-1.78.15-2.5-.56-.02-.02-.03-.03-.06-.06-.75,1-1.15,2.12-1.2,3.36.21.05.42.09.62.16.44.15.81.42,1.12.77.05.06.13.11.2.13.54.15.96.47,1.27.93.06.08.11.11.21.11.51.01.94.22,1.28.61.03.04.07.08.08.12.04.15.14.18.28.17.19-.01.38,0,.56,0,.14,0,.23.08.23.2,0,.12-.08.2-.22.21-.03,0-.06,0-.1,0-3.91,0-7.82,0-11.73,0-.04,0-.08,0-.12,0-.13-.01-.2-.1-.2-.22,0-.11.08-.19.21-.19.29,0,.59,0,.88,0,.11,0,.16-.03.22-.13.21-.39.57-.6.98-.72.1-.03.22-.06.32-.05.16.01.24-.06.33-.18.31-.43.72-.72,1.24-.86.05-.01.11-.04.15-.09.46-.54,1.04-.86,1.76-.95.06-1.32-.2-2.58-.82-3.76-.02,0-.04.01-.05.02-1.02.83-2.49.8-3.57-.05-.78-.62-1.32-1.42-1.73-2.32-.38-.83-.62-1.7-.76-2.6-.06-.4.21-.79.62-.81.43-.03.86,0,1.29.01.12,0,.25.02.37.04.16.02.24.11.22.24-.02.13-.12.18-.28.17-.45-.03-.91-.05-1.36-.07-.37-.02-.49.18-.43.5.24,1.23.61,2.4,1.33,3.44.3.45.66.84,1.1,1.16.89.64,2.05.65,2.88.03.05-.04.1-.09.16-.14Zm-3.34,7.11h9.2c-.31-.34-.66-.51-1.1-.47-.17.02-.26-.03-.35-.17-.27-.46-.66-.78-1.19-.9-.12-.03-.2-.08-.28-.18-.4-.48-.89-.79-1.53-.83-.76-.05-1.37.26-1.85.84-.06.07-.14.13-.22.15-.55.12-.96.44-1.25.92-.08.14-.18.19-.35.17-.44-.05-.79.13-1.1.47Z" fill="#fff" stroke-width="0"/><path d="m6.26,18.48s-.04,0-.06,0c-.14-.02-.22-.11-.22-.24,0-.13.1-.21.23-.21.24,0,.56,0,.88,0,.1,0,.14-.02.2-.12.2-.35.52-.59,1-.73.11-.03.22-.06.33-.05.14.01.22-.05.31-.17.32-.44.74-.74,1.25-.87.06-.01.11-.04.14-.08.48-.55,1.05-.87,1.76-.95.06-1.32-.22-2.57-.81-3.71,0,0,0,0,0,0-.01,0-.02,0-.02.01-1.03.84-2.51.82-3.6-.05-.71-.57-1.28-1.33-1.73-2.32-.36-.8-.61-1.65-.77-2.61-.03-.21.02-.42.15-.59.12-.15.29-.24.48-.25.32-.02.65,0,.96,0,.11,0,.22,0,.33.01.1,0,.2.02.29.03.03,0,.05,0,.08.01.09.01.16.05.2.1.03.04.05.1.04.16-.02.13-.13.2-.3.19-.25-.01-.51-.03-.75-.04-.2,0-.4-.02-.61-.03-.16,0-.28.03-.35.1-.07.08-.09.2-.06.37.27,1.42.69,2.51,1.32,3.43.33.48.69.86,1.1,1.16.88.63,2.03.65,2.85.03.04-.03.07-.06.11-.09.01-.01.03-.02.04-.03-.39-.64-.75-1.08-1.16-1.42-.38-.32-.79-.62-1.18-.92-.17-.13-.33-.25-.5-.38-.02-.02-.04-.03-.07-.05-.02-.01-.05-.03-.07-.05-.12-.09-.15-.22-.07-.33.08-.11.21-.12.32-.05.23.16.51.35.78.54.93.68,1.56,1.29,2.04,1.98.05.07.1.14.15.22l.06.09c.19-.26.31-.53.36-.83.17-.92-.12-1.71-.86-2.36-.62-.55-1.4-.92-2.45-1.17-.11-.03-.19-.09-.22-.17-.02-.06,0-.12.04-.18.05-.06.17-.11.24-.1,1.28.3,2.2.77,2.91,1.49,1.02,1.03,1.13,2.59.27,3.7-.02.02-.03.08-.02.11.37.69.63,1.43.77,2.2l.02-.06c.03-.08.06-.15.08-.22.22-.56.51-1.08.87-1.55.04-.05.06-.08.03-.14-.54-1.03-.22-2.31.78-3.03.57-.41,1.25-.68,2.08-.84.75-.14,1.54-.15,2.41-.05.2.02.37.13.48.29.1.15.14.33.09.5-.32,1.28-.81,2.3-1.52,3.12-.13.15-.28.29-.44.44-.06.05-.12.08-.18.08-.06,0-.11-.03-.16-.08-.09-.1-.08-.24.03-.34.81-.74,1.37-1.73,1.77-3.12.05-.17.05-.28,0-.35-.05-.07-.16-.09-.31-.1-1.44-.12-2.52.04-3.49.52-.62.3-1.01.7-1.22,1.21-.19.49-.18.96.05,1.45.01-.03.03-.06.05-.08.66-.69,1.44-1.26,2.34-1.68,0,0,.02,0,.02-.01.05-.02.1-.05.15-.04.04.01.17.06.2.14.02.06,0,.14-.06.25-.02.04-.06.05-.11.07-.01,0-.03.01-.04.02-.91.44-1.67,1.01-2.33,1.74.03.03.07.06.1.09.09.08.17.16.26.22.53.36,1.12.43,1.75.21.19-.07.34-.08.4.1.02.06.02.12,0,.17-.03.07-.11.13-.25.17-.97.32-1.81.13-2.52-.56-.01-.01-.02-.02-.03-.03h0c-.73.97-1.12,2.08-1.18,3.3.06.02.12.03.18.04.15.03.28.07.42.11.42.14.79.4,1.13.78.05.06.12.1.19.12.53.15.96.47,1.28.94.05.07.1.1.19.1.51.01.94.22,1.29.62h.01s.07.09.08.13c.03.14.11.16.25.15.16,0,.31,0,.47,0h.1c.15,0,.25.09.25.23,0,.13-.09.22-.24.23-.02,0-.05,0-.07,0h-.03s-11.76,0-11.76,0c-.01,0-.02,0-.03,0Zm.42-.42c-.17,0-.33,0-.47,0-.11,0-.18.06-.19.17,0,.11.06.18.18.2.03,0,.06,0,.09,0h.03s11.76,0,11.76,0c.02,0,.04,0,.07,0,.13,0,.2-.08.2-.19,0-.11-.08-.18-.21-.18h-.1c-.15,0-.31,0-.46,0-.12,0-.26,0-.3-.18,0-.04-.04-.07-.07-.1h-.01c-.34-.4-.76-.6-1.26-.61-.11,0-.17-.04-.23-.12-.32-.46-.74-.77-1.26-.92-.08-.02-.15-.07-.21-.13-.34-.37-.7-.62-1.11-.76-.13-.05-.27-.08-.42-.11-.07-.02-.13-.03-.2-.05-.01,0-.02-.01-.02-.02.05-1.25.46-2.38,1.2-3.37,0,0,0,0,.02,0,0,0,.01,0,.02,0l.03.02s.02.02.04.03c.69.68,1.52.87,2.47.55.12-.04.19-.09.22-.14.02-.04.02-.08,0-.13-.04-.11-.11-.15-.35-.07-.64.22-1.25.15-1.79-.22-.09-.06-.18-.15-.26-.22-.04-.04-.08-.07-.12-.11,0,0,0,0,0-.02,0,0,0-.01,0-.02.67-.75,1.44-1.32,2.36-1.77.01,0,.03-.01.05-.02.04-.01.07-.03.09-.05.05-.09.07-.17.06-.21-.01-.04-.1-.09-.17-.11-.03,0-.07.02-.11.03,0,0-.02,0-.03.01-.89.42-1.67.98-2.33,1.67-.02.02-.03.05-.04.08,0,.01-.01.03-.02.04,0,0-.01.01-.02.01h0s-.02,0-.02-.01c-.25-.51-.28-1.01-.07-1.53.21-.53.61-.93,1.24-1.23.98-.48,2.06-.64,3.52-.52.16.01.28.04.34.12.05.08.05.2,0,.39-.4,1.39-.97,2.39-1.78,3.14-.09.08-.1.19-.03.27.04.04.08.06.12.06.05,0,.1-.02.15-.06.16-.15.3-.29.43-.44.7-.82,1.2-1.83,1.51-3.1.04-.16,0-.32-.09-.46-.1-.15-.27-.24-.45-.27-.86-.1-1.64-.08-2.39.05-.83.15-1.51.42-2.07.83-.98.71-1.3,1.96-.77,2.97.05.09,0,.14-.03.19-.36.46-.65.98-.87,1.53-.03.07-.06.15-.08.22l-.04.12s-.01.01-.02.01c0,0-.02,0-.02-.01,0-.01,0-.02-.01-.03,0-.01-.01-.02-.01-.03-.15-.77-.41-1.51-.77-2.19-.02-.04,0-.12.02-.15.85-1.09.74-2.62-.27-3.64-.7-.71-1.62-1.18-2.89-1.47-.05-.01-.15.03-.2.08-.04.04-.05.09-.03.14.02.07.09.12.19.14,1.06.25,1.84.63,2.47,1.18.75.66,1.04,1.46.87,2.4-.06.32-.18.61-.39.88,0,0-.01,0-.02,0,0,0-.01,0-.02,0l-.08-.11c-.05-.07-.1-.14-.15-.21-.47-.69-1.1-1.29-2.03-1.97-.27-.19-.54-.38-.78-.54-.1-.06-.2-.05-.26.04-.06.09-.04.19.06.27.02.02.04.03.07.04.02.02.05.03.07.05.16.13.33.25.5.38.39.3.8.6,1.18.92.41.35.78.79,1.18,1.45,0,0,0,.02,0,.03-.02.02-.04.03-.05.05-.04.03-.07.06-.11.09-.84.63-2,.62-2.9-.03-.41-.3-.78-.68-1.11-1.17-.63-.92-1.05-2.02-1.33-3.45-.03-.18-.01-.32.07-.41.08-.09.21-.13.39-.12.2.01.4.02.61.03.25.01.5.02.75.04.11,0,.24-.02.26-.15,0-.05,0-.1-.03-.13-.03-.04-.09-.07-.17-.08-.03,0-.05,0-.08-.01-.09-.01-.19-.03-.29-.03-.11,0-.22,0-.33-.01-.32-.01-.64-.02-.96,0-.18.01-.34.1-.45.24-.12.15-.18.35-.14.55.15.95.4,1.8.76,2.6.45.99,1.01,1.75,1.72,2.31,1.08.85,2.53.88,3.54.05.01,0,.02-.01.04-.02,0,0,.01,0,.02,0,.01,0,.02,0,.03.01.6,1.16.88,2.43.82,3.77,0,.01,0,.02-.02.02-.7.08-1.27.39-1.75.94-.04.04-.1.08-.16.09-.5.13-.91.42-1.23.85-.08.11-.17.21-.35.19-.1,0-.21.02-.32.05-.46.13-.78.36-.97.71-.06.11-.12.14-.24.14-.14,0-.28,0-.41,0Zm10.23,0H7.71s-.02,0-.02-.01c0,0,0-.02,0-.02.33-.36.7-.52,1.12-.47.16.02.24-.03.32-.16.3-.5.72-.81,1.26-.93.06-.01.14-.07.2-.14.53-.62,1.14-.9,1.87-.84.6.04,1.12.32,1.54.84.08.09.16.14.27.17.51.11.91.42,1.21.91.08.14.17.18.32.16.42-.04.79.11,1.12.47,0,0,0,.02,0,.02,0,0-.01.01-.02.01Zm-9.15-.05h9.1c-.31-.32-.65-.46-1.04-.42-.18.02-.28-.03-.37-.18-.29-.48-.68-.78-1.18-.89-.12-.03-.21-.08-.29-.18-.42-.5-.92-.78-1.51-.82-.72-.05-1.32.22-1.84.83-.03.04-.12.13-.23.16-.53.12-.94.42-1.23.91-.09.15-.19.2-.37.19-.39-.04-.73.1-1.04.42Z" fill="#fff" stroke-width="0"/></svg>