<?xml version="1.0" encoding="utf-8"?>
<!-- Generator: Adobe Illustrator 28.0.0, SVG Export Plug-In . SVG Version: 6.00 Build 0)  -->
<svg version="1.1" id="Capa_1" xmlns="http://www.w3.org/2000/svg" xmlns:xlink="http://www.w3.org/1999/xlink" x="0px" y="0px"
	 viewBox="0 0 24 24" style="enable-background:new 0 0 24 24;" xml:space="preserve">
<style type="text/css">
	.st0{fill:#FFFFFF;}
	.st1{clip-path:url(#SVGID_00000008116662516588871820000016965993292725038984_);}
</style>
<g>
	<path class="st0" d="M0.7,11.2c0.1-0.4,0.1-0.8,0.2-1.2c0.7-4.5,4.3-8.1,8.7-9c5.9-1.3,11.7,2.3,13.3,8.1c1.7,6.3-2.3,12.7-8.8,14
		c-0.5,0.1-1,0.1-1.5,0.2h-1.2c-0.1,0-0.1,0-0.2,0c-0.5-0.1-1.1-0.1-1.6-0.2c-4.5-1-7.9-4.6-8.7-9.1c-0.1-0.4-0.1-0.8-0.2-1.2
		C0.7,12.3,0.7,11.8,0.7,11.2L0.7,11.2z M12,1.6C6.3,1.6,1.6,6.3,1.6,12c0,5.7,4.6,10.4,10.3,10.4c5.7,0,10.4-4.6,10.4-10.4
		C22.3,6.3,17.7,1.6,12,1.6L12,1.6z"/>
	<g>
		<defs>
			<rect id="SVGID_1_" x="7.1" y="3.3" width="9.9" height="16.5"/>
		</defs>
		<clipPath id="SVGID_00000159462661047049142310000013850023604453404832_">
			<use xlink:href="#SVGID_1_"  style="overflow:visible;"/>
		</clipPath>
		<g style="clip-path:url(#SVGID_00000159462661047049142310000013850023604453404832_);">
			<path class="st0" d="M6.4,15.6c0,0.7,0,1.3,0,2c0,0.1,0,0.1,0,0.2h1.3v-6c-0.1,0-0.1,0-0.2,0c-0.4,0-0.4-0.1-0.5-0.5
				c0-0.3,0-0.6,0-0.8H2.7c0,0.1,0,0.2,0,0.2c0,1.7,0,3.5,0,5.2c0,0.3-0.1,0.5-0.3,0.5S2.1,16.3,2.1,16c0-1.7,0-3.5,0-5.2v-0.3
				c-0.1,0-0.2,0-0.3,0c-0.2,0-0.3-0.1-0.3-0.3c0-0.2,0.1-0.3,0.3-0.3c0.1,0,0.1,0,0.2,0c1.4,0,2.7,0,4.1,0c0.1,0,0.3,0,0.4-0.1
				c1.7-1,3.4-2,5-2.9c0.1-0.1,0.2-0.2,0.2-0.3c0-0.9,0-1.8,0-2.7c0-0.1,0-0.2,0-0.2c0.1-0.1,0.2-0.2,0.3-0.2c0.1,0,0.2,0.1,0.3,0.2
				c0.1,0.1,0.1,0.1,0.2,0.1c0.6,0,1.1,0,1.7,0c0.3,0,0.4,0.1,0.4,0.4c0,0.5,0,1,0,1.4c0,0.3-0.1,0.4-0.4,0.4c-0.6,0-1.2,0-1.8,0
				c0,0-0.1,0-0.1,0c0,0.2,0,0.5,0,0.8c0,0.1,0.1,0.1,0.1,0.1c1.7,1,3.4,2,5.2,3c0.1,0.1,0.2,0.1,0.3,0.1c1.4,0,2.8,0,4.2,0
				c0.1,0,0.2,0,0.2,0c0.2,0,0.2,0.1,0.2,0.3s-0.1,0.3-0.3,0.3c-0.1,0-0.2,0-0.4,0c0,0.2,0.1,0.6-0.3,0.6c-0.4,0-0.3-0.4-0.3-0.6H17
				c0,0.2,0,0.5,0,0.8c0,0.5,0,0.5-0.5,0.6c0,0-0.1,0-0.1,0v6c4.7,0,10.2,2.2,10.7,2.2c0-0.1-18.3-0.3-25-0.3c-0.1,0-0.1,0-0.2,0
				c-0.2,0-0.3-0.1-0.3-0.3c0-0.2,0.1-0.3,0.3-0.3c0.1,0,0.2,0,0.4,0c0-0.5,0-1,0-1.5c0-0.3,0.1-0.5,0.3-0.5c0.2,0,0.3,0.1,0.3,0.5
				c0,0,0,0.1,0,0.2h1.3c0-0.1,0-0.1,0-0.2c0-0.6,0-1.3,0-2c0-0.4,0.1-0.5,0.4-0.5 M16.4,10C16.4,10,16.4,9.9,16.4,10
				c-1.5-0.9-2.9-1.7-4.3-2.5c-0.1-0.1-0.2,0-0.3,0C10.5,8.2,9.1,9,7.8,9.8c-0.1,0-0.1,0.1-0.2,0.1H16.4L16.4,10z M7.7,19.2h8.6
				v-0.7H7.7L7.7,19.2L7.7,19.2z M7.7,10.6v0.7h8.6v-0.7H7.7z M12.3,17.9v-6c-0.2,0-0.3,0-0.4,0c-0.2,0-0.2,0.1-0.2,0.2
				c0,1.8,0,3.7,0,5.5c0,0.1,0,0.1,0,0.2L12.3,17.9L12.3,17.9z M8.4,11.9v6H9v-6H8.4z M15.6,17.9v-6H15v6H15.6z M2.7,19.2H7v-0.7
				H2.7C2.7,18.5,2.7,19.2,2.7,19.2z M17,19.2h4.3v-0.7H17V19.2z M9.7,15.9v2H11v-2H9.7z M13,15.9v2h1.3v-2H13z M9.7,11.9
				c0,0.5,0,1.1,0,1.6c0,0,0.1,0.1,0.1,0.1c0.4,0,0.8,0,1.2,0v-1.7H9.7z M13,13.6c0.4,0,0.8,0,1.2,0c0.1,0,0.2-0.1,0.2-0.2
				c0-0.4,0-0.9,0-1.3c0-0.1,0-0.1,0-0.1H13V13.6L13,13.6z M4.7,15.9v2h1v-2H4.7z M19.3,15.9h-1v2h1V15.9z M12.3,5.3H14v-1h-1.7V5.3
				z M9.7,15.2c0.4,0,0.8,0,1.2,0c0,0,0.1-0.1,0.1-0.1c0-0.3,0-0.6,0-0.9H9.7L9.7,15.2L9.7,15.2z M14.3,14.2H13c0,0.3,0,0.6,0,0.9
				c0,0.1,0.1,0.1,0.1,0.1c0.4,0,0.8,0,1.2,0C14.3,15.2,14.3,14.2,14.3,14.2z"/>
		</g>
	</g>
</g>
</svg>
