<!-- Generated by IcoMoon.io -->
<svg version="1.1" xmlns="http://www.w3.org/2000/svg" width="1024" height="1024" viewBox="0 0 1024 1024">
<title></title>
<g id="icomoon-ignore">
</g>
<path fill="#217346" d="M1004.928 132.352h-343.040v63.488h101.12v100.437h-101.12v32h101.12v100.565h-101.12v32.896h101.12v95.104h-101.12v38.101h101.12v95.317h-101.12v38.101h101.12v95.872h-101.12v69.931h343.040c5.419-1.621 9.941-8.021 13.568-19.115 3.627-11.179 5.504-20.267 5.504-27.136v-703.957c0-5.461-1.877-8.747-5.504-9.899-3.627-1.109-8.149-1.707-13.568-1.707zM960.427 824.149h-164.565v-95.787h164.565v95.872zM960.427 690.261h-164.565v-95.36h164.565zM960.427 556.8h-164.565v-94.677h164.565v94.763zM960.427 428.8h-164.565v-100.437h164.565v100.48zM960.427 295.723h-164.565v-99.84h164.565v100.48zM0 116.523v793.643l604.16 104.491v-1005.312l-604.16 107.52zM358.101 716.885c-2.304-6.229-13.141-32.683-32.341-79.488-19.157-46.763-30.72-73.984-34.091-81.749h-1.067l-64.811 154.24-86.613-5.845 102.741-192-94.080-192 88.32-4.651 58.368 150.229h1.152l65.92-157.056 91.264-5.76-108.672 207.787 112 211.968-98.091-5.76z"></path>
</svg>
